<?xml version="1.0" encoding="UTF-8" standalone="no"?>
<!-- Created with Inkscape (http://www.inkscape.org/) -->

<svg
   xmlns:dc="http://purl.org/dc/elements/1.1/"
   xmlns:cc="http://creativecommons.org/ns#"
   xmlns:rdf="http://www.w3.org/1999/02/22-rdf-syntax-ns#"
   xmlns:svg="http://www.w3.org/2000/svg"
   xmlns="http://www.w3.org/2000/svg"
   xmlns:xlink="http://www.w3.org/1999/xlink"
   xmlns:sodipodi="http://sodipodi.sourceforge.net/DTD/sodipodi-0.dtd"
   xmlns:inkscape="http://www.inkscape.org/namespaces/inkscape"
   sodipodi:docname="hio_iteration.svg"
   inkscape:version="0.47 r22583"
   version="1.1"
   id="svg7109"
   height="1052.3622047"
   width="744.09448819">
  <sodipodi:namedview
     id="base"
     pagecolor="#ffffff"
     bordercolor="#666666"
     borderopacity="1.0"
     inkscape:pageopacity="0.0"
     inkscape:pageshadow="2"
     inkscape:zoom="0.7"
     inkscape:cx="630.44899"
     inkscape:cy="658.49876"
     inkscape:document-units="px"
     inkscape:current-layer="layer1"
     showgrid="false"
     inkscape:window-width="1806"
     inkscape:window-height="1140"
     inkscape:window-x="74"
     inkscape:window-y="0"
     inkscape:window-maximized="0" />
  <defs
     id="defs7111">
    <marker
       style="overflow:visible"
       id="DotM"
       refX="0.0"
       refY="0.0"
       orient="auto"
       inkscape:stockid="DotM">
      <path
         transform="scale(0.4) translate(7.4, 1)"
         style="fill-rule:evenodd;stroke:#000000;stroke-width:1.0pt;marker-start:none;marker-end:none"
         d="M -2.5,-1.0 C -2.5,1.7600000 -4.7400000,4.0 -7.5,4.0 C -10.260000,4.0 -12.5,1.7600000 -12.5,-1.0 C -12.5,-3.7600000 -10.260000,-6.0 -7.5,-6.0 C -4.7400000,-6.0 -2.5,-3.7600000 -2.5,-1.0 z "
         id="path4147" />
    </marker>
    <marker
       style="overflow:visible"
       id="Arrow1Lstart"
       refX="0.0"
       refY="0.0"
       orient="auto"
       inkscape:stockid="Arrow1Lstart">
      <path
         transform="scale(0.8) translate(12.5,0)"
         style="fill-rule:evenodd;stroke:#000000;stroke-width:1.0pt;marker-start:none"
         d="M 0.0,0.0 L 5.0,-5.0 L -12.5,0.0 L 5.0,5.0 L 0.0,0.0 z "
         id="path4082" />
    </marker>
    <marker
       style="overflow:visible;"
       id="Arrow1Lend"
       refX="0.0"
       refY="0.0"
       orient="auto"
       inkscape:stockid="Arrow1Lend">
      <path
         transform="scale(0.8) rotate(180) translate(12.5,0)"
         style="fill-rule:evenodd;stroke:#000000;stroke-width:1.0pt;marker-start:none;"
         d="M 0.0,0.0 L 5.0,-5.0 L -12.5,0.0 L 5.0,5.0 L 0.0,0.0 z "
         id="path4085" />
    </marker>
    <inkscape:perspective
       id="perspective7117"
       inkscape:persp3d-origin="372.04724 : 350.78739 : 1"
       inkscape:vp_z="744.09448 : 526.18109 : 1"
       inkscape:vp_y="0 : 1000 : 0"
       inkscape:vp_x="0 : 526.18109 : 1"
       sodipodi:type="inkscape:persp3d" />
    <inkscape:perspective
       sodipodi:type="inkscape:persp3d"
       inkscape:vp_x="0 : 0.5 : 1"
       inkscape:vp_y="0 : 1000 : 0"
       inkscape:vp_z="1 : 0.5 : 1"
       inkscape:persp3d-origin="0.5 : 0.33333333 : 1"
       id="perspective7127" />
    <marker
       inkscape:stockid="Arrow1LstartIK"
       orient="auto"
       refY="0"
       refX="0"
       id="Arrow1LstartIK"
       style="overflow:visible">
      <path
         id="path6502"
         d="M 0,0 5,-5 -12.5,0 5,5 0,0 z"
         style="fill:#fcaf3e;fill-rule:evenodd;stroke:#fcaf3e;stroke-width:1pt;marker-start:none"
         transform="matrix(0.8,0,0,0.8,10,0)" />
    </marker>
    <marker
       style="overflow:visible"
       id="Arrow1LendVOw"
       refX="0"
       refY="0"
       orient="auto"
       inkscape:stockid="Arrow1LendVOw">
      <path
         transform="matrix(-0.8,0,0,-0.8,-10,0)"
         style="fill:#fcaf3e;fill-rule:evenodd;stroke:#fcaf3e;stroke-width:1pt;marker-start:none"
         d="M 0,0 5,-5 -12.5,0 5,5 0,0 z"
         id="path6505" />
    </marker>
    <marker
       style="overflow:visible"
       id="Arrow1LendOW"
       refX="0"
       refY="0"
       orient="auto"
       inkscape:stockid="Arrow1LendOW">
      <path
         transform="matrix(-0.8,0,0,-0.8,-10,0)"
         style="fill:#f57900;fill-rule:evenodd;stroke:#f57900;stroke-width:1pt;marker-start:none"
         d="M 0,0 5,-5 -12.5,0 5,5 0,0 z"
         id="path6405" />
    </marker>
    <marker
       style="overflow:visible"
       id="Arrow1LendSm"
       refX="0"
       refY="0"
       orient="auto"
       inkscape:stockid="Arrow1LendSm">
      <path
         transform="matrix(-0.8,0,0,-0.8,-10,0)"
         style="fill:#ce5c00;fill-rule:evenodd;stroke:#ce5c00;stroke-width:1pt;marker-start:none"
         d="M 0,0 5,-5 -12.5,0 5,5 0,0 z"
         id="path6312" />
    </marker>
    <marker
       style="overflow:visible"
       id="Arrow1LendVj"
       refX="0"
       refY="0"
       orient="auto"
       inkscape:stockid="Arrow1LendVj">
      <path
         transform="matrix(-0.8,0,0,-0.8,-10,0)"
         style="fill:#ef2929;fill-rule:evenodd;stroke:#ef2929;stroke-width:1pt;marker-start:none"
         d="M 0,0 5,-5 -12.5,0 5,5 0,0 z"
         id="path6223" />
    </marker>
    <marker
       style="overflow:visible"
       id="Arrow1LendRD"
       refX="0"
       refY="0"
       orient="auto"
       inkscape:stockid="Arrow1LendRD">
      <path
         transform="matrix(-0.8,0,0,-0.8,-10,0)"
         style="fill:#cc0000;fill-rule:evenodd;stroke:#cc0000;stroke-width:1pt;marker-start:none"
         d="M 0,0 5,-5 -12.5,0 5,5 0,0 z"
         id="path6138" />
    </marker>
    <marker
       style="overflow:visible"
       id="Arrow1LendYI"
       refX="0"
       refY="0"
       orient="auto"
       inkscape:stockid="Arrow1LendYI">
      <path
         transform="matrix(-0.8,0,0,-0.8,-10,0)"
         style="fill:#a40000;fill-rule:evenodd;stroke:#a40000;stroke-width:1pt;marker-start:none"
         d="M 0,0 5,-5 -12.5,0 5,5 0,0 z"
         id="path6057" />
    </marker>
    <linearGradient
       gradientUnits="userSpaceOnUse"
       y2="285.03934"
       x2="240.87538"
       y1="150.72049"
       x1="237.95602"
       id="linearGradient7057"
       xlink:href="#linearGradient7051"
       inkscape:collect="always"
       gradientTransform="translate(71.056646,-70.503227)" />
    <linearGradient
       id="linearGradient7051">
      <stop
         id="stop7053"
         offset="0"
         style="stop-color:#1f3d5c;stop-opacity:1;" />
      <stop
         id="stop7055"
         offset="1"
         style="stop-color:#3972ac;stop-opacity:1;" />
    </linearGradient>
    <linearGradient
       gradientUnits="userSpaceOnUse"
       y2="415.78174"
       x2="216.58348"
       y1="691.49603"
       x1="258.2363"
       id="linearGradient7065"
       xlink:href="#linearGradient7059"
       inkscape:collect="always" />
    <linearGradient
       id="linearGradient7059">
      <stop
         id="stop7061"
         offset="0"
         style="stop-color:#7fb2e5;stop-opacity:1;" />
      <stop
         id="stop7063"
         offset="1"
         style="stop-color:#fcfdfe;stop-opacity:1;" />
    </linearGradient>
    <linearGradient
       inkscape:collect="always"
       xlink:href="#linearGradient7059"
       id="linearGradient7165"
       gradientUnits="userSpaceOnUse"
       x1="258.2363"
       y1="691.49603"
       x2="216.58348"
       y2="415.78174"
       gradientTransform="translate(71.056646,-70.503227)" />
    <inkscape:perspective
       sodipodi:type="inkscape:persp3d"
       inkscape:vp_x="0 : 0.5 : 1"
       inkscape:vp_y="0 : 1000 : 0"
       inkscape:vp_z="1 : 0.5 : 1"
       inkscape:persp3d-origin="0.5 : 0.33333333 : 1"
       id="perspective10406" />
    <marker
       inkscape:stockid="Arrow1LstartIK"
       orient="auto"
       refY="0"
       refX="0"
       id="Arrow1LstartIK-9"
       style="overflow:visible">
      <path
         id="path6502-5"
         d="M 0,0 5,-5 -12.5,0 5,5 0,0 z"
         style="fill:#fcaf3e;fill-rule:evenodd;stroke:#fcaf3e;stroke-width:1pt;marker-start:none"
         transform="matrix(0.8,0,0,0.8,10,0)" />
    </marker>
    <marker
       style="overflow:visible"
       id="Arrow1LendVOw-2"
       refX="0"
       refY="0"
       orient="auto"
       inkscape:stockid="Arrow1LendVOw">
      <path
         transform="matrix(-0.8,0,0,-0.8,-10,0)"
         style="fill:#fcaf3e;fill-rule:evenodd;stroke:#fcaf3e;stroke-width:1pt;marker-start:none"
         d="M 0,0 5,-5 -12.5,0 5,5 0,0 z"
         id="path6505-1" />
    </marker>
    <marker
       style="overflow:visible"
       id="Arrow1LendOW-3"
       refX="0"
       refY="0"
       orient="auto"
       inkscape:stockid="Arrow1LendOW">
      <path
         transform="matrix(-0.8,0,0,-0.8,-10,0)"
         style="fill:#f57900;fill-rule:evenodd;stroke:#f57900;stroke-width:1pt;marker-start:none"
         d="M 0,0 5,-5 -12.5,0 5,5 0,0 z"
         id="path6405-0" />
    </marker>
    <marker
       style="overflow:visible"
       id="Arrow1LendSm-9"
       refX="0"
       refY="0"
       orient="auto"
       inkscape:stockid="Arrow1LendSm">
      <path
         transform="matrix(-0.8,0,0,-0.8,-10,0)"
         style="fill:#ce5c00;fill-rule:evenodd;stroke:#ce5c00;stroke-width:1pt;marker-start:none"
         d="M 0,0 5,-5 -12.5,0 5,5 0,0 z"
         id="path6312-9" />
    </marker>
    <marker
       style="overflow:visible"
       id="Arrow1LendVj-1"
       refX="0"
       refY="0"
       orient="auto"
       inkscape:stockid="Arrow1LendVj">
      <path
         transform="matrix(-0.8,0,0,-0.8,-10,0)"
         style="fill:#ef2929;fill-rule:evenodd;stroke:#ef2929;stroke-width:1pt;marker-start:none"
         d="M 0,0 5,-5 -12.5,0 5,5 0,0 z"
         id="path6223-3" />
    </marker>
    <marker
       style="overflow:visible"
       id="Arrow1LendRD-4"
       refX="0"
       refY="0"
       orient="auto"
       inkscape:stockid="Arrow1LendRD">
      <path
         transform="matrix(-0.8,0,0,-0.8,-10,0)"
         style="fill:#cc0000;fill-rule:evenodd;stroke:#cc0000;stroke-width:1pt;marker-start:none"
         d="M 0,0 5,-5 -12.5,0 5,5 0,0 z"
         id="path6138-5" />
    </marker>
    <marker
       style="overflow:visible"
       id="Arrow1LendYI-8"
       refX="0"
       refY="0"
       orient="auto"
       inkscape:stockid="Arrow1LendYI">
      <path
         transform="matrix(-0.8,0,0,-0.8,-10,0)"
         style="fill:#a40000;fill-rule:evenodd;stroke:#a40000;stroke-width:1pt;marker-start:none"
         d="M 0,0 5,-5 -12.5,0 5,5 0,0 z"
         id="path6057-5" />
    </marker>
    <linearGradient
       gradientUnits="userSpaceOnUse"
       y2="285.03934"
       x2="240.87538"
       y1="150.72049"
       x1="237.95602"
       id="linearGradient7057-7"
       xlink:href="#linearGradient7051-3"
       inkscape:collect="always"
       gradientTransform="translate(69.060976,43.508515)" />
    <linearGradient
       id="linearGradient7051-3">
      <stop
         id="stop7053-3"
         offset="0"
         style="stop-color:#1f3d5c;stop-opacity:1;" />
      <stop
         id="stop7055-8"
         offset="1"
         style="stop-color:#3972ac;stop-opacity:1;" />
    </linearGradient>
    <linearGradient
       gradientUnits="userSpaceOnUse"
       y2="415.78174"
       x2="216.58348"
       y1="691.49603"
       x1="258.2363"
       id="linearGradient7065-9"
       xlink:href="#linearGradient7059-5"
       inkscape:collect="always" />
    <linearGradient
       id="linearGradient7059-5">
      <stop
         id="stop7061-5"
         offset="0"
         style="stop-color:#7fb2e5;stop-opacity:1;" />
      <stop
         id="stop7063-3"
         offset="1"
         style="stop-color:#fcfdfe;stop-opacity:1;" />
    </linearGradient>
    <linearGradient
       inkscape:collect="always"
       xlink:href="#linearGradient7059-5"
       id="linearGradient10444"
       gradientUnits="userSpaceOnUse"
       x1="258.2363"
       y1="691.49603"
       x2="216.58348"
       y2="415.78174"
       gradientTransform="translate(69.060976,43.508515)" />
  </defs>
  <metadata
     id="metadata7114">
    <rdf:RDF>
      <cc:Work
         rdf:about="">
        <dc:format>image/svg+xml</dc:format>
        <dc:type
           rdf:resource="http://purl.org/dc/dcmitype/StillImage" />
        <dc:title />
      </cc:Work>
    </rdf:RDF>
  </metadata>
  <g
     id="layer1"
     inkscape:groupmode="layer"
     inkscape:label="Layer 1">
    <path
       sodipodi:nodetypes="caaaaaaaaaaca"
       id="path3301-8"
       d="m -42.99112,704.04408 c 0,0 36.2282722,-47.57473 66.973106,-58.08377 44.80379,-15.3146 98.340814,5.1104 147.078214,1.01015 34.8328,-2.93046 70.47642,-7.11975 102.42949,-18.18274 39.20958,-13.5754 63.57843,-66.29743 105.05586,-57.5787 33.26952,6.99339 7.67703,70.30884 42.02234,72.73099 18.499,1.30461 20.45412,-23.87581 31.51677,-35.35534 11.68401,-12.12431 27.03165,-22.25315 36.76954,-35.35534 19.52901,-26.27603 25.14927,-57.50985 42.02234,-84.85281 21.44342,-34.74923 24.88813,-101.56091 74.85231,-100.00511 62.86435,1.95749 44.07337,91.8906 80.64905,131.26907 22.59102,24.32219 68.21007,36.46924 83.5701,62.52571 20.193,34.25503 27.18919,122.35535 27.18919,122.35535"
       style="fill:url(#linearGradient10444);fill-opacity:1;stroke:#000000;stroke-width:2.28035092;stroke-linecap:butt;stroke-linejoin:miter;stroke-miterlimit:4;stroke-opacity:1;stroke-dasharray:none" />
    <path
       sodipodi:nodetypes="caaaaaaaaac"
       id="path3303-6"
       d="m -43.98567,228.22633 c 0,0 15.405944,22.01086 26.304899,31.10532 7.8630482,6.56119 17.62884424,11.72933 27.5362262,16.37185 16.3984608,7.68419 34.4980908,13.01836 52.2093008,18.72373 25.42396,8.1899 50.967304,16.42194 77.478694,22.22335 25.76196,5.63742 52.3169,9.00086 78.7919,12.12183 36.55326,4.30903 73.47345,6.57657 110.30866,9.09137 62.06801,4.23748 124.1853,11.40791 186.47415,10.10153 51.21233,-1.07407 105.73558,1.37793 152.49832,-14.719 26.44837,-9.10421 45.66071,-27.70987 65.5405,-43.92565 22.67415,-18.4951 60.63921,-60.33831 60.63921,-60.33831"
       style="fill:url(#linearGradient7057-7);fill-opacity:1;fill-rule:nonzero;stroke:#000000;stroke-width:2.28035092;stroke-linecap:butt;stroke-linejoin:miter;stroke-miterlimit:4;stroke-opacity:1;stroke-dasharray:none" />
    <text
       sodipodi:linespacing="125%"
       id="text5991-0"
       y="262.44189"
       x="212.28331"
       style="font-size:36px;font-style:normal;font-variant:normal;font-weight:normal;font-stretch:normal;text-align:start;line-height:125%;writing-mode:lr-tb;text-anchor:start;fill:#000000;fill-opacity:1;stroke:none;font-family:Nimbus Roman No9 L;-inkscape-font-specification:Nimbus Roman No9 L"
       xml:space="preserve"><tspan
         y="262.44189"
         x="212.28331"
         id="tspan5993-3"
         sodipodi:role="line">Support Constraint Set</tspan></text>
    <text
       xml:space="preserve"
       style="font-size:36px;font-style:normal;font-variant:normal;font-weight:normal;font-stretch:normal;text-align:start;line-height:125%;writing-mode:lr-tb;text-anchor:start;fill:#000000;fill-opacity:1;stroke:none;font-family:Nimbus Roman No9 L;-inkscape-font-specification:Nimbus Roman No9 L"
       x="205.86238"
       y="696.48334"
       id="text5995-3"
       sodipodi:linespacing="125%"><tspan
         sodipodi:role="line"
         id="tspan5997-6"
         x="205.86238"
         y="696.48334">Modulus Constraint Set</tspan></text>
    <path
       sodipodi:nodetypes="cc"
       id="path10739"
       d="m 365.2886,569.55779 16.80113,75.71868"
       style="fill:none;stroke:#000000;stroke-width:1.5;stroke-linecap:butt;stroke-linejoin:miter;stroke-miterlimit:4;stroke-opacity:1;stroke-dasharray:1.5,6;stroke-dashoffset:0;marker-start:none;marker-end:url(#DotM)" />
    <g
       id="g11241"
       transform="matrix(0.7,0,0,0.7,100.61991,252.74828)">
      <g
         word-spacing="normal"
         letter-spacing="normal"
         font-size-adjust="none"
         font-stretch="normal"
         font-weight="normal"
         font-variant="normal"
         font-style="normal"
         fill-rule="even-odd"
         stroke-miterlimit="10.433"
         xml:space="preserve"
         transform="matrix(1.0629921,0,0,-1.0629921,-186.02362,789.27165)"
         id="content"
         style="font-style:normal;font-variant:normal;font-weight:normal;font-stretch:normal;letter-spacing:normal;word-spacing:normal;text-anchor:start;fill:none;stroke:#000000;stroke-linecap:butt;stroke-linejoin:miter;stroke-miterlimit:10.43299961;stroke-opacity:1;stroke-dasharray:none;stroke-dashoffset:0"><path
           id="path11244"
           d="m 457.64,397.38 0,-0.02 -0.01,-0.03 0,-0.03 -0.01,-0.02 -0.01,-0.03 0,-0.02 -0.01,-0.03 0,-0.02 -0.01,-0.02 0,-0.02 -0.01,-0.02 0,-0.02 -0.01,-0.02 0,-0.02 -0.01,-0.04 -0.01,-0.03 -0.01,-0.04 0,-0.03 -0.01,-0.03 0,-0.02 -0.01,-0.03 0,-0.02 -0.01,-0.02 0,-0.02 0,-0.02 0,-0.02 -0.01,-0.02 0,-0.01 0,-0.02 0,-0.01 0,-0.01 0,-0.01 0,-0.02 0,-0.02 0,-0.02 0,-0.01 c 0,-0.75 0.54,-1.35 1.39,-1.35 1.04,0 1.64,0.9 1.74,1.05 0.25,0.44 1.85,7.12 3.19,12.5 1,-1.99 2.59,-3.34 4.93,-3.34 l -0.05,1.1 c -3.49,0 -4.28,3.98 -4.28,4.43 0,0.2 0.25,1.2 0.4,1.84 1.39,5.58 1.89,7.38 2.98,9.37 2.15,3.63 4.64,4.73 6.18,4.73 1.84,0 3.44,-1.44 3.44,-4.88 0,-2.74 -1.44,-8.32 -2.79,-10.76 -1.65,-3.14 -4.04,-4.73 -5.93,-4.73 h 0 l 0.05,-1.1 c 5.83,0 12.26,7.03 12.26,14.45 0,5.28 -3.29,8.12 -6.93,8.12 -4.83,0 -10.06,-4.98 -11.55,-11.06 z"
           style="fill:#000000;stroke-width:0" /><path
           id="path11246"
           d="m 492.3,420.79 0,0.06 -0.01,0.05 0,0.05 -0.01,0.06 -0.01,0.06 -0.02,0.05 -0.01,0.06 -0.02,0.06 -0.03,0.05 -0.02,0.06 -0.03,0.05 -0.03,0.06 -0.03,0.05 -0.03,0.05 -0.04,0.05 -0.04,0.05 -0.05,0.05 -0.04,0.05 -0.05,0.04 -0.06,0.05 -0.05,0.04 -0.06,0.03 -0.06,0.04 -0.07,0.03 -0.07,0.03 -0.07,0.02 -0.07,0.02 -0.08,0.02 -0.08,0.02 -0.08,0.01 -0.09,0 -0.09,0.01 c -0.94,0 -1.95,-0.91 -1.95,-1.92 0,-0.59 0.45,-1.32 1.39,-1.32 1.02,0 1.96,0.97 1.96,1.91 z"
           style="fill:#000000;stroke-width:0" /><path
           id="path11248"
           d="m 485.18,403.08 -0.05,-0.17 -0.05,-0.17 -0.03,-0.08 -0.03,-0.09 -0.02,-0.08 -0.03,-0.09 -0.02,-0.09 -0.02,-0.09 -0.01,-0.1 -0.02,-0.09 -0.01,-0.1 -0.01,-0.05 0,-0.05 0,-0.05 -0.01,-0.06 0,-0.05 0,-0.06 c 0,-1.63 1.4,-2.96 3.31,-2.96 3.49,0 5.02,4.81 5.02,5.33 0,0.46 -0.45,0.46 -0.56,0.46 -0.48,0 -0.52,-0.21 -0.66,-0.59 -0.8,-2.79 -2.33,-4.22 -3.69,-4.22 -0.7,0 -0.88,0.45 -0.88,1.22 0,0.8 0.25,1.46 0.56,2.23 0.35,0.94 0.74,1.88 1.12,2.79 0.31,0.84 1.57,4.01 1.71,4.43 0.1,0.34 0.21,0.77 0.21,1.11 0,1.64 -1.4,2.97 -3.31,2.97 -3.46,0 -5.06,-4.74 -5.06,-5.34 0,-0.45 0.49,-0.45 0.59,-0.45 0.49,0 0.52,0.17 0.63,0.56 0.91,2.99 2.44,4.25 3.73,4.25 0.56,0 0.87,-0.28 0.87,-1.22 0,-0.8 -0.21,-1.32 -1.08,-3.48 z"
           style="fill:#000000;stroke-width:0" /></g>    </g>
    <g
       id="g15346"
       transform="translate(0,4.5456865)">
      <rect
         ry="9.0913725"
         y="549.94202"
         x="243.34848"
         height="45.215946"
         width="112.99646"
         id="rect15344"
         style="opacity:0.8;fill:#ffffff;fill-opacity:1;fill-rule:nonzero;stroke:#000000;stroke-width:0.98705071;stroke-linecap:round;stroke-linejoin:round;stroke-miterlimit:4;stroke-opacity:1;stroke-dasharray:none;stroke-dashoffset:0"
         rx="9.0913725" />
      <g
         id="g11789"
         transform="matrix(0.7,0,0,0.7,35.920117,331.42988)">
        <g
           word-spacing="normal"
           letter-spacing="normal"
           font-size-adjust="none"
           font-stretch="normal"
           font-weight="normal"
           font-variant="normal"
           font-style="normal"
           fill-rule="even-odd"
           stroke-miterlimit="10.433"
           xml:space="preserve"
           transform="matrix(1.0629921,0,0,-1.0629921,-186.02362,789.27165)"
           id="g11791"
           style="font-style:normal;font-variant:normal;font-weight:normal;font-stretch:normal;letter-spacing:normal;word-spacing:normal;text-anchor:start;fill:none;stroke:#000000;stroke-linecap:butt;stroke-linejoin:miter;stroke-miterlimit:10.43299961;stroke-opacity:1;stroke-dasharray:none;stroke-dashoffset:0"><path
             id="path11793"
             d="m 471.09,421.74 0.2,1.3 3.39,13.55 c 0.45,1.74 0.55,1.89 2.69,1.89 h 4.78 c 4.14,0 6.78,-1.35 6.78,-4.78 0,-1.95 -1,-6.23 -2.94,-8.02 -2.49,-2.25 -5.48,-2.64 -7.67,-2.64 h -7.03 l -0.2,-1.3 h 8.47 c 7.08,0 14,5.18 14,10.76 0,3.84 -3.29,7.52 -9.81,7.52 h -16.14 c -0.95,0 -1.5,0 -1.5,-0.95 0,-0.59 0.45,-0.59 1.45,-0.59 0.64,0 1.54,-0.05 2.14,-0.1 0.8,-0.1 1.09,-0.25 1.09,-0.8 0,-0.2 -0.04,-0.35 -0.2,-0.94 l -6.67,-26.75 c -0.5,-1.95 -0.6,-2.35 -4.53,-2.35 -0.85,0 -1.4,0 -1.4,-0.94 0,-0.6 0.6,-0.6 0.75,-0.6 h 12.75 c 0.35,0 1,0 1,1 0,0.54 -0.45,0.54 -1.4,0.54 -1.84,0 -3.23,0 -3.23,0.9 0,0.3 0.1,0.55 0.14,0.85 z"
             style="fill:#000000;stroke-width:0" /><path
             id="path11795"
             d="m 503.13,401.82 -0.01,-0.06 -0.02,-0.07 -0.02,-0.07 -0.02,-0.08 -0.02,-0.07 -0.02,-0.08 -0.04,-0.16 -0.04,-0.16 -0.04,-0.16 -0.04,-0.16 -0.02,-0.07 -0.02,-0.08 -0.02,-0.08 -0.01,-0.07 -0.02,-0.07 -0.02,-0.07 -0.01,-0.07 -0.02,-0.06 -0.01,-0.06 -0.01,-0.06 -0.01,-0.05 -0.02,-0.05 0,-0.04 -0.01,-0.04 -0.01,-0.04 0,-0.03 0,-0.02 -0.01,-0.02 c 0,-0.77 0.63,-1.12 1.19,-1.12 0.63,0 1.19,0.46 1.36,0.77 0.17,0.31 0.45,1.43 0.63,2.16 0.17,0.66 0.56,2.27 0.77,3.14 0.2,0.76 0.41,1.53 0.59,2.33 0.38,1.5 0.38,1.57 1.08,2.65 1.12,1.71 2.86,3.7 5.58,3.7 1.95,0 2.06,-1.6 2.06,-2.44 0,-2.09 -1.5,-5.96 -2.06,-7.43 -0.39,-0.97 -0.52,-1.29 -0.52,-1.88 0,-1.85 1.53,-3 3.31,-3 3.48,0 5.02,4.81 5.02,5.33 0,0.46 -0.45,0.46 -0.56,0.46 -0.49,0 -0.52,-0.21 -0.66,-0.59 -0.81,-2.79 -2.3,-4.22 -3.7,-4.22 -0.73,0 -0.87,0.49 -0.87,1.22 0,0.8 0.17,1.25 0.8,2.82 0.42,1.08 1.85,4.78 1.85,6.73 0,0.56 0,2.03 -1.29,3.04 -0.59,0.45 -1.6,0.94 -3.24,0.94 -3.14,0 -5.06,-2.06 -6.18,-3.52 -0.27,2.96 -2.75,3.52 -4.53,3.52 -2.89,0 -4.84,-1.78 -5.89,-3.18 -0.24,2.41 -2.3,3.18 -3.73,3.18 -1.5,0 -2.3,-1.08 -2.76,-1.88 -0.76,-1.3 -1.25,-3.29 -1.25,-3.46 0,-0.45 0.49,-0.45 0.59,-0.45 0.49,0 0.52,0.11 0.77,1.05 0.52,2.05 1.18,3.76 2.54,3.76 0.91,0 1.16,-0.77 1.16,-1.71 0,-0.66 -0.32,-1.95 -0.56,-2.89 -0.25,-0.94 -0.6,-2.37 -0.77,-3.14 l -1.12,-4.46 c -0.14,-0.46 -0.34,-1.33 -0.34,-1.43 0,-0.77 0.62,-1.12 1.18,-1.12 0.63,0 1.19,0.46 1.36,0.77 0.17,0.31 0.45,1.43 0.63,2.16 0.17,0.66 0.56,2.27 0.76,3.14 0.21,0.76 0.43,1.53 0.6,2.33 0.38,1.43 0.45,1.71 1.46,3.14 0.98,1.4 2.62,3.21 5.23,3.21 2.03,0 2.06,-1.78 2.06,-2.44 0,-0.87 -0.1,-1.32 -0.59,-3.28 z"
             style="fill:#000000;stroke-width:0" /><path
             id="path11797"
             d="m 541.49,394.04 0,0.03 0,0.03 -0.01,0.01 0,0.02 0,0.01 -0.01,0.02 0,0.02 -0.01,0.01 -0.01,0.02 -0.01,0.02 -0.01,0.03 -0.01,0.02 -0.02,0.02 -0.02,0.03 -0.02,0.03 -0.02,0.03 -0.03,0.03 -0.03,0.04 -0.01,0.02 -0.02,0.02 -0.02,0.02 -0.02,0.02 -0.02,0.02 -0.02,0.03 -0.02,0.02 -0.02,0.02 -0.02,0.03 -0.03,0.02 -0.02,0.03 -0.03,0.03 -0.02,0.03 -0.03,0.03 -0.03,0.03 -0.03,0.03 -0.03,0.03 -0.03,0.03 -0.04,0.04 -0.03,0.03 -0.04,0.04 -0.03,0.03 -0.04,0.04 -0.04,0.04 c -6.23,6.28 -7.82,15.69 -7.82,23.31 0,8.67 1.9,17.34 8.02,23.57 0.65,0.59 0.65,0.69 0.65,0.84 0,0.35 -0.2,0.5 -0.5,0.5 -0.5,0 -4.98,-3.39 -7.92,-9.72 -2.54,-5.47 -3.14,-11 -3.14,-15.19 0,-3.88 0.55,-9.91 3.29,-15.54 2.99,-6.12 7.27,-9.36 7.77,-9.36 0.3,0 0.5,0.15 0.5,0.49 z"
             style="fill:#000000;stroke-width:0" /><path
             id="path11799"
             d="m 546.65,397.38 -0.01,-0.02 -0.01,-0.03 0,-0.03 -0.01,-0.02 -0.01,-0.03 0,-0.02 -0.01,-0.03 0,-0.02 -0.01,-0.02 0,-0.02 -0.01,-0.02 0,-0.02 -0.01,-0.02 0,-0.02 -0.01,-0.04 -0.01,-0.03 -0.01,-0.04 0,-0.03 -0.01,-0.03 0,-0.02 -0.01,-0.03 0,-0.02 -0.01,-0.02 0,-0.02 0,-0.02 0,-0.02 -0.01,-0.02 0,-0.01 0,-0.02 0,-0.01 0,-0.01 0,-0.01 0,-0.02 0,-0.02 0,-0.02 0,-0.01 c 0,-0.75 0.54,-1.35 1.39,-1.35 1.04,0 1.64,0.9 1.74,1.05 0.25,0.44 1.85,7.12 3.19,12.5 1,-1.99 2.59,-3.34 4.93,-3.34 l -0.05,1.1 c -3.48,0 -4.28,3.98 -4.28,4.43 0,0.2 0.25,1.2 0.4,1.84 1.39,5.58 1.89,7.38 2.98,9.37 2.15,3.63 4.64,4.73 6.18,4.73 1.84,0 3.44,-1.44 3.44,-4.88 0,-2.74 -1.44,-8.32 -2.79,-10.76 -1.65,-3.14 -4.04,-4.73 -5.93,-4.73 h 0 l 0.05,-1.1 c 5.83,0 12.26,7.03 12.26,14.45 0,5.28 -3.29,8.12 -6.93,8.12 -4.83,0 -10.06,-4.98 -11.55,-11.06 z"
             style="fill:#000000;stroke-width:0" /><path
             id="path11801"
             d="m 581.3,420.79 0,0.06 -0.01,0.05 0,0.05 -0.01,0.06 -0.01,0.06 -0.02,0.05 -0.01,0.06 -0.02,0.06 -0.03,0.05 -0.02,0.06 -0.03,0.05 -0.03,0.06 -0.03,0.05 -0.03,0.05 -0.04,0.05 -0.04,0.05 -0.05,0.05 -0.04,0.05 -0.05,0.04 -0.06,0.05 -0.05,0.04 -0.06,0.03 -0.06,0.04 -0.07,0.03 -0.07,0.03 -0.07,0.02 -0.07,0.02 -0.08,0.02 -0.08,0.02 -0.08,0.01 -0.09,0 -0.09,0.01 c -0.94,0 -1.95,-0.91 -1.95,-1.92 0,-0.59 0.45,-1.32 1.39,-1.32 1.01,0 1.96,0.97 1.96,1.91 z"
             style="fill:#000000;stroke-width:0" /><path
             id="path11803"
             d="m 574.18,403.08 -0.05,-0.17 -0.05,-0.17 -0.03,-0.08 -0.03,-0.09 -0.02,-0.08 -0.03,-0.09 -0.02,-0.09 -0.02,-0.09 -0.01,-0.1 -0.02,-0.09 -0.01,-0.1 -0.01,-0.05 0,-0.05 0,-0.05 -0.01,-0.06 0,-0.05 0,-0.06 c 0,-1.63 1.4,-2.96 3.31,-2.96 3.49,0 5.02,4.81 5.02,5.33 0,0.46 -0.45,0.46 -0.55,0.46 -0.49,0 -0.53,-0.21 -0.67,-0.59 -0.8,-2.79 -2.33,-4.22 -3.69,-4.22 -0.7,0 -0.88,0.45 -0.88,1.22 0,0.8 0.25,1.46 0.56,2.23 0.35,0.94 0.74,1.88 1.12,2.79 0.31,0.84 1.57,4.01 1.71,4.43 0.1,0.34 0.21,0.77 0.21,1.11 0,1.64 -1.4,2.97 -3.31,2.97 -3.46,0 -5.06,-4.74 -5.06,-5.34 0,-0.45 0.49,-0.45 0.59,-0.45 0.49,0 0.52,0.17 0.63,0.56 0.91,2.99 2.44,4.25 3.73,4.25 0.56,0 0.87,-0.28 0.87,-1.22 0,-0.8 -0.21,-1.32 -1.08,-3.48 z"
             style="fill:#000000;stroke-width:0" /><path
             id="path11805"
             d="m 601.4,418.45 -0.01,0.37 0,0.39 -0.01,0.39 -0.01,0.41 -0.04,0.84 -0.06,0.88 -0.09,0.92 -0.1,0.94 -0.14,0.98 -0.16,1 -0.2,1.02 -0.23,1.04 -0.27,1.05 -0.3,1.06 -0.35,1.06 -0.39,1.07 -0.22,0.53 -0.22,0.54 -0.24,0.53 -0.25,0.53 c -2.99,6.12 -7.27,9.36 -7.77,9.36 -0.3,0 -0.5,-0.2 -0.5,-0.5 0,-0.15 0,-0.25 0.94,-1.15 4.89,-4.92 7.73,-12.85 7.73,-23.26 0,-8.52 -1.85,-17.28 -8.02,-23.56 -0.65,-0.6 -0.65,-0.69 -0.65,-0.85 0,-0.29 0.2,-0.49 0.5,-0.49 0.5,0 4.98,3.38 7.92,9.71 2.54,5.48 3.14,11.01 3.14,15.19 z"
             style="fill:#000000;stroke-width:0" /></g>      </g>
    </g>
    <path
       style="fill:none;stroke:#000000;stroke-width:1.5;stroke-linecap:butt;stroke-linejoin:miter;stroke-miterlimit:4;stroke-opacity:1;stroke-dasharray:none;marker-start:url(#DotM);marker-end:url(#Arrow1Lend)"
       d="m 349.23952,500.12315 15.14054,68.23474"
       id="path11889"
       sodipodi:nodetypes="cc" />
    <rect
       ry="9.0913725"
       y="621.09827"
       x="389.19611"
       height="44.686043"
       width="408.77301"
       id="rect15262"
       style="opacity:0.8;fill:#ffffff;fill-opacity:1;fill-rule:nonzero;stroke:#000000;stroke-width:1.11366534;stroke-linecap:round;stroke-linejoin:round;stroke-miterlimit:4;stroke-opacity:1;stroke-dasharray:none;stroke-dashoffset:0"
       rx="9.0913725" />
    <path
       style="fill:none;stroke:#000000;stroke-width:1.5;stroke-linecap:butt;stroke-linejoin:miter;stroke-opacity:1;marker-end:none;stroke-miterlimit:4;stroke-dasharray:1.5,6;stroke-dashoffset:0"
       d="M 381.33259,645.77578 409.61686,345.2554"
       id="path12110" />
    <rect
       rx="9.0913725"
       style="opacity:0.8;fill:#ffffff;fill-opacity:1;fill-rule:nonzero;stroke:#000000;stroke-width:1.09351325;stroke-linecap:round;stroke-linejoin:round;stroke-miterlimit:4;stroke-opacity:1;stroke-dasharray:none;stroke-dashoffset:0"
       id="rect15260"
       width="478.59616"
       height="44.642998"
       x="413.25208"
       y="324.46667"
       ry="9.0913725" />
    <g
       id="g15900"
       transform="matrix(0.7,0,0,0.7,206.85869,107.07814)">
      <g
         word-spacing="normal"
         letter-spacing="normal"
         font-size-adjust="none"
         font-stretch="normal"
         font-weight="normal"
         font-variant="normal"
         font-style="normal"
         fill-rule="even-odd"
         stroke-miterlimit="10.433"
         xml:space="preserve"
         transform="matrix(1.0629921,0,0,-1.0629921,-186.02362,789.27165)"
         id="g15902"
         style="font-style:normal;font-variant:normal;font-weight:normal;font-stretch:normal;letter-spacing:normal;word-spacing:normal;text-anchor:start;fill:none;stroke:#000000;stroke-linecap:butt;stroke-linejoin:miter;stroke-miterlimit:10.43299961;stroke-opacity:1;stroke-dasharray:none;stroke-dashoffset:0"><path
           id="path15904"
           d="m 471.09,421.74 0.2,1.3 3.39,13.55 c 0.45,1.74 0.55,1.89 2.69,1.89 h 4.78 c 4.14,0 6.78,-1.35 6.78,-4.78 0,-1.95 -1,-6.23 -2.94,-8.02 -2.49,-2.25 -5.48,-2.64 -7.67,-2.64 h -7.03 l -0.2,-1.3 h 8.47 c 7.08,0 14,5.18 14,10.76 0,3.84 -3.29,7.52 -9.81,7.52 h -16.14 c -0.95,0 -1.5,0 -1.5,-0.95 0,-0.59 0.45,-0.59 1.45,-0.59 0.64,0 1.54,-0.05 2.14,-0.1 0.8,-0.1 1.09,-0.25 1.09,-0.8 0,-0.2 -0.04,-0.35 -0.2,-0.94 l -6.67,-26.75 c -0.5,-1.95 -0.6,-2.35 -4.53,-2.35 -0.85,0 -1.4,0 -1.4,-0.94 0,-0.6 0.6,-0.6 0.75,-0.6 h 12.75 c 0.35,0 1,0 1,1 0,0.54 -0.45,0.54 -1.4,0.54 -1.84,0 -3.23,0 -3.23,0.9 0,0.3 0.1,0.55 0.14,0.85 z"
           style="fill:#000000;stroke-width:0" /><path
           id="path15906"
           d="m 503.03,412.11 -0.09,-0.02 -0.08,-0.03 -0.08,-0.02 -0.08,-0.03 -0.07,-0.03 -0.07,-0.04 -0.08,-0.04 -0.06,-0.04 -0.07,-0.04 -0.06,-0.04 -0.07,-0.05 -0.05,-0.05 -0.06,-0.05 -0.06,-0.05 -0.05,-0.05 -0.05,-0.06 -0.04,-0.05 -0.04,-0.06 -0.05,-0.06 -0.03,-0.06 -0.04,-0.06 -0.03,-0.06 -0.03,-0.06 -0.03,-0.07 -0.02,-0.06 -0.02,-0.07 -0.02,-0.06 -0.01,-0.07 -0.01,-0.06 -0.01,-0.07 -0.01,-0.06 0,-0.07 c 0,-0.8 0.7,-1.11 1.15,-1.11 0.35,0 1.68,0.21 1.68,1.98 0,2.27 -2.51,3.04 -4.64,3.04 -5.44,0 -6.41,-4.01 -6.41,-5.09 0,-1.29 0.73,-2.13 1.21,-2.55 0.91,-0.7 1.54,-0.84 3.95,-1.26 0.73,-0.13 2.96,-0.55 2.96,-2.3 0,-0.59 -0.39,-1.91 -1.85,-2.79 -1.36,-0.76 -3.07,-0.76 -3.49,-0.76 -1.39,0 -3.38,0.31 -4.18,1.46 1.15,0.14 1.92,1.01 1.92,1.99 0,0.87 -0.63,1.29 -1.36,1.29 -1.01,0 -2.02,-0.8 -2.02,-2.33 0,-2.1 2.23,-3.39 5.61,-3.39 6.41,0 7.6,4.39 7.6,5.76 0,3.2 -3.52,3.83 -4.81,4.07 -0.31,0.07 -1.18,0.22 -1.4,0.28 -1.28,0.25 -1.91,0.98 -1.91,1.75 0,0.8 0.63,1.74 1.39,2.23 0.94,0.59 2.16,0.66 2.75,0.66 0.74,0 2.55,-0.1 3.32,-1.29 z"
           style="fill:#000000;stroke-width:0" /><path
           id="path15908"
           d="m 525.49,394.04 0,0.03 0,0.03 -0.01,0.01 0,0.02 0,0.01 -0.01,0.02 0,0.02 -0.01,0.01 -0.01,0.02 -0.01,0.02 -0.01,0.03 -0.01,0.02 -0.02,0.02 -0.02,0.03 -0.02,0.03 -0.02,0.03 -0.03,0.03 -0.03,0.04 -0.01,0.02 -0.02,0.02 -0.02,0.02 -0.02,0.02 -0.02,0.02 -0.02,0.03 -0.02,0.02 -0.02,0.02 -0.02,0.03 -0.03,0.02 -0.02,0.03 -0.03,0.03 -0.02,0.03 -0.03,0.03 -0.03,0.03 -0.03,0.03 -0.03,0.03 -0.03,0.03 -0.04,0.04 -0.03,0.03 -0.04,0.04 -0.03,0.03 -0.04,0.04 -0.04,0.04 c -6.23,6.28 -7.82,15.69 -7.82,23.31 0,8.67 1.9,17.34 8.02,23.57 0.65,0.59 0.65,0.69 0.65,0.84 0,0.35 -0.2,0.5 -0.5,0.5 -0.5,0 -4.98,-3.39 -7.92,-9.72 -2.54,-5.47 -3.14,-11 -3.14,-15.19 0,-3.88 0.55,-9.91 3.29,-15.54 2.99,-6.12 7.27,-9.36 7.77,-9.36 0.3,0 0.5,0.15 0.5,0.49 z"
           style="fill:#000000;stroke-width:0" /><path
           id="path15910"
           d="m 544.49,394.04 0,0.03 0,0.03 -0.01,0.01 0,0.02 0,0.01 -0.01,0.02 0,0.02 -0.01,0.01 -0.01,0.02 -0.01,0.02 -0.01,0.03 -0.01,0.02 -0.02,0.02 -0.02,0.03 -0.02,0.03 -0.02,0.03 -0.03,0.03 -0.03,0.04 -0.01,0.02 -0.02,0.02 -0.02,0.02 -0.02,0.02 -0.02,0.02 -0.02,0.03 -0.02,0.02 -0.02,0.02 -0.02,0.03 -0.03,0.02 -0.02,0.03 -0.03,0.03 -0.02,0.03 -0.03,0.03 -0.03,0.03 -0.03,0.03 -0.03,0.03 -0.03,0.03 -0.04,0.04 -0.03,0.03 -0.04,0.04 -0.03,0.03 -0.04,0.04 -0.04,0.04 c -6.23,6.28 -7.82,15.69 -7.82,23.31 0,8.67 1.9,17.34 8.02,23.57 0.65,0.59 0.65,0.69 0.65,0.84 0,0.35 -0.2,0.5 -0.5,0.5 -0.5,0 -4.98,-3.39 -7.92,-9.72 -2.54,-5.47 -3.14,-11 -3.14,-15.19 0,-3.88 0.55,-9.91 3.29,-15.54 2.99,-6.12 7.27,-9.36 7.77,-9.36 0.3,0 0.5,0.15 0.5,0.49 z"
           style="fill:#000000;stroke-width:0" /><path
           id="path15912"
           d="m 561.65,437.88 0,0.05 -0.01,0.06 0,0.05 0,0.05 0,0.05 0,0.05 0,0.04 0,0.05 0,0.04 0,0.04 0,0.04 0,0.04 0,0.04 -0.01,0.04 0,0.03 0,0.04 -0.01,0.03 0,0.03 -0.01,0.06 -0.01,0.05 -0.02,0.05 -0.01,0.05 -0.02,0.04 -0.02,0.04 -0.03,0.04 -0.03,0.03 -0.03,0.02 -0.03,0.03 -0.04,0.02 -0.05,0.02 -0.02,0.01 -0.03,0.01 -0.02,0 -0.03,0.01 -0.03,0.01 -0.03,0 -0.03,0.01 -0.03,0 -0.03,0.01 -0.04,0 -0.04,0 -0.03,0 -0.04,0.01 -0.04,0 -0.04,0 -0.05,0 -0.04,0 -0.05,0 -0.05,0.01 -0.05,0 -0.05,0 -0.05,0 c -3.09,-3.19 -7.47,-3.19 -9.07,-3.19 v -1.55 c 1,0 3.94,0 6.53,1.3 v -25.81 c 0,-1.79 -0.15,-2.39 -4.63,-2.39 h -1.6 V 406 h 16.14 v 1.54 h -1.59 c -4.49,0 -4.63,0.55 -4.63,2.39 z"
           style="fill:#000000;stroke-width:0" /><path
           id="path15914"
           d="m 604.38,417.46 h 13.89 c 0.7,0 1.64,0 1.64,0.99 0,1 -0.94,1 -1.64,1 h -13.89 v 13.95 c 0,0.69 0,1.64 -1,1.64 -1,0 -1,-0.95 -1,-1.64 v -13.95 h -13.95 c -0.7,0 -1.64,0 -1.64,-1 0,-0.99 0.94,-0.99 1.64,-0.99 h 13.95 v -13.95 c 0,-0.7 0,-1.64 1,-1.64 1,0 1,0.94 1,1.64 z"
           style="fill:#000000;stroke-width:0" /><path
           id="path15916"
           d="m 661.64,434.34 -0.01,0.35 -0.02,0.35 -0.04,0.34 -0.05,0.33 -0.07,0.33 -0.09,0.32 -0.1,0.32 -0.11,0.31 -0.13,0.3 -0.14,0.29 -0.15,0.29 -0.17,0.27 -0.18,0.27 -0.19,0.26 -0.21,0.25 -0.21,0.24 -0.23,0.22 -0.24,0.22 -0.25,0.2 -0.27,0.19 -0.27,0.18 -0.28,0.17 -0.3,0.15 -0.3,0.14 -0.32,0.12 -0.32,0.11 -0.33,0.09 -0.34,0.08 -0.35,0.06 -0.36,0.04 -0.37,0.03 -0.37,0.01 c -2.89,0 -4.29,-0.8 -6.03,-2.1 -2.74,-1.99 -5.48,-6.82 -6.43,-10.61 l -7.91,-31.62 c -0.05,-0.2 0.2,-0.5 0.59,-0.5 0.4,0 0.55,0.1 0.6,0.25 l 3.49,13.74 c 0.94,-2.99 3.14,-4.83 6.77,-4.83 l -0.15,1.1 c -3.78,0 -5.68,2.89 -5.68,6.42 0,0.5 0,1.25 0.25,2.19 l 3.19,12.61 c 1.1,4.28 4.68,12.2 10.66,12.2 2.89,0 4.63,-1.54 4.63,-4.53 h 0 c 0,-3.49 -1.89,-7.08 -4.48,-8.62 -1.35,0.5 -2.34,0.6 -3.84,0.6 -1.04,0 -3.83,0.05 -3.83,-1.59 -0.05,-1.4 2.54,-1.25 3.44,-1.25 l 0.14,1.1 c -0.69,0 -1.69,-0.05 -2.19,0.2 0.1,0.49 1.89,0.39 2.44,0.39 1.05,0 1.5,0 2.15,-0.25 h 0 c -0.65,-0.25 -1.2,-0.34 -2.4,-0.34 l -0.14,-1.1 c 1.84,0 2.59,0.05 4.08,0.65 1.89,-1.8 2.14,-3.34 2.19,-5.63 0.1,-2.89 -1.09,-6.63 -2.49,-8.57 -1.94,-2.69 -5.28,-4.48 -8.12,-4.48 l 0.15,-1.1 c 3.64,0 7.37,1.75 9.62,3.94 2.39,2.29 3.98,5.48 3.98,9.16 0,3.59 -1.84,6.18 -3.64,7.42 2.89,1.65 5.73,4.74 5.73,8.32 z"
           style="fill:#000000;stroke-width:0" /><path
           id="path15918"
           d="m 689.94,431.88 0.05,0 0.06,0 0.05,0 0.06,0 0.12,0 0.06,0.01 0.05,0 0.06,0.01 0.06,0 0.06,0.01 0.06,0.01 0.05,0.02 0.06,0.01 0.06,0.02 0.05,0.01 0.05,0.02 0.05,0.03 0.05,0.02 0.04,0.03 0.04,0.04 0.05,0.03 0.03,0.04 0.02,0.02 0.02,0.02 0.01,0.03 0.02,0.02 0.01,0.02 0.02,0.03 0.01,0.03 0.01,0.02 0.01,0.03 0.01,0.03 0.01,0.03 0,0.03 0.01,0.04 0.01,0.03 0,0.04 0,0.03 0.01,0.04 0,0.04 c 0,0.87 -0.81,0.87 -1.4,0.87 h -20.78 c -0.56,0 -1.39,0 -1.39,-0.84 0,-0.87 0.8,-0.87 1.39,-0.87 z"
           style="fill:#000000;stroke-width:0" /><path
           id="path15920"
           d="m 706.68,446.18 0,0.04 0,0.04 0,0.04 0,0.04 0,0.04 0,0.04 0,0.03 0,0.04 -0.01,0.03 0,0.03 0,0.04 0,0.03 -0.01,0.02 0,0.03 0,0.03 -0.01,0.03 0,0.02 0,0.02 -0.02,0.05 -0.01,0.04 -0.01,0.04 -0.02,0.03 -0.02,0.03 -0.02,0.03 -0.03,0.03 -0.02,0.02 -0.03,0.02 -0.04,0.02 -0.03,0.01 -0.04,0.01 -0.05,0.02 -0.05,0 -0.02,0.01 -0.03,0 -0.03,0.01 -0.02,0 -0.03,0 -0.03,0 -0.04,0 -0.03,0.01 -0.03,0 -0.04,0 -0.03,0 -0.04,0 -0.04,0 -0.04,0 -0.04,0 -0.04,0 -0.05,0 -0.04,0 c -2.24,-2.19 -5.41,-2.23 -6.84,-2.23 v -1.25 c 0.84,0 3.14,0 5.05,0.97 v -17.78 c 0,-1.15 0,-1.61 -3.48,-1.61 h -1.33 V 424 h 12.45 v 1.25 h -1.32 c -3.49,0 -3.49,0.46 -3.49,1.61 z"
           style="fill:#000000;stroke-width:0" /><path
           id="path15922"
           d="m 732.4,418.45 -0.01,0.37 0,0.39 -0.01,0.39 -0.01,0.41 -0.04,0.84 -0.06,0.88 -0.09,0.92 -0.1,0.94 -0.14,0.98 -0.16,1 -0.2,1.02 -0.23,1.04 -0.27,1.05 -0.3,1.06 -0.35,1.06 -0.39,1.07 -0.22,0.53 -0.22,0.54 -0.24,0.53 -0.25,0.53 c -2.99,6.12 -7.27,9.36 -7.77,9.36 -0.3,0 -0.5,-0.2 -0.5,-0.5 0,-0.15 0,-0.25 0.94,-1.15 4.89,-4.92 7.73,-12.85 7.73,-23.26 0,-8.52 -1.85,-17.28 -8.02,-23.56 -0.65,-0.6 -0.65,-0.69 -0.65,-0.85 0,-0.29 0.2,-0.49 0.5,-0.49 0.5,0 4.98,3.38 7.92,9.71 2.54,5.48 3.14,11.01 3.14,15.19 z"
           style="fill:#000000;stroke-width:0" /><path
           id="path15924"
           d="m 752.09,421.74 0.2,1.3 3.39,13.55 c 0.45,1.74 0.55,1.89 2.69,1.89 h 4.78 c 4.13,0 6.78,-1.35 6.78,-4.78 0,-1.95 -1,-6.23 -2.94,-8.02 -2.49,-2.25 -5.48,-2.64 -7.67,-2.64 h -7.03 l -0.2,-1.3 h 8.47 c 7.08,0 14,5.18 14,10.76 0,3.84 -3.29,7.52 -9.81,7.52 H 748.6 c -0.94,0 -1.49,0 -1.49,-0.95 0,-0.59 0.45,-0.59 1.45,-0.59 0.64,0 1.54,-0.05 2.14,-0.1 0.8,-0.1 1.09,-0.25 1.09,-0.8 0,-0.2 -0.04,-0.35 -0.2,-0.94 l -6.67,-26.75 c -0.5,-1.95 -0.6,-2.35 -4.53,-2.35 -0.85,0 -1.4,0 -1.4,-0.94 0,-0.6 0.6,-0.6 0.75,-0.6 h 12.75 c 0.35,0 1,0 1,1 0,0.54 -0.45,0.54 -1.4,0.54 -1.84,0 -3.24,0 -3.24,0.9 0,0.3 0.11,0.55 0.15,0.85 z"
           style="fill:#000000;stroke-width:0" /><path
           id="path15926"
           d="m 784.13,401.82 -0.01,-0.06 -0.02,-0.07 -0.02,-0.07 -0.02,-0.08 -0.02,-0.07 -0.02,-0.08 -0.04,-0.16 -0.04,-0.16 -0.04,-0.16 -0.04,-0.16 -0.02,-0.07 -0.02,-0.08 -0.02,-0.08 -0.01,-0.07 -0.02,-0.07 -0.02,-0.07 -0.01,-0.07 -0.02,-0.06 -0.01,-0.06 -0.01,-0.06 -0.01,-0.05 -0.02,-0.05 0,-0.04 -0.01,-0.04 -0.01,-0.04 0,-0.03 0,-0.02 0,-0.02 c 0,-0.77 0.62,-1.12 1.18,-1.12 0.63,0 1.19,0.46 1.36,0.77 0.17,0.31 0.46,1.43 0.63,2.16 0.17,0.66 0.56,2.27 0.77,3.14 0.2,0.76 0.41,1.53 0.59,2.33 0.38,1.5 0.38,1.57 1.08,2.65 1.12,1.71 2.86,3.7 5.58,3.7 1.95,0 2.06,-1.6 2.06,-2.44 0,-2.09 -1.5,-5.96 -2.06,-7.43 -0.39,-0.97 -0.52,-1.29 -0.52,-1.88 0,-1.85 1.53,-3 3.31,-3 3.48,0 5.02,4.81 5.02,5.33 0,0.46 -0.45,0.46 -0.56,0.46 -0.49,0 -0.52,-0.21 -0.66,-0.59 -0.81,-2.79 -2.3,-4.22 -3.7,-4.22 -0.73,0 -0.87,0.49 -0.87,1.22 0,0.8 0.17,1.25 0.8,2.82 0.42,1.08 1.85,4.78 1.85,6.73 0,0.56 0,2.03 -1.29,3.04 -0.59,0.45 -1.6,0.94 -3.24,0.94 -3.14,0 -5.06,-2.06 -6.18,-3.52 -0.27,2.96 -2.75,3.52 -4.53,3.52 -2.89,0 -4.84,-1.78 -5.89,-3.18 -0.24,2.41 -2.3,3.18 -3.73,3.18 -1.5,0 -2.3,-1.08 -2.75,-1.88 -0.77,-1.3 -1.26,-3.29 -1.26,-3.46 0,-0.45 0.49,-0.45 0.59,-0.45 0.49,0 0.52,0.11 0.77,1.05 0.52,2.05 1.18,3.76 2.54,3.76 0.91,0 1.16,-0.77 1.16,-1.71 0,-0.66 -0.32,-1.95 -0.56,-2.89 -0.24,-0.94 -0.6,-2.37 -0.77,-3.14 l -1.12,-4.46 c -0.14,-0.46 -0.34,-1.33 -0.34,-1.43 0,-0.77 0.62,-1.12 1.18,-1.12 0.63,0 1.19,0.46 1.36,0.77 0.17,0.31 0.45,1.43 0.63,2.16 0.17,0.66 0.56,2.27 0.76,3.14 0.21,0.76 0.43,1.53 0.6,2.33 0.38,1.43 0.45,1.71 1.46,3.14 0.98,1.4 2.62,3.21 5.23,3.21 2.03,0 2.06,-1.78 2.06,-2.44 0,-0.87 -0.1,-1.32 -0.59,-3.28 z"
           style="fill:#000000;stroke-width:0" /><path
           id="path15928"
           d="m 823.49,394.04 0,0.03 0,0.03 -0.01,0.01 0,0.02 0,0.01 -0.01,0.02 0,0.02 -0.01,0.01 -0.01,0.02 -0.01,0.02 -0.01,0.03 -0.01,0.02 -0.02,0.02 -0.02,0.03 -0.02,0.03 -0.02,0.03 -0.03,0.03 -0.03,0.04 -0.01,0.02 -0.02,0.02 -0.02,0.02 -0.02,0.02 -0.02,0.02 -0.02,0.03 -0.02,0.02 -0.02,0.02 -0.02,0.03 -0.03,0.02 -0.02,0.03 -0.03,0.03 -0.02,0.03 -0.03,0.03 -0.03,0.03 -0.03,0.03 -0.03,0.03 -0.03,0.03 -0.04,0.04 -0.03,0.03 -0.04,0.04 -0.03,0.03 -0.04,0.04 -0.04,0.04 c -6.23,6.28 -7.82,15.69 -7.82,23.31 0,8.67 1.9,17.34 8.02,23.57 0.65,0.59 0.65,0.69 0.65,0.84 0,0.35 -0.2,0.5 -0.5,0.5 -0.5,0 -4.98,-3.39 -7.92,-9.72 -2.54,-5.47 -3.14,-11 -3.14,-15.19 0,-3.88 0.55,-9.91 3.29,-15.54 2.99,-6.12 7.27,-9.36 7.77,-9.36 0.3,0 0.5,0.15 0.5,0.49 z"
           style="fill:#000000;stroke-width:0" /><path
           id="path15930"
           d="m 827.65,397.38 -0.01,-0.02 -0.01,-0.03 0,-0.03 -0.01,-0.02 -0.01,-0.03 0,-0.02 -0.01,-0.03 0,-0.02 -0.01,-0.02 0,-0.02 -0.01,-0.02 0,-0.02 -0.01,-0.02 0,-0.02 -0.01,-0.04 -0.01,-0.03 -0.01,-0.04 0,-0.03 -0.01,-0.03 0,-0.02 -0.01,-0.03 0,-0.02 -0.01,-0.02 0,-0.02 0,-0.02 0,-0.02 -0.01,-0.02 0,-0.01 0,-0.02 0,-0.01 0,-0.01 0,-0.01 0,-0.02 0,-0.02 0,-0.02 0,-0.01 c 0,-0.75 0.54,-1.35 1.39,-1.35 1.04,0 1.64,0.9 1.74,1.05 0.25,0.44 1.85,7.12 3.19,12.5 1,-1.99 2.59,-3.34 4.93,-3.34 l -0.05,1.1 c -3.48,0 -4.28,3.98 -4.28,4.43 0,0.2 0.25,1.2 0.4,1.84 1.39,5.58 1.89,7.38 2.98,9.37 2.15,3.63 4.64,4.73 6.18,4.73 1.84,0 3.44,-1.44 3.44,-4.88 0,-2.74 -1.44,-8.32 -2.79,-10.76 -1.65,-3.14 -4.04,-4.73 -5.93,-4.73 h 0 l 0.05,-1.1 c 5.83,0 12.26,7.03 12.26,14.45 0,5.28 -3.29,8.12 -6.93,8.12 -4.83,0 -10.06,-4.98 -11.55,-11.06 z"
           style="fill:#000000;stroke-width:0" /><path
           id="path15932"
           d="m 863.3,420.79 0,0.06 -0.01,0.05 0,0.05 -0.01,0.06 -0.01,0.06 -0.02,0.05 -0.01,0.06 -0.02,0.06 -0.03,0.05 -0.02,0.06 -0.03,0.05 -0.03,0.06 -0.03,0.05 -0.03,0.05 -0.04,0.05 -0.04,0.05 -0.05,0.05 -0.04,0.05 -0.05,0.04 -0.06,0.05 -0.05,0.04 -0.06,0.03 -0.06,0.04 -0.07,0.03 -0.07,0.03 -0.07,0.02 -0.07,0.02 -0.08,0.02 -0.08,0.02 -0.08,0.01 -0.09,0 -0.09,0.01 c -0.94,0 -1.95,-0.91 -1.95,-1.92 0,-0.59 0.45,-1.32 1.39,-1.32 1.01,0 1.96,0.97 1.96,1.91 z"
           style="fill:#000000;stroke-width:0" /><path
           id="path15934"
           d="m 856.18,403.08 -0.05,-0.17 -0.05,-0.17 -0.03,-0.08 -0.03,-0.09 -0.02,-0.08 -0.03,-0.09 -0.02,-0.09 -0.02,-0.09 -0.01,-0.1 -0.02,-0.09 -0.01,-0.1 -0.01,-0.05 0,-0.05 0,-0.05 -0.01,-0.06 0,-0.05 0,-0.06 c 0,-1.63 1.4,-2.96 3.31,-2.96 3.49,0 5.02,4.81 5.02,5.33 0,0.46 -0.45,0.46 -0.55,0.46 -0.49,0 -0.53,-0.21 -0.67,-0.59 -0.8,-2.79 -2.33,-4.22 -3.69,-4.22 -0.7,0 -0.88,0.45 -0.88,1.22 0,0.8 0.25,1.46 0.56,2.23 0.35,0.94 0.74,1.88 1.12,2.79 0.31,0.84 1.57,4.01 1.71,4.43 0.1,0.34 0.21,0.77 0.21,1.11 0,1.64 -1.4,2.97 -3.31,2.97 -3.46,0 -5.06,-4.74 -5.06,-5.34 0,-0.45 0.49,-0.45 0.59,-0.45 0.49,0 0.52,0.17 0.63,0.56 0.91,2.99 2.44,4.25 3.73,4.25 0.56,0 0.87,-0.28 0.87,-1.22 0,-0.8 -0.21,-1.32 -1.08,-3.48 z"
           style="fill:#000000;stroke-width:0" /><path
           id="path15936"
           d="m 883.4,418.45 -0.01,0.37 0,0.39 -0.01,0.39 -0.01,0.41 -0.04,0.84 -0.06,0.88 -0.09,0.92 -0.1,0.94 -0.14,0.98 -0.16,1 -0.2,1.02 -0.23,1.04 -0.27,1.05 -0.3,1.06 -0.35,1.06 -0.39,1.07 -0.22,0.53 -0.22,0.54 -0.24,0.53 -0.25,0.53 c -2.99,6.12 -7.27,9.36 -7.77,9.36 -0.3,0 -0.5,-0.2 -0.5,-0.5 0,-0.15 0,-0.25 0.94,-1.15 4.89,-4.92 7.73,-12.85 7.73,-23.26 0,-8.52 -1.85,-17.28 -8.02,-23.56 -0.65,-0.6 -0.65,-0.69 -0.65,-0.85 0,-0.29 0.2,-0.49 0.5,-0.49 0.5,0 4.98,3.38 7.92,9.71 2.54,5.48 3.14,11.01 3.14,15.19 z"
           style="fill:#000000;stroke-width:0" /><path
           id="path15938"
           d="m 931.83,417.46 0.16,0 0.16,0 0.15,0 0.08,0.01 0.08,0 0.07,0.01 0.08,0.01 0.07,0.01 0.07,0.01 0.07,0.01 0.07,0.02 0.06,0.02 0.07,0.02 0.06,0.03 0.05,0.02 0.06,0.04 0.05,0.03 0.05,0.04 0.05,0.04 0.04,0.05 0.04,0.05 0.01,0.02 0.02,0.03 0.02,0.03 0.01,0.03 0.02,0.03 0.01,0.04 0.01,0.03 0.01,0.03 0.01,0.04 0.01,0.04 0,0.04 0.01,0.04 0,0.04 0.01,0.04 0,0.05 0,0.04 c 0,1 -0.9,1 -1.74,1 h -26.95 c -0.85,0 -1.75,0 -1.75,-1 0,-0.99 0.9,-0.99 1.75,-0.99 z"
           style="fill:#000000;stroke-width:0" /><path
           id="path15940"
           d="m 977.64,434.34 -0.01,0.35 -0.02,0.35 -0.04,0.34 -0.05,0.33 -0.07,0.33 -0.09,0.32 -0.1,0.32 -0.11,0.31 -0.13,0.3 -0.14,0.29 -0.15,0.29 -0.17,0.27 -0.18,0.27 -0.19,0.26 -0.21,0.25 -0.21,0.24 -0.23,0.22 -0.24,0.22 -0.25,0.2 -0.27,0.19 -0.27,0.18 -0.28,0.17 -0.3,0.15 -0.3,0.14 -0.32,0.12 -0.32,0.11 -0.33,0.09 -0.34,0.08 -0.35,0.06 -0.36,0.04 -0.37,0.03 -0.37,0.01 c -2.89,0 -4.29,-0.8 -6.03,-2.1 -2.74,-1.99 -5.48,-6.82 -6.43,-10.61 l -7.91,-31.62 c -0.05,-0.2 0.2,-0.5 0.59,-0.5 0.4,0 0.55,0.1 0.6,0.25 l 3.49,13.74 c 0.94,-2.99 3.14,-4.83 6.77,-4.83 l -0.15,1.1 c -3.78,0 -5.68,2.89 -5.68,6.42 0,0.5 0,1.25 0.25,2.19 l 3.19,12.61 c 1.1,4.28 4.68,12.2 10.66,12.2 2.89,0 4.63,-1.54 4.63,-4.53 h 0 c 0,-3.49 -1.89,-7.08 -4.48,-8.62 -1.35,0.5 -2.34,0.6 -3.84,0.6 -1.04,0 -3.83,0.05 -3.83,-1.59 -0.05,-1.4 2.54,-1.25 3.44,-1.25 l 0.14,1.1 c -0.69,0 -1.69,-0.05 -2.19,0.2 0.1,0.49 1.89,0.39 2.44,0.39 1.05,0 1.5,0 2.15,-0.25 h 0 c -0.65,-0.25 -1.2,-0.34 -2.4,-0.34 l -0.14,-1.1 c 1.84,0 2.59,0.05 4.08,0.65 1.89,-1.8 2.14,-3.34 2.19,-5.63 0.1,-2.89 -1.09,-6.63 -2.49,-8.57 -1.94,-2.69 -5.28,-4.48 -8.12,-4.48 l 0.15,-1.1 c 3.64,0 7.37,1.75 9.62,3.94 2.39,2.29 3.98,5.48 3.98,9.16 0,3.59 -1.84,6.18 -3.64,7.42 2.89,1.65 5.73,4.74 5.73,8.32 z"
           style="fill:#000000;stroke-width:0" /><path
           id="path15942"
           d="m 1005.9,431.88 0.1,0 0,0 0.1,0 0.1,0 0.1,0 0,0.01 0.1,0 0.1,0.01 0,0 0.1,0.01 0,0.01 0.1,0.02 0,0.01 0.1,0.02 0.1,0.01 0,0.02 0.1,0.03 0,0.02 0,0.03 0.1,0.04 0,0.03 0.1,0.04 0,0.02 0,0.02 0,0.03 0,0.02 0,0.02 0.1,0.03 0,0.03 0,0.02 0,0.03 0,0.03 0,0.03 0,0.03 0,0.04 0,0.03 0,0.04 0,0.03 0,0.04 0,0.04 c 0,0.87 -0.8,0.87 -1.4,0.87 h -20.74 c -0.56,0 -1.39,0 -1.39,-0.84 0,-0.87 0.8,-0.87 1.39,-0.87 z"
           style="fill:#000000;stroke-width:0" /><path
           id="path15944"
           d="m 1022.7,446.18 0,0.04 0,0.04 0,0.04 0,0.04 0,0.04 0,0.04 0,0.03 0,0.04 0,0.03 0,0.03 0,0.04 0,0.03 0,0.02 0,0.03 0,0.03 0,0.03 -0.1,0.02 0,0.02 0,0.05 0,0.04 0,0.04 0,0.03 0,0.03 -0.1,0.03 0,0.03 0,0.02 0,0.02 -0.1,0.02 0,0.01 0,0.01 -0.1,0.02 0,0 -0.1,0.01 0,0 0,0.01 0,0 -0.1,0 0,0 0,0 -0.1,0.01 0,0 0,0 -0.1,0 0,0 0,0 -0.1,0 0,0 -0.1,0 0,0 -0.1,0 c -2.2,-2.19 -5.4,-2.23 -6.8,-2.23 v -1.25 c 0.8,0 3.1,0 5.1,0.97 v -17.78 c 0,-1.15 0,-1.61 -3.5,-1.61 H 1015 V 424 h 12.5 v 1.25 h -1.3 c -3.5,0 -3.5,0.46 -3.5,1.61 z"
           style="fill:#000000;stroke-width:0" /><path
           id="path15946"
           d="m 1034.6,397.38 0,-0.02 0,-0.03 0,-0.03 0,-0.02 0,-0.03 0,-0.02 0,-0.03 0,-0.02 0,-0.02 0,-0.02 0,-0.02 0,-0.02 0,-0.02 0,-0.02 0,-0.04 0,-0.03 -0.1,-0.04 0,-0.03 0,-0.03 0,-0.02 0,-0.03 0,-0.02 0,-0.02 0,-0.02 0,-0.02 0,-0.02 0,-0.02 0,-0.01 0,-0.02 0,-0.01 0,-0.01 0,-0.01 0,-0.02 0,-0.02 0,-0.02 0,-0.01 c 0,-0.75 0.5,-1.35 1.4,-1.35 1,0 1.6,0.9 1.7,1.05 0.3,0.44 1.9,7.12 3.2,12.5 1,-1.99 2.6,-3.34 5,-3.34 l -0.1,1.1 c -3.5,0 -4.3,3.98 -4.3,4.43 0,0.2 0.3,1.2 0.4,1.84 1.4,5.58 1.9,7.38 3,9.37 2.1,3.63 4.6,4.73 6.2,4.73 1.8,0 3.4,-1.44 3.4,-4.88 0,-2.74 -1.4,-8.32 -2.8,-10.76 -1.6,-3.14 -4,-4.73 -5.9,-4.73 h 0 l 0.1,-1.1 c 5.8,0 12.2,7.03 12.2,14.45 0,5.28 -3.3,8.12 -6.9,8.12 -4.9,0 -10.1,-4.98 -11.6,-11.06 z"
           style="fill:#000000;stroke-width:0" /><path
           id="path15948"
           d="m 1070.3,420.79 0,0.06 0,0.05 0,0.05 0,0.06 0,0.06 0,0.05 -0.1,0.06 0,0.06 0,0.05 0,0.06 -0.1,0.05 0,0.06 0,0.05 -0.1,0.05 0,0.05 0,0.05 -0.1,0.05 0,0.05 -0.1,0.04 0,0.05 -0.1,0.04 0,0.03 -0.1,0.04 -0.1,0.03 0,0.03 -0.1,0.02 -0.1,0.02 -0.1,0.02 0,0.02 -0.1,0.01 -0.1,0 -0.1,0.01 c -0.9,0 -2,-0.91 -2,-1.92 0,-0.59 0.5,-1.32 1.4,-1.32 1.1,0 2,0.97 2,1.91 z"
           style="fill:#000000;stroke-width:0" /><path
           id="path15950"
           d="m 1063.2,403.08 -0.1,-0.17 0,-0.17 -0.1,-0.08 0,-0.09 0,-0.08 0,-0.09 0,-0.09 -0.1,-0.09 0,-0.1 0,-0.09 0,-0.1 0,-0.05 0,-0.05 0,-0.05 0,-0.06 0,-0.05 0,-0.06 c 0,-1.63 1.4,-2.96 3.3,-2.96 3.5,0 5,4.81 5,5.33 0,0.46 -0.4,0.46 -0.6,0.46 -0.4,0 -0.5,-0.21 -0.6,-0.59 -0.8,-2.79 -2.3,-4.22 -3.7,-4.22 -0.7,0 -0.9,0.45 -0.9,1.22 0,0.8 0.3,1.46 0.6,2.23 0.3,0.94 0.7,1.88 1.1,2.79 0.3,0.84 1.6,4.01 1.7,4.43 0.1,0.34 0.2,0.77 0.2,1.11 0,1.64 -1.4,2.97 -3.3,2.97 -3.5,0 -5.1,-4.74 -5.1,-5.34 0,-0.45 0.5,-0.45 0.6,-0.45 0.5,0 0.6,0.17 0.7,0.56 0.9,2.99 2.4,4.25 3.7,4.25 0.6,0 0.9,-0.28 0.9,-1.22 0,-0.8 -0.3,-1.32 -1.1,-3.48 z"
           style="fill:#000000;stroke-width:0" /><path
           id="path15952"
           d="m 1089.4,418.45 0,0.37 0,0.39 0,0.39 0,0.41 -0.1,0.84 0,0.88 -0.1,0.92 -0.1,0.94 -0.2,0.98 -0.1,1 -0.2,1.02 -0.2,1.04 -0.3,1.05 -0.3,1.06 -0.4,1.06 -0.4,1.07 -0.2,0.53 -0.2,0.54 -0.2,0.53 -0.3,0.53 c -3,6.12 -7.3,9.36 -7.8,9.36 -0.3,0 -0.5,-0.2 -0.5,-0.5 0,-0.15 0,-0.25 1,-1.15 4.9,-4.92 7.7,-12.85 7.7,-23.26 0,-8.52 -1.8,-17.28 -8,-23.56 -0.7,-0.6 -0.7,-0.69 -0.7,-0.85 0,-0.29 0.2,-0.49 0.5,-0.49 0.5,0 5,3.38 8,9.71 2.5,5.48 3.1,11.01 3.1,15.19 z"
           style="fill:#000000;stroke-width:0" /></g>    </g>
    <path
       sodipodi:nodetypes="cc"
       id="path12599"
       d="m 349.13398,499.93501 59.9778,-153.922"
       style="fill:none;stroke:#000000;stroke-width:1.5;stroke-linecap:butt;stroke-linejoin:miter;stroke-opacity:1;marker-end:url(#Arrow1Lend);stroke-miterlimit:4;stroke-dasharray:none" />
    <path
       style="fill:none;stroke:#000000;stroke-width:0.89999998;stroke-linecap:butt;stroke-linejoin:miter;stroke-opacity:1;marker-end:none;stroke-miterlimit:4;stroke-dasharray:0.89999998,3.5999999;stroke-dashoffset:0"
       d="M 348.91858,500.81034 402.8986,362.28054"
       id="path13897"
       sodipodi:nodetypes="cc" />
    <path
       sodipodi:nodetypes="cc"
       id="path13899"
       d="M 402.78067,361.63907 389.15418,300.22781"
       style="fill:none;stroke:#000000;stroke-width:1.5;stroke-linecap:butt;stroke-linejoin:miter;stroke-miterlimit:4;stroke-opacity:1;stroke-dasharray:1.5,6;marker-start:none;marker-end:none;stroke-dashoffset:0" />
    <path
       id="path13901"
       d="m 348.92857,499.86218 40,-198.92857"
       style="fill:none;stroke:#000000;stroke-width:1.5;stroke-linecap:butt;stroke-linejoin:miter;stroke-opacity:1;marker-end:url(#Arrow1Lend);stroke-miterlimit:4;stroke-dasharray:none" />
    <g
       id="g15266"
       transform="translate(2.5253814,3.5355339)">
      <rect
         rx="9.0913725"
         style="opacity:0.8;fill:#ffffff;fill-opacity:1;fill-rule:nonzero;stroke:#000000;stroke-width:0.84819889;stroke-linecap:round;stroke-linejoin:round;stroke-miterlimit:4;stroke-opacity:1;stroke-dasharray:none;stroke-dashoffset:0"
         id="rect15264"
         width="71.909653"
         height="33.33466"
         x="391.2496"
         y="278.35052"
         ry="9.0913725" />
      <g
         transform="matrix(0.7,0,0,0.7,185.37745,48.68909)"
         id="g15112">
        <g
           style="font-style:normal;font-variant:normal;font-weight:normal;font-stretch:normal;letter-spacing:normal;word-spacing:normal;text-anchor:start;fill:none;stroke:#000000;stroke-linecap:butt;stroke-linejoin:miter;stroke-miterlimit:10.43299961;stroke-opacity:1;stroke-dasharray:none;stroke-dashoffset:0"
           id="g15114"
           transform="matrix(1.0629921,0,0,-1.0629921,-186.02362,789.27165)"
           xml:space="preserve"
           stroke-miterlimit="10.433"
           fill-rule="even-odd"
           font-style="normal"
           font-variant="normal"
           font-weight="normal"
           font-stretch="normal"
           font-size-adjust="none"
           letter-spacing="normal"
           word-spacing="normal"><path
             style="fill:#000000;stroke-width:0"
             d="m 457.64,397.38 0,-0.02 -0.01,-0.03 0,-0.03 -0.01,-0.02 -0.01,-0.03 0,-0.02 -0.01,-0.03 0,-0.02 -0.01,-0.02 0,-0.02 -0.01,-0.02 0,-0.02 -0.01,-0.02 0,-0.02 -0.01,-0.04 -0.01,-0.03 -0.01,-0.04 0,-0.03 -0.01,-0.03 0,-0.02 -0.01,-0.03 0,-0.02 -0.01,-0.02 0,-0.02 0,-0.02 0,-0.02 -0.01,-0.02 0,-0.01 0,-0.02 0,-0.01 0,-0.01 0,-0.01 0,-0.02 0,-0.02 0,-0.02 0,-0.01 c 0,-0.75 0.54,-1.35 1.39,-1.35 1.04,0 1.64,0.9 1.74,1.05 0.25,0.44 1.85,7.12 3.19,12.5 1,-1.99 2.59,-3.34 4.93,-3.34 l -0.05,1.1 c -3.49,0 -4.28,3.98 -4.28,4.43 0,0.2 0.25,1.2 0.4,1.84 1.39,5.58 1.89,7.38 2.98,9.37 2.15,3.63 4.64,4.73 6.18,4.73 1.84,0 3.44,-1.44 3.44,-4.88 0,-2.74 -1.44,-8.32 -2.79,-10.76 -1.65,-3.14 -4.04,-4.73 -5.93,-4.73 h 0 l 0.05,-1.1 c 5.83,0 12.26,7.03 12.26,14.45 0,5.28 -3.29,8.12 -6.93,8.12 -4.83,0 -10.06,-4.98 -11.55,-11.06 z"
             id="path15116" /><path
             style="fill:#000000;stroke-width:0"
             d="m 492.3,420.79 0,0.06 -0.01,0.05 0,0.05 -0.01,0.06 -0.01,0.06 -0.02,0.05 -0.01,0.06 -0.02,0.06 -0.03,0.05 -0.02,0.06 -0.03,0.05 -0.03,0.06 -0.03,0.05 -0.03,0.05 -0.04,0.05 -0.04,0.05 -0.05,0.05 -0.04,0.05 -0.05,0.04 -0.06,0.05 -0.05,0.04 -0.06,0.03 -0.06,0.04 -0.07,0.03 -0.07,0.03 -0.07,0.02 -0.07,0.02 -0.08,0.02 -0.08,0.02 -0.08,0.01 -0.09,0 -0.09,0.01 c -0.94,0 -1.95,-0.91 -1.95,-1.92 0,-0.59 0.45,-1.32 1.39,-1.32 1.02,0 1.96,0.97 1.96,1.91 z"
             id="path15118" /><path
             style="fill:#000000;stroke-width:0"
             d="m 485.18,403.08 -0.05,-0.17 -0.05,-0.17 -0.03,-0.08 -0.03,-0.09 -0.02,-0.08 -0.03,-0.09 -0.02,-0.09 -0.02,-0.09 -0.01,-0.1 -0.02,-0.09 -0.01,-0.1 -0.01,-0.05 0,-0.05 0,-0.05 -0.01,-0.06 0,-0.05 0,-0.06 c 0,-1.63 1.4,-2.96 3.31,-2.96 3.49,0 5.02,4.81 5.02,5.33 0,0.46 -0.45,0.46 -0.56,0.46 -0.48,0 -0.52,-0.21 -0.66,-0.59 -0.8,-2.79 -2.33,-4.22 -3.69,-4.22 -0.7,0 -0.88,0.45 -0.88,1.22 0,0.8 0.25,1.46 0.56,2.23 0.35,0.94 0.74,1.88 1.12,2.79 0.31,0.84 1.57,4.01 1.71,4.43 0.1,0.34 0.21,0.77 0.21,1.11 0,1.64 -1.4,2.97 -3.31,2.97 -3.46,0 -5.06,-4.74 -5.06,-5.34 0,-0.45 0.49,-0.45 0.59,-0.45 0.49,0 0.52,0.17 0.63,0.56 0.91,2.99 2.44,4.25 3.73,4.25 0.56,0 0.87,-0.28 0.87,-1.22 0,-0.8 -0.21,-1.32 -1.08,-3.48 z"
             id="path15120" /><path
             style="fill:#000000;stroke-width:0"
             d="m 511.14,406.88 h 10.67 c 0.46,0 1.29,0 1.29,0.84 0,0.87 -0.8,0.87 -1.29,0.87 h -10.67 v 10.7 c 0,0.46 0,1.29 -0.83,1.29 -0.87,0 -0.87,-0.8 -0.87,-1.29 v -10.7 h -10.71 c -0.45,0 -1.29,0 -1.29,-0.84 0,-0.87 0.8,-0.87 1.29,-0.87 h 10.71 v -10.7 c 0,-0.46 0,-1.29 0.83,-1.29 0.87,0 0.87,0.8 0.87,1.29 z"
             id="path15122" /><path
             style="fill:#000000;stroke-width:0"
             d="m 537.68,421.18 0,0.04 0,0.04 0,0.04 0,0.04 0,0.04 0,0.04 0,0.03 0,0.04 -0.01,0.03 0,0.03 0,0.04 0,0.03 -0.01,0.02 0,0.03 0,0.03 -0.01,0.03 0,0.02 0,0.02 -0.02,0.05 -0.01,0.04 -0.01,0.04 -0.02,0.03 -0.02,0.03 -0.02,0.03 -0.03,0.03 -0.02,0.02 -0.03,0.02 -0.04,0.02 -0.03,0.01 -0.04,0.01 -0.05,0.02 -0.05,0 -0.02,0.01 -0.03,0 -0.03,0.01 -0.02,0 -0.03,0 -0.03,0 -0.04,0 -0.03,0.01 -0.03,0 -0.04,0 -0.03,0 -0.04,0 -0.04,0 -0.04,0 -0.04,0 -0.04,0 -0.05,0 -0.04,0 c -2.24,-2.19 -5.41,-2.23 -6.84,-2.23 v -1.25 c 0.84,0 3.14,0 5.05,0.97 v -17.78 c 0,-1.15 0,-1.61 -3.48,-1.61 h -1.33 V 399 h 12.45 v 1.25 h -1.32 c -3.49,0 -3.49,0.46 -3.49,1.61 z"
             id="path15124" /></g>      </g>
    </g>
    <g
       transform="matrix(0.7,0,0,0.7,181.16079,403.22614)"
       id="g15543">
      <g
         style="font-style:normal;font-variant:normal;font-weight:normal;font-stretch:normal;letter-spacing:normal;word-spacing:normal;text-anchor:start;fill:none;stroke:#000000;stroke-linecap:butt;stroke-linejoin:miter;stroke-miterlimit:10.43299961;stroke-opacity:1;stroke-dasharray:none;stroke-dashoffset:0"
         id="g15545"
         transform="matrix(1.0629921,0,0,-1.0629921,-186.02362,789.27165)"
         xml:space="preserve"
         stroke-miterlimit="10.433"
         fill-rule="even-odd"
         font-style="normal"
         font-variant="normal"
         font-weight="normal"
         font-stretch="normal"
         font-size-adjust="none"
         letter-spacing="normal"
         word-spacing="normal"><path
           style="fill:#000000;stroke-width:0"
           d="m 472.49,394.04 0,0.03 0,0.03 -0.01,0.01 0,0.02 0,0.01 -0.01,0.02 0,0.02 -0.01,0.01 -0.01,0.02 -0.01,0.02 -0.01,0.03 -0.01,0.02 -0.02,0.02 -0.02,0.03 -0.02,0.03 -0.02,0.03 -0.03,0.03 -0.03,0.04 -0.01,0.02 -0.02,0.02 -0.02,0.02 -0.02,0.02 -0.02,0.02 -0.02,0.03 -0.02,0.02 -0.02,0.02 -0.02,0.03 -0.03,0.02 -0.02,0.03 -0.03,0.03 -0.02,0.03 -0.03,0.03 -0.03,0.03 -0.03,0.03 -0.03,0.03 -0.03,0.03 -0.04,0.04 -0.03,0.03 -0.04,0.04 -0.03,0.03 -0.04,0.04 -0.04,0.04 c -6.23,6.28 -7.82,15.69 -7.82,23.31 0,8.67 1.89,17.34 8.02,23.57 0.65,0.59 0.65,0.69 0.65,0.84 0,0.35 -0.2,0.5 -0.5,0.5 -0.5,0 -4.98,-3.39 -7.92,-9.72 -2.54,-5.47 -3.14,-11 -3.14,-15.19 0,-3.88 0.55,-9.91 3.29,-15.54 2.99,-6.12 7.27,-9.36 7.77,-9.36 0.3,0 0.5,0.15 0.5,0.49 z"
           id="path15547" /><path
           style="fill:#000000;stroke-width:0"
           d="m 489.64,437.88 0,0.05 0,0.06 0,0.05 0,0.05 0,0.05 0,0.05 0,0.04 0,0.05 0,0.04 0,0.04 0,0.04 0,0.04 0,0.04 -0.01,0.04 0,0.03 0,0.04 -0.01,0.03 0,0.03 -0.01,0.06 -0.01,0.05 -0.02,0.05 -0.01,0.05 -0.02,0.04 -0.02,0.04 -0.03,0.04 -0.03,0.03 -0.03,0.02 -0.03,0.03 -0.04,0.02 -0.05,0.02 -0.02,0.01 -0.03,0.01 -0.02,0 -0.03,0.01 -0.03,0.01 -0.03,0 -0.03,0.01 -0.03,0 -0.03,0.01 -0.04,0 -0.04,0 -0.03,0 -0.04,0.01 -0.04,0 -0.04,0 -0.05,0 -0.04,0 -0.05,0 -0.05,0.01 -0.05,0 -0.05,0 -0.05,0 c -3.09,-3.19 -7.47,-3.19 -9.07,-3.19 v -1.55 c 1,0 3.94,0 6.53,1.3 v -25.81 c 0,-1.79 -0.15,-2.39 -4.63,-2.39 h -1.6 V 406 h 16.14 v 1.54 h -1.59 c -4.49,0 -4.64,0.55 -4.64,2.39 z"
           id="path15549" /><path
           style="fill:#000000;stroke-width:0"
           d="m 531.38,417.46 h 13.89 c 0.7,0 1.64,0 1.64,0.99 0,1 -0.94,1 -1.64,1 h -13.89 v 13.95 c 0,0.69 0,1.64 -1,1.64 -1,0 -1,-0.95 -1,-1.64 v -13.95 h -13.95 c -0.7,0 -1.64,0 -1.64,-1 0,-0.99 0.94,-0.99 1.64,-0.99 h 13.95 v -13.95 c 0,-0.7 0,-1.64 1,-1.64 1,0 1,0.94 1,1.64 z"
           id="path15551" /><path
           style="fill:#000000;stroke-width:0"
           d="m 589.64,434.34 -0.01,0.35 -0.02,0.35 -0.04,0.34 -0.05,0.33 -0.07,0.33 -0.09,0.32 -0.1,0.32 -0.11,0.31 -0.13,0.3 -0.14,0.29 -0.15,0.29 -0.17,0.27 -0.18,0.27 -0.19,0.26 -0.21,0.25 -0.21,0.24 -0.23,0.22 -0.24,0.22 -0.25,0.2 -0.27,0.19 -0.27,0.18 -0.28,0.17 -0.3,0.15 -0.3,0.14 -0.32,0.12 -0.32,0.11 -0.33,0.09 -0.34,0.08 -0.35,0.06 -0.36,0.04 -0.37,0.03 -0.37,0.01 c -2.89,0 -4.29,-0.8 -6.03,-2.1 -2.74,-1.99 -5.48,-6.82 -6.43,-10.61 l -7.91,-31.62 c -0.05,-0.2 0.2,-0.5 0.59,-0.5 0.4,0 0.55,0.1 0.6,0.25 l 3.49,13.74 c 0.94,-2.99 3.14,-4.83 6.77,-4.83 l -0.15,1.1 c -3.78,0 -5.68,2.89 -5.68,6.42 0,0.5 0,1.25 0.25,2.19 l 3.19,12.61 c 1.1,4.28 4.68,12.2 10.66,12.2 2.89,0 4.63,-1.54 4.63,-4.53 h 0 c 0,-3.49 -1.89,-7.08 -4.48,-8.62 -1.35,0.5 -2.34,0.6 -3.84,0.6 -1.04,0 -3.83,0.05 -3.83,-1.59 -0.05,-1.4 2.54,-1.25 3.44,-1.25 l 0.14,1.1 c -0.69,0 -1.69,-0.05 -2.19,0.2 0.1,0.49 1.89,0.39 2.44,0.39 1.05,0 1.5,0 2.15,-0.25 h 0 c -0.65,-0.25 -1.2,-0.34 -2.4,-0.34 l -0.14,-1.1 c 1.84,0 2.59,0.05 4.08,0.65 1.89,-1.8 2.14,-3.34 2.19,-5.63 0.1,-2.89 -1.09,-6.63 -2.49,-8.57 -1.94,-2.69 -5.28,-4.48 -8.12,-4.48 l 0.15,-1.1 c 3.64,0 7.37,1.75 9.62,3.94 2.39,2.29 3.98,5.48 3.98,9.16 0,3.59 -1.84,6.18 -3.64,7.42 2.89,1.65 5.73,4.74 5.73,8.32 z"
           id="path15553" /><path
           style="fill:#000000;stroke-width:0"
           d="m 617.94,431.88 0.05,0 0.06,0 0.05,0 0.06,0 0.12,0 0.06,0.01 0.05,0 0.06,0.01 0.06,0 0.06,0.01 0.06,0.01 0.05,0.02 0.06,0.01 0.06,0.02 0.05,0.01 0.05,0.02 0.05,0.03 0.05,0.02 0.04,0.03 0.04,0.04 0.05,0.03 0.03,0.04 0.02,0.02 0.02,0.02 0.01,0.03 0.02,0.02 0.01,0.02 0.02,0.03 0.01,0.03 0.01,0.02 0.01,0.03 0.01,0.03 0.01,0.03 0,0.03 0.01,0.04 0.01,0.03 0,0.04 0,0.03 0.01,0.04 0,0.04 c 0,0.87 -0.81,0.87 -1.4,0.87 h -20.78 c -0.56,0 -1.39,0 -1.39,-0.84 0,-0.87 0.8,-0.87 1.39,-0.87 z"
           id="path15555" /><path
           style="fill:#000000;stroke-width:0"
           d="m 634.68,446.18 0,0.04 0,0.04 0,0.04 0,0.04 0,0.04 0,0.04 0,0.03 0,0.04 -0.01,0.03 0,0.03 0,0.04 0,0.03 -0.01,0.02 0,0.03 0,0.03 -0.01,0.03 0,0.02 0,0.02 -0.02,0.05 -0.01,0.04 -0.01,0.04 -0.02,0.03 -0.02,0.03 -0.02,0.03 -0.03,0.03 -0.02,0.02 -0.03,0.02 -0.04,0.02 -0.03,0.01 -0.04,0.01 -0.05,0.02 -0.05,0 -0.02,0.01 -0.03,0 -0.03,0.01 -0.02,0 -0.03,0 -0.03,0 -0.04,0 -0.03,0.01 -0.03,0 -0.04,0 -0.03,0 -0.04,0 -0.04,0 -0.04,0 -0.04,0 -0.04,0 -0.05,0 -0.04,0 c -2.24,-2.19 -5.41,-2.23 -6.84,-2.23 v -1.25 c 0.84,0 3.14,0 5.05,0.97 v -17.78 c 0,-1.15 0,-1.61 -3.48,-1.61 h -1.33 V 424 h 12.45 v 1.25 h -1.32 c -3.49,0 -3.49,0.46 -3.49,1.61 z"
           id="path15557" /><path
           style="fill:#000000;stroke-width:0"
           d="m 659.4,418.45 -0.01,0.37 0,0.39 -0.01,0.39 -0.01,0.41 -0.04,0.84 -0.06,0.88 -0.09,0.92 -0.1,0.94 -0.14,0.98 -0.16,1 -0.2,1.02 -0.23,1.04 -0.27,1.05 -0.3,1.06 -0.35,1.06 -0.39,1.07 -0.22,0.53 -0.22,0.54 -0.24,0.53 -0.25,0.53 c -2.99,6.12 -7.27,9.36 -7.77,9.36 -0.3,0 -0.5,-0.2 -0.5,-0.5 0,-0.15 0,-0.25 0.94,-1.15 4.89,-4.92 7.73,-12.85 7.73,-23.26 0,-8.52 -1.85,-17.28 -8.02,-23.56 -0.65,-0.6 -0.65,-0.69 -0.65,-0.85 0,-0.29 0.2,-0.49 0.5,-0.49 0.5,0 4.98,3.38 7.92,9.71 2.54,5.48 3.14,11.01 3.14,15.19 z"
           id="path15559" /><path
           style="fill:#000000;stroke-width:0"
           d="m 679.09,421.74 0.2,1.3 3.39,13.55 c 0.45,1.74 0.55,1.89 2.69,1.89 h 4.78 c 4.13,0 6.78,-1.35 6.78,-4.78 0,-1.95 -1,-6.23 -2.94,-8.02 -2.49,-2.25 -5.48,-2.64 -7.67,-2.64 h -7.03 l -0.2,-1.3 h 8.47 c 7.08,0 14,5.18 14,10.76 0,3.84 -3.29,7.52 -9.81,7.52 H 675.6 c -0.94,0 -1.49,0 -1.49,-0.95 0,-0.59 0.45,-0.59 1.45,-0.59 0.64,0 1.54,-0.05 2.14,-0.1 0.8,-0.1 1.09,-0.25 1.09,-0.8 0,-0.2 -0.04,-0.35 -0.2,-0.94 l -6.67,-26.75 c -0.5,-1.95 -0.6,-2.35 -4.53,-2.35 -0.85,0 -1.4,0 -1.4,-0.94 0,-0.6 0.6,-0.6 0.75,-0.6 h 12.75 c 0.35,0 1,0 1,1 0,0.54 -0.45,0.54 -1.4,0.54 -1.84,0 -3.24,0 -3.24,0.9 0,0.3 0.11,0.55 0.15,0.85 z"
           id="path15561" /><path
           style="fill:#000000;stroke-width:0"
           d="m 711.13,401.82 -0.01,-0.06 -0.02,-0.07 -0.02,-0.07 -0.02,-0.08 -0.02,-0.07 -0.02,-0.08 -0.04,-0.16 -0.04,-0.16 -0.04,-0.16 -0.04,-0.16 -0.02,-0.07 -0.02,-0.08 -0.02,-0.08 -0.01,-0.07 -0.02,-0.07 -0.02,-0.07 -0.01,-0.07 -0.02,-0.06 -0.01,-0.06 -0.01,-0.06 -0.01,-0.05 -0.02,-0.05 0,-0.04 -0.01,-0.04 -0.01,-0.04 0,-0.03 0,-0.02 0,-0.02 c 0,-0.77 0.62,-1.12 1.18,-1.12 0.63,0 1.19,0.46 1.36,0.77 0.17,0.31 0.46,1.43 0.63,2.16 0.17,0.66 0.56,2.27 0.77,3.14 0.2,0.76 0.41,1.53 0.59,2.33 0.38,1.5 0.38,1.57 1.08,2.65 1.12,1.71 2.86,3.7 5.58,3.7 1.95,0 2.06,-1.6 2.06,-2.44 0,-2.09 -1.5,-5.96 -2.06,-7.43 -0.39,-0.97 -0.52,-1.29 -0.52,-1.88 0,-1.85 1.53,-3 3.31,-3 3.48,0 5.02,4.81 5.02,5.33 0,0.46 -0.45,0.46 -0.56,0.46 -0.49,0 -0.52,-0.21 -0.66,-0.59 -0.81,-2.79 -2.3,-4.22 -3.7,-4.22 -0.73,0 -0.87,0.49 -0.87,1.22 0,0.8 0.17,1.25 0.8,2.82 0.42,1.08 1.85,4.78 1.85,6.73 0,0.56 0,2.03 -1.29,3.04 -0.59,0.45 -1.6,0.94 -3.24,0.94 -3.14,0 -5.06,-2.06 -6.18,-3.52 -0.27,2.96 -2.75,3.52 -4.53,3.52 -2.89,0 -4.84,-1.78 -5.89,-3.18 -0.24,2.41 -2.3,3.18 -3.73,3.18 -1.5,0 -2.3,-1.08 -2.75,-1.88 -0.77,-1.3 -1.26,-3.29 -1.26,-3.46 0,-0.45 0.49,-0.45 0.59,-0.45 0.49,0 0.52,0.11 0.77,1.05 0.52,2.05 1.18,3.76 2.54,3.76 0.91,0 1.16,-0.77 1.16,-1.71 0,-0.66 -0.32,-1.95 -0.56,-2.89 -0.24,-0.94 -0.6,-2.37 -0.77,-3.14 l -1.12,-4.46 c -0.14,-0.46 -0.34,-1.33 -0.34,-1.43 0,-0.77 0.62,-1.12 1.18,-1.12 0.63,0 1.19,0.46 1.36,0.77 0.17,0.31 0.45,1.43 0.63,2.16 0.17,0.66 0.56,2.27 0.76,3.14 0.21,0.76 0.43,1.53 0.6,2.33 0.38,1.43 0.45,1.71 1.46,3.14 0.98,1.4 2.62,3.21 5.23,3.21 2.03,0 2.06,-1.78 2.06,-2.44 0,-0.87 -0.1,-1.32 -0.59,-3.28 z"
           id="path15563" /><path
           style="fill:#000000;stroke-width:0"
           d="m 750.49,394.04 0,0.03 0,0.03 -0.01,0.01 0,0.02 0,0.01 -0.01,0.02 0,0.02 -0.01,0.01 -0.01,0.02 -0.01,0.02 -0.01,0.03 -0.01,0.02 -0.02,0.02 -0.02,0.03 -0.02,0.03 -0.02,0.03 -0.03,0.03 -0.03,0.04 -0.01,0.02 -0.02,0.02 -0.02,0.02 -0.02,0.02 -0.02,0.02 -0.02,0.03 -0.02,0.02 -0.02,0.02 -0.02,0.03 -0.03,0.02 -0.02,0.03 -0.03,0.03 -0.02,0.03 -0.03,0.03 -0.03,0.03 -0.03,0.03 -0.03,0.03 -0.03,0.03 -0.04,0.04 -0.03,0.03 -0.04,0.04 -0.03,0.03 -0.04,0.04 -0.04,0.04 c -6.23,6.28 -7.82,15.69 -7.82,23.31 0,8.67 1.9,17.34 8.02,23.57 0.65,0.59 0.65,0.69 0.65,0.84 0,0.35 -0.2,0.5 -0.5,0.5 -0.5,0 -4.98,-3.39 -7.92,-9.72 -2.54,-5.47 -3.14,-11 -3.14,-15.19 0,-3.88 0.55,-9.91 3.29,-15.54 2.99,-6.12 7.27,-9.36 7.77,-9.36 0.3,0 0.5,0.15 0.5,0.49 z"
           id="path15565" /><path
           style="fill:#000000;stroke-width:0"
           d="m 754.65,397.38 -0.01,-0.02 -0.01,-0.03 0,-0.03 -0.01,-0.02 -0.01,-0.03 0,-0.02 -0.01,-0.03 0,-0.02 -0.01,-0.02 0,-0.02 -0.01,-0.02 0,-0.02 -0.01,-0.02 0,-0.02 -0.01,-0.04 -0.01,-0.03 -0.01,-0.04 0,-0.03 -0.01,-0.03 0,-0.02 -0.01,-0.03 0,-0.02 -0.01,-0.02 0,-0.02 0,-0.02 0,-0.02 -0.01,-0.02 0,-0.01 0,-0.02 0,-0.01 0,-0.01 0,-0.01 0,-0.02 0,-0.02 0,-0.02 0,-0.01 c 0,-0.75 0.54,-1.35 1.39,-1.35 1.04,0 1.64,0.9 1.74,1.05 0.25,0.44 1.85,7.12 3.19,12.5 1,-1.99 2.59,-3.34 4.93,-3.34 l -0.05,1.1 c -3.48,0 -4.28,3.98 -4.28,4.43 0,0.2 0.25,1.2 0.4,1.84 1.39,5.58 1.89,7.38 2.98,9.37 2.15,3.63 4.64,4.73 6.18,4.73 1.84,0 3.44,-1.44 3.44,-4.88 0,-2.74 -1.44,-8.32 -2.79,-10.76 -1.65,-3.14 -4.04,-4.73 -5.93,-4.73 h 0 l 0.05,-1.1 c 5.83,0 12.26,7.03 12.26,14.45 0,5.28 -3.29,8.12 -6.93,8.12 -4.83,0 -10.06,-4.98 -11.55,-11.06 z"
           id="path15567" /><path
           style="fill:#000000;stroke-width:0"
           d="m 790.3,420.79 0,0.06 -0.01,0.05 0,0.05 -0.01,0.06 -0.01,0.06 -0.02,0.05 -0.01,0.06 -0.02,0.06 -0.03,0.05 -0.02,0.06 -0.03,0.05 -0.03,0.06 -0.03,0.05 -0.03,0.05 -0.04,0.05 -0.04,0.05 -0.05,0.05 -0.04,0.05 -0.05,0.04 -0.06,0.05 -0.05,0.04 -0.06,0.03 -0.06,0.04 -0.07,0.03 -0.07,0.03 -0.07,0.02 -0.07,0.02 -0.08,0.02 -0.08,0.02 -0.08,0.01 -0.09,0 -0.09,0.01 c -0.94,0 -1.95,-0.91 -1.95,-1.92 0,-0.59 0.45,-1.32 1.39,-1.32 1.01,0 1.96,0.97 1.96,1.91 z"
           id="path15569" /><path
           style="fill:#000000;stroke-width:0"
           d="m 783.18,403.08 -0.05,-0.17 -0.05,-0.17 -0.03,-0.08 -0.03,-0.09 -0.02,-0.08 -0.03,-0.09 -0.02,-0.09 -0.02,-0.09 -0.01,-0.1 -0.02,-0.09 -0.01,-0.1 -0.01,-0.05 0,-0.05 0,-0.05 -0.01,-0.06 0,-0.05 0,-0.06 c 0,-1.63 1.4,-2.96 3.31,-2.96 3.49,0 5.02,4.81 5.02,5.33 0,0.46 -0.45,0.46 -0.55,0.46 -0.49,0 -0.53,-0.21 -0.67,-0.59 -0.8,-2.79 -2.33,-4.22 -3.69,-4.22 -0.7,0 -0.88,0.45 -0.88,1.22 0,0.8 0.25,1.46 0.56,2.23 0.35,0.94 0.74,1.88 1.12,2.79 0.31,0.84 1.57,4.01 1.71,4.43 0.1,0.34 0.21,0.77 0.21,1.11 0,1.64 -1.4,2.97 -3.31,2.97 -3.46,0 -5.06,-4.74 -5.06,-5.34 0,-0.45 0.49,-0.45 0.59,-0.45 0.49,0 0.52,0.17 0.63,0.56 0.91,2.99 2.44,4.25 3.73,4.25 0.56,0 0.87,-0.28 0.87,-1.22 0,-0.8 -0.21,-1.32 -1.08,-3.48 z"
           id="path15571" /><path
           style="fill:#000000;stroke-width:0"
           d="m 810.4,418.45 -0.01,0.37 0,0.39 -0.01,0.39 -0.01,0.41 -0.04,0.84 -0.06,0.88 -0.09,0.92 -0.1,0.94 -0.14,0.98 -0.16,1 -0.2,1.02 -0.23,1.04 -0.27,1.05 -0.3,1.06 -0.35,1.06 -0.39,1.07 -0.22,0.53 -0.22,0.54 -0.24,0.53 -0.25,0.53 c -2.99,6.12 -7.27,9.36 -7.77,9.36 -0.3,0 -0.5,-0.2 -0.5,-0.5 0,-0.15 0,-0.25 0.94,-1.15 4.89,-4.92 7.73,-12.85 7.73,-23.26 0,-8.52 -1.85,-17.28 -8.02,-23.56 -0.65,-0.6 -0.65,-0.69 -0.65,-0.85 0,-0.29 0.2,-0.49 0.5,-0.49 0.5,0 4.98,3.38 7.92,9.71 2.54,5.48 3.14,11.01 3.14,15.19 z"
           id="path15573" /><path
           style="fill:#000000;stroke-width:0"
           d="m 858.83,417.46 0.16,0 0.16,0 0.15,0 0.08,0.01 0.08,0 0.07,0.01 0.08,0.01 0.07,0.01 0.07,0.01 0.07,0.01 0.07,0.02 0.06,0.02 0.07,0.02 0.06,0.03 0.05,0.02 0.06,0.04 0.05,0.03 0.05,0.04 0.05,0.04 0.04,0.05 0.04,0.05 0.01,0.02 0.02,0.03 0.02,0.03 0.01,0.03 0.02,0.03 0.01,0.04 0.01,0.03 0.01,0.03 0.01,0.04 0.01,0.04 0,0.04 0.01,0.04 0,0.04 0.01,0.04 0,0.05 0,0.04 c 0,1 -0.9,1 -1.74,1 h -26.95 c -0.85,0 -1.75,0 -1.75,-1 0,-0.99 0.9,-0.99 1.75,-0.99 z"
           id="path15575" /><path
           style="fill:#000000;stroke-width:0"
           d="m 904.64,434.34 -0.01,0.35 -0.02,0.35 -0.04,0.34 -0.05,0.33 -0.07,0.33 -0.09,0.32 -0.1,0.32 -0.11,0.31 -0.13,0.3 -0.14,0.29 -0.15,0.29 -0.17,0.27 -0.18,0.27 -0.19,0.26 -0.21,0.25 -0.21,0.24 -0.23,0.22 -0.24,0.22 -0.25,0.2 -0.27,0.19 -0.27,0.18 -0.28,0.17 -0.3,0.15 -0.3,0.14 -0.32,0.12 -0.32,0.11 -0.33,0.09 -0.34,0.08 -0.35,0.06 -0.36,0.04 -0.37,0.03 -0.37,0.01 c -2.89,0 -4.29,-0.8 -6.03,-2.1 -2.74,-1.99 -5.48,-6.82 -6.43,-10.61 l -7.91,-31.62 c -0.05,-0.2 0.2,-0.5 0.59,-0.5 0.4,0 0.55,0.1 0.6,0.25 l 3.49,13.74 c 0.94,-2.99 3.14,-4.83 6.77,-4.83 l -0.15,1.1 c -3.78,0 -5.68,2.89 -5.68,6.42 0,0.5 0,1.25 0.25,2.19 l 3.19,12.61 c 1.1,4.28 4.68,12.2 10.66,12.2 2.89,0 4.63,-1.54 4.63,-4.53 h 0 c 0,-3.49 -1.89,-7.08 -4.48,-8.62 -1.35,0.5 -2.34,0.6 -3.84,0.6 -1.04,0 -3.83,0.05 -3.83,-1.59 -0.05,-1.4 2.54,-1.25 3.44,-1.25 l 0.14,1.1 c -0.69,0 -1.69,-0.05 -2.19,0.2 0.1,0.49 1.89,0.39 2.44,0.39 1.05,0 1.5,0 2.15,-0.25 h 0 c -0.65,-0.25 -1.2,-0.34 -2.4,-0.34 l -0.14,-1.1 c 1.84,0 2.59,0.05 4.08,0.65 1.89,-1.8 2.14,-3.34 2.19,-5.63 0.1,-2.89 -1.09,-6.63 -2.49,-8.57 -1.94,-2.69 -5.28,-4.48 -8.12,-4.48 l 0.15,-1.1 c 3.64,0 7.37,1.75 9.62,3.94 2.39,2.29 3.98,5.48 3.98,9.16 0,3.59 -1.84,6.18 -3.64,7.42 2.89,1.65 5.73,4.74 5.73,8.32 z"
           id="path15577" /><path
           style="fill:#000000;stroke-width:0"
           d="m 932.94,431.88 0.05,0 0.06,0 0.05,0 0.06,0 0.12,0 0.06,0.01 0.05,0 0.06,0.01 0.06,0 0.06,0.01 0.06,0.01 0.05,0.02 0.06,0.01 0.06,0.02 0.05,0.01 0.05,0.02 0.05,0.03 0.05,0.02 0.04,0.03 0.04,0.04 0.05,0.03 0.03,0.04 0.02,0.02 0.02,0.02 0.01,0.03 0.02,0.02 0.01,0.02 0.02,0.03 0.01,0.03 0.01,0.02 0.01,0.03 0.01,0.03 0.01,0.03 0,0.03 0.01,0.04 0.01,0.03 0,0.04 0,0.03 0.01,0.04 0,0.04 c 0,0.87 -0.81,0.87 -1.4,0.87 h -20.78 c -0.56,0 -1.39,0 -1.39,-0.84 0,-0.87 0.8,-0.87 1.39,-0.87 z"
           id="path15579" /><path
           style="fill:#000000;stroke-width:0"
           d="m 949.68,446.18 0,0.04 0,0.04 0,0.04 0,0.04 0,0.04 0,0.04 0,0.03 0,0.04 -0.01,0.03 0,0.03 0,0.04 0,0.03 -0.01,0.02 0,0.03 0,0.03 -0.01,0.03 0,0.02 0,0.02 -0.02,0.05 -0.01,0.04 -0.01,0.04 -0.02,0.03 -0.02,0.03 -0.02,0.03 -0.03,0.03 -0.02,0.02 -0.03,0.02 -0.04,0.02 -0.03,0.01 -0.04,0.01 -0.05,0.02 -0.05,0 -0.02,0.01 -0.03,0 -0.03,0.01 -0.02,0 -0.03,0 -0.03,0 -0.04,0 -0.03,0.01 -0.03,0 -0.04,0 -0.03,0 -0.04,0 -0.04,0 -0.04,0 -0.04,0 -0.04,0 -0.05,0 -0.04,0 c -2.24,-2.19 -5.41,-2.23 -6.84,-2.23 v -1.25 c 0.84,0 3.14,0 5.05,0.97 v -17.78 c 0,-1.15 0,-1.61 -3.48,-1.61 h -1.33 V 424 h 12.45 v 1.25 h -1.32 c -3.49,0 -3.49,0.46 -3.49,1.61 z"
           id="path15581" /><path
           style="fill:#000000;stroke-width:0"
           d="m 961.65,397.38 -0.01,-0.02 -0.01,-0.03 0,-0.03 -0.01,-0.02 -0.01,-0.03 0,-0.02 -0.01,-0.03 0,-0.02 -0.01,-0.02 0,-0.02 -0.01,-0.02 0,-0.02 -0.01,-0.02 0,-0.02 -0.01,-0.04 -0.01,-0.03 -0.01,-0.04 0,-0.03 -0.01,-0.03 0,-0.02 -0.01,-0.03 0,-0.02 -0.01,-0.02 0,-0.02 0,-0.02 0,-0.02 -0.01,-0.02 0,-0.01 0,-0.02 0,-0.01 0,-0.01 0,-0.01 0,-0.02 0,-0.02 0,-0.02 0,-0.01 c 0,-0.75 0.54,-1.35 1.39,-1.35 1.04,0 1.64,0.9 1.74,1.05 0.25,0.44 1.85,7.12 3.19,12.5 1,-1.99 2.59,-3.34 4.93,-3.34 l -0.05,1.1 c -3.48,0 -4.28,3.98 -4.28,4.43 0,0.2 0.25,1.2 0.4,1.84 1.39,5.58 1.89,7.38 2.98,9.37 2.15,3.63 4.64,4.73 6.18,4.73 1.84,0 3.44,-1.44 3.44,-4.88 0,-2.74 -1.44,-8.32 -2.79,-10.76 -1.65,-3.14 -4.04,-4.73 -5.93,-4.73 h 0 l 0.05,-1.1 c 5.83,0 12.26,7.03 12.26,14.45 0,5.28 -3.29,8.12 -6.93,8.12 -4.83,0 -10.06,-4.98 -11.55,-11.06 z"
           id="path15583" /><path
           style="fill:#000000;stroke-width:0"
           d="m 997.3,420.79 0,0.06 -0.01,0.05 0,0.05 -0.01,0.06 -0.01,0.06 -0.02,0.05 -0.01,0.06 -0.02,0.06 -0.03,0.05 -0.02,0.06 -0.03,0.05 -0.03,0.06 -0.03,0.05 -0.03,0.05 -0.04,0.05 -0.04,0.05 -0.05,0.05 -0.04,0.05 -0.05,0.04 -0.06,0.05 -0.05,0.04 -0.06,0.03 -0.06,0.04 -0.07,0.03 -0.07,0.03 -0.07,0.02 -0.07,0.02 -0.08,0.02 -0.08,0.02 -0.08,0.01 -0.09,0 -0.09,0.01 c -0.94,0 -1.95,-0.91 -1.95,-1.92 0,-0.59 0.45,-1.32 1.39,-1.32 1.01,0 1.96,0.97 1.96,1.91 z"
           id="path15585" /><path
           style="fill:#000000;stroke-width:0"
           d="m 990.18,403.08 -0.05,-0.17 -0.05,-0.17 -0.03,-0.08 -0.03,-0.09 -0.02,-0.08 -0.03,-0.09 -0.02,-0.09 -0.02,-0.09 -0.01,-0.1 -0.02,-0.09 -0.01,-0.1 -0.01,-0.05 0,-0.05 0,-0.05 -0.01,-0.06 0,-0.05 0,-0.06 c 0,-1.63 1.4,-2.96 3.31,-2.96 3.49,0 5.02,4.81 5.02,5.33 0,0.46 -0.45,0.46 -0.55,0.46 -0.49,0 -0.53,-0.21 -0.67,-0.59 -0.8,-2.79 -2.33,-4.22 -3.69,-4.22 -0.7,0 -0.88,0.45 -0.88,1.22 0,0.8 0.25,1.46 0.56,2.23 0.35,0.94 0.74,1.88 1.12,2.79 0.31,0.84 1.57,4.01 1.71,4.43 0.1,0.34 0.21,0.77 0.21,1.11 0,1.64 -1.4,2.97 -3.31,2.97 -3.46,0 -5.06,-4.74 -5.06,-5.34 0,-0.45 0.49,-0.45 0.59,-0.45 0.49,0 0.52,0.17 0.63,0.56 0.91,2.99 2.44,4.25 3.73,4.25 0.56,0 0.87,-0.28 0.87,-1.22 0,-0.8 -0.21,-1.32 -1.08,-3.48 z"
           id="path15587" /></g>    </g>
  </g>
</svg>
