<?xml version="1.0" encoding="UTF-8" standalone="no"?>
<!-- Created with Inkscape (http://www.inkscape.org/) -->

<svg
   xmlns:dc="http://purl.org/dc/elements/1.1/"
   xmlns:cc="http://creativecommons.org/ns#"
   xmlns:rdf="http://www.w3.org/1999/02/22-rdf-syntax-ns#"
   xmlns:svg="http://www.w3.org/2000/svg"
   xmlns="http://www.w3.org/2000/svg"
   xmlns:sodipodi="http://sodipodi.sourceforge.net/DTD/sodipodi-0.dtd"
   xmlns:inkscape="http://www.inkscape.org/namespaces/inkscape"
   width="744.09448819"
   height="1052.3622047"
   id="svg15827"
   version="1.1"
   inkscape:version="0.47 r22583"
   sodipodi:docname="New document 53">
  <sodipodi:namedview
     id="base"
     pagecolor="#ffffff"
     bordercolor="#666666"
     borderopacity="1.0"
     inkscape:pageopacity="0.0"
     inkscape:pageshadow="2"
     inkscape:zoom="2.8"
     inkscape:cx="413.94128"
     inkscape:cy="941.92306"
     inkscape:document-units="px"
     inkscape:current-layer="layer1"
     showgrid="true"
     inkscape:window-width="1918"
     inkscape:window-height="1168"
     inkscape:window-x="43"
     inkscape:window-y="-4"
     inkscape:window-maximized="1"
     objecttolerance="10"
     guidetolerance="10"
     gridtolerance="10">
    <inkscape:grid
       id="grid16799"
       type="xygrid"
       empspacing="5"
       visible="true"
       enabled="true"
       snapvisiblegridlinesonly="true" />
  </sodipodi:namedview>
  <defs
     id="defs15829">
    <marker
       inkscape:stockid="DotM"
       orient="auto"
       refY="0.0"
       refX="0.0"
       id="DotM"
       style="overflow:visible">
      <path
         id="path16417"
         d="M -2.5,-1.0 C -2.5,1.7600000 -4.7400000,4.0 -7.5,4.0 C -10.260000,4.0 -12.5,1.7600000 -12.5,-1.0 C -12.5,-3.7600000 -10.260000,-6.0 -7.5,-6.0 C -4.7400000,-6.0 -2.5,-3.7600000 -2.5,-1.0 z "
         style="fill-rule:evenodd;stroke:#000000;stroke-width:1.0pt;marker-start:none;marker-end:none"
         transform="scale(0.4) translate(7.4, 1)" />
    </marker>
    <marker
       style="overflow:visible;"
       id="Arrow1Lend"
       refX="0.0"
       refY="0.0"
       orient="auto"
       inkscape:stockid="Arrow1Lend">
      <path
         transform="scale(0.8) rotate(180) translate(12.5,0)"
         style="fill-rule:evenodd;stroke:#000000;stroke-width:1.0pt;marker-start:none;"
         d="M 0.0,0.0 L 5.0,-5.0 L -12.5,0.0 L 5.0,5.0 L 0.0,0.0 z "
         id="path16355" />
    </marker>
    <inkscape:perspective
       id="perspective15835"
       inkscape:persp3d-origin="372.04724 : 350.78739 : 1"
       inkscape:vp_z="744.09448 : 526.18109 : 1"
       inkscape:vp_y="0 : 1000 : 0"
       inkscape:vp_x="0 : 526.18109 : 1"
       sodipodi:type="inkscape:persp3d" />
    <inkscape:perspective
       sodipodi:type="inkscape:persp3d"
       inkscape:vp_x="0 : 0.5 : 1"
       inkscape:vp_y="0 : 1000 : 0"
       inkscape:vp_z="1 : 0.5 : 1"
       inkscape:persp3d-origin="0.5 : 0.33333333 : 1"
       id="perspective17112" />
  </defs>
  <metadata
     id="metadata15832">
    <rdf:RDF>
      <cc:Work
         rdf:about="">
        <dc:format>image/svg+xml</dc:format>
        <dc:type
           rdf:resource="http://purl.org/dc/dcmitype/StillImage" />
        <dc:title></dc:title>
      </cc:Work>
    </rdf:RDF>
  </metadata>
  <g
     id="layer1"
     inkscape:groupmode="layer"
     inkscape:label="Layer 1">
    <path
       id="path15837"
       d="M 340,274.05954 340,52.362183"
       style="fill:none;stroke:#000000;stroke-width:0.4;stroke-linecap:butt;stroke-linejoin:miter;stroke-miterlimit:4;stroke-opacity:1;stroke-dasharray:none;marker-end:url(#Arrow1Lend)" />
    <path
       style="fill:none;stroke:#000000;stroke-width:0.4;stroke-linecap:butt;stroke-linejoin:miter;stroke-miterlimit:4;stroke-opacity:1;stroke-dasharray:none;marker-end:url(#Arrow1Lend)"
       d="m 228.30264,162.36218 221.69736,0"
       id="path16797" />
    <path
       transform="matrix(1.2709678,0,0,1.2709678,-92.032279,-43.704603)"
       d="m 395,161.29076 a 55.357143,55.357143 0 1 1 -110.71429,0 55.357143,55.357143 0 1 1 110.71429,0 z"
       sodipodi:ry="55.357143"
       sodipodi:rx="55.357143"
       sodipodi:cy="161.29076"
       sodipodi:cx="339.64285"
       id="path16801"
       style="fill:none;stroke:#0a6fec;stroke-width:1.57360399;stroke-linecap:round;stroke-linejoin:round;stroke-miterlimit:4;stroke-opacity:1;stroke-dasharray:none;stroke-dashoffset:0"
       sodipodi:type="arc" />
    <path
       id="path16803"
       d="M 340,162.36218 400.62178,57.362183"
       style="fill:none;stroke:#000000;stroke-width:0.5;stroke-linecap:butt;stroke-linejoin:miter;stroke-opacity:1;marker-end:url(#Arrow1Lend);stroke-miterlimit:4;stroke-dasharray:none" />
    <rect
       inkscape:export-ydpi="399.99649"
       inkscape:export-xdpi="399.99649"
       inkscape:export-filename="/home/filipe/Documents/PhD-Thesis/g6737.png"
       ry="4.1266513"
       rx="4.1266513"
       y="99.122223"
       x="377.56311"
       height="13.335186"
       width="38.244381"
       id="rect10335"
       style="fill:#ffffff;fill-opacity:0.83682006;stroke:#000000;stroke-width:0.31248018;stroke-miterlimit:4;stroke-opacity:1;stroke-dasharray:none;display:inline" />
    <path
       style="fill:none;stroke:#000000;stroke-width:0.6;stroke-linecap:butt;stroke-linejoin:miter;stroke-opacity:1;marker-end:url(#Arrow1Lend);stroke-miterlimit:4;stroke-dasharray:none"
       d="m 340,162.36218 35,-60.62177"
       id="path16989" />
    <g
       id="g17005"
       transform="matrix(0.16053597,0,0,0.16053597,352.13273,-1.9942373)">
      <g
         word-spacing="normal"
         letter-spacing="normal"
         font-size-adjust="none"
         font-stretch="normal"
         font-weight="normal"
         font-variant="normal"
         font-style="normal"
         fill-rule="even-odd"
         stroke-miterlimit="10.433"
         xml:space="preserve"
         transform="matrix(1.0629921,0,0,-1.0629921,-186.02362,789.27165)"
         id="content"
         style="font-style:normal;font-variant:normal;font-weight:normal;font-stretch:normal;letter-spacing:normal;word-spacing:normal;text-anchor:start;fill:none;stroke:#000000;stroke-linecap:butt;stroke-linejoin:miter;stroke-miterlimit:10.43299961;stroke-opacity:1;stroke-dasharray:none;stroke-dashoffset:0"><path
           id="path17008"
           d="m 471.09,422.19 h 4.84 c 3.73,0 4.13,-0.8 4.13,-2.24 0,-0.35 0,-0.95 -0.35,-2.44 -0.1,-0.25 -0.15,-0.45 -0.15,-0.55 0,-0.4 0.3,-0.6 0.6,-0.6 0.5,0 0.5,0.15 0.75,1.05 l 2.73,10.8 c 0.16,0.56 0.16,0.65 0.16,0.8 0,0.1 -0.1,0.55 -0.6,0.55 -0.5,0 -0.55,-0.25 -0.75,-1.04 -1.04,-3.89 -2.19,-4.79 -6.43,-4.79 h -4.53 l 3.19,12.66 c 0.45,1.74 0.5,1.94 2.69,1.94 h 6.58 c 6.12,0 7.27,-1.65 7.27,-5.48 0,-1.15 0,-1.35 -0.15,-2.69 -0.1,-0.65 -0.1,-0.75 -0.1,-0.9 0,-0.25 0.15,-0.6 0.6,-0.6 0.54,0 0.59,0.3 0.7,1.25 l 0.99,8.62 c 0.15,1.34 -0.1,1.34 -1.35,1.34 h -24.4 c -1,0 -1.5,0 -1.5,-0.99 0,-0.55 0.45,-0.55 1.4,-0.55 1.84,0 3.23,0 3.23,-0.9 0,-0.2 0,-0.3 -0.25,-1.19 l -6.57,-26.35 c -0.5,-1.95 -0.6,-2.35 -4.53,-2.35 -0.85,0 -1.4,0 -1.4,-0.94 0,-0.6 0.6,-0.6 0.75,-0.6 h 14 c 0.45,0 1.04,0 1.04,0.95 0,0.39 -0.29,0.5 -0.29,0.55 -0.16,0.04 -0.25,0.04 -1.4,0.04 -1.1,0 -1.35,0 -2.59,0.1 -1.44,0.15 -1.6,0.35 -1.6,1 0,0.1 0,0.4 0.2,1.15 z"
           style="fill:#000000;stroke-width:0" /><path
           id="path17010"
           d="m 511.49,394.04 0,0.03 0,0.03 -0.01,0.01 0,0.02 0,0.01 -0.01,0.02 0,0.02 -0.01,0.01 -0.01,0.02 -0.01,0.02 -0.01,0.03 -0.01,0.02 -0.02,0.02 -0.02,0.03 -0.02,0.03 -0.02,0.03 -0.03,0.03 -0.03,0.04 -0.01,0.02 -0.02,0.02 -0.02,0.02 -0.02,0.02 -0.02,0.02 -0.02,0.03 -0.02,0.02 -0.02,0.02 -0.02,0.03 -0.03,0.02 -0.02,0.03 -0.03,0.03 -0.02,0.03 -0.03,0.03 -0.03,0.03 -0.03,0.03 -0.03,0.03 -0.03,0.03 -0.04,0.04 -0.03,0.03 -0.04,0.04 -0.03,0.03 -0.04,0.04 -0.04,0.04 c -6.23,6.28 -7.82,15.69 -7.82,23.31 0,8.67 1.89,17.34 8.02,23.57 0.65,0.59 0.65,0.69 0.65,0.84 0,0.35 -0.2,0.5 -0.5,0.5 -0.5,0 -4.98,-3.39 -7.92,-9.72 -2.54,-5.47 -3.14,-11 -3.14,-15.19 0,-3.88 0.55,-9.91 3.29,-15.54 2.99,-6.12 7.27,-9.36 7.77,-9.36 0.3,0 0.5,0.15 0.5,0.49 z"
           style="fill:#000000;stroke-width:0" /><path
           id="path17012"
           d="m 524.51,420.64 -0.17,0.04 -0.19,0.03 -0.19,0.04 -0.2,0.04 -0.2,0.04 -0.2,0.04 -0.42,0.1 -0.42,0.11 -0.22,0.06 -0.21,0.07 -0.2,0.07 -0.21,0.07 -0.2,0.08 -0.2,0.09 -0.19,0.09 -0.19,0.1 -0.18,0.1 -0.17,0.11 -0.16,0.12 -0.15,0.12 -0.14,0.14 -0.14,0.14 -0.11,0.15 -0.11,0.15 -0.09,0.17 -0.04,0.09 -0.04,0.09 -0.03,0.09 -0.03,0.09 -0.02,0.1 -0.02,0.09 -0.02,0.11 -0.01,0.1 -0.01,0.1 0,0.11 c 0,3.09 4.63,3.09 5.58,3.09 3.74,0 5.63,-1.44 5.88,-4.18 0.05,-0.75 0.09,-1 1.14,-1 1.2,0 1.2,0.25 1.2,1.39 v 3.99 c 0,0.95 0,1.4 -0.9,1.4 -0.2,0 -0.3,0 -2.24,-0.95 -1.3,0.65 -3.04,0.95 -5.03,0.95 -1.5,0 -9.16,0 -9.16,-6.53 0,-1.99 0.99,-3.34 1.99,-4.18 1.99,-1.75 3.88,-2.05 7.71,-2.74 1.8,-0.3 5.54,-0.95 5.54,-3.89 0,-3.73 -4.59,-3.73 -5.68,-3.73 -5.28,0 -6.58,3.63 -7.18,5.77 -0.25,0.7 -0.5,0.7 -1.19,0.7 -1.19,0 -1.19,-0.3 -1.19,-1.44 v -5.43 c 0,-0.95 0,-1.4 0.89,-1.4 0.35,0 0.45,0 1.49,0.75 0.05,0 1.15,0.75 1.3,0.85 2.29,-1.6 4.88,-1.6 5.88,-1.6 1.54,0 9.21,0 9.21,7.27 0,2.15 -0.99,3.89 -2.74,5.28 -1.94,1.45 -3.53,1.75 -7.42,2.39 z"
           style="fill:#000000;stroke-width:0" /><path
           id="path17014"
           d="m 550.4,418.45 -0.01,0.37 0,0.39 -0.01,0.39 -0.01,0.41 -0.04,0.84 -0.06,0.88 -0.09,0.92 -0.1,0.94 -0.14,0.98 -0.16,1 -0.2,1.02 -0.23,1.04 -0.27,1.05 -0.3,1.06 -0.35,1.06 -0.39,1.07 -0.22,0.53 -0.22,0.54 -0.24,0.53 -0.25,0.53 c -2.99,6.12 -7.27,9.36 -7.77,9.36 -0.3,0 -0.5,-0.2 -0.5,-0.5 0,-0.15 0,-0.25 0.94,-1.15 4.89,-4.92 7.73,-12.85 7.73,-23.26 0,-8.52 -1.85,-17.28 -8.02,-23.56 -0.65,-0.6 -0.65,-0.69 -0.65,-0.85 0,-0.29 0.2,-0.49 0.5,-0.49 0.5,0 4.98,3.38 7.92,9.71 2.54,5.48 3.14,11.01 3.14,15.19 z"
           style="fill:#000000;stroke-width:0" /></g>    </g>
    <g
       transform="matrix(0.16219616,0,0,0.16219616,330.20884,49.603746)"
       id="g17054">
      <g
         style="font-style:normal;font-variant:normal;font-weight:normal;font-stretch:normal;letter-spacing:normal;word-spacing:normal;text-anchor:start;fill:none;stroke:#000000;stroke-linecap:butt;stroke-linejoin:miter;stroke-miterlimit:10.43299961;stroke-opacity:1;stroke-dasharray:none;stroke-dashoffset:0"
         id="g17056"
         transform="matrix(1.0629921,0,0,-1.0629921,-186.02362,789.27165)"
         xml:space="preserve"
         stroke-miterlimit="10.433"
         fill-rule="even-odd"
         font-style="normal"
         font-variant="normal"
         font-weight="normal"
         font-stretch="normal"
         font-size-adjust="none"
         letter-spacing="normal"
         word-spacing="normal"><path
           style="fill:#000000;stroke-width:0"
           d="m 471.09,421.74 0.2,1.3 3.39,13.55 c 0.45,1.74 0.55,1.89 2.69,1.89 h 4.78 c 4.14,0 6.78,-1.35 6.78,-4.78 0,-1.95 -1,-6.23 -2.94,-8.02 -2.49,-2.25 -5.48,-2.64 -7.67,-2.64 h -7.03 l -0.2,-1.3 h 8.47 c 7.08,0 14,5.18 14,10.76 0,3.84 -3.29,7.52 -9.81,7.52 h -16.14 c -0.95,0 -1.5,0 -1.5,-0.95 0,-0.59 0.45,-0.59 1.45,-0.59 0.64,0 1.54,-0.05 2.14,-0.1 0.8,-0.1 1.09,-0.25 1.09,-0.8 0,-0.2 -0.04,-0.35 -0.2,-0.94 l -6.67,-26.75 c -0.5,-1.95 -0.6,-2.35 -4.53,-2.35 -0.85,0 -1.4,0 -1.4,-0.94 0,-0.6 0.6,-0.6 0.75,-0.6 h 12.75 c 0.35,0 1,0 1,1 0,0.54 -0.45,0.54 -1.4,0.54 -1.84,0 -3.23,0 -3.23,0.9 0,0.3 0.1,0.55 0.14,0.85 z"
           id="path17058" /><path
           style="fill:#000000;stroke-width:0"
           d="m 503.13,401.82 -0.01,-0.06 -0.02,-0.07 -0.02,-0.07 -0.02,-0.08 -0.02,-0.07 -0.02,-0.08 -0.04,-0.16 -0.04,-0.16 -0.04,-0.16 -0.04,-0.16 -0.02,-0.07 -0.02,-0.08 -0.02,-0.08 -0.01,-0.07 -0.02,-0.07 -0.02,-0.07 -0.01,-0.07 -0.02,-0.06 -0.01,-0.06 -0.01,-0.06 -0.01,-0.05 -0.02,-0.05 0,-0.04 -0.01,-0.04 -0.01,-0.04 0,-0.03 0,-0.02 -0.01,-0.02 c 0,-0.77 0.63,-1.12 1.19,-1.12 0.63,0 1.19,0.46 1.36,0.77 0.17,0.31 0.45,1.43 0.63,2.16 0.17,0.66 0.56,2.27 0.77,3.14 0.2,0.76 0.41,1.53 0.59,2.33 0.38,1.5 0.38,1.57 1.08,2.65 1.12,1.71 2.86,3.7 5.58,3.7 1.95,0 2.06,-1.6 2.06,-2.44 0,-2.09 -1.5,-5.96 -2.06,-7.43 -0.39,-0.97 -0.52,-1.29 -0.52,-1.88 0,-1.85 1.53,-3 3.31,-3 3.48,0 5.02,4.81 5.02,5.33 0,0.46 -0.45,0.46 -0.56,0.46 -0.49,0 -0.52,-0.21 -0.66,-0.59 -0.81,-2.79 -2.3,-4.22 -3.7,-4.22 -0.73,0 -0.87,0.49 -0.87,1.22 0,0.8 0.17,1.25 0.8,2.82 0.42,1.08 1.85,4.78 1.85,6.73 0,0.56 0,2.03 -1.29,3.04 -0.59,0.45 -1.6,0.94 -3.24,0.94 -3.14,0 -5.06,-2.06 -6.18,-3.52 -0.27,2.96 -2.75,3.52 -4.53,3.52 -2.89,0 -4.84,-1.78 -5.89,-3.18 -0.24,2.41 -2.3,3.18 -3.73,3.18 -1.5,0 -2.3,-1.08 -2.76,-1.88 -0.76,-1.3 -1.25,-3.29 -1.25,-3.46 0,-0.45 0.49,-0.45 0.59,-0.45 0.49,0 0.52,0.11 0.77,1.05 0.52,2.05 1.18,3.76 2.54,3.76 0.91,0 1.16,-0.77 1.16,-1.71 0,-0.66 -0.32,-1.95 -0.56,-2.89 -0.25,-0.94 -0.6,-2.37 -0.77,-3.14 l -1.12,-4.46 c -0.14,-0.46 -0.34,-1.33 -0.34,-1.43 0,-0.77 0.62,-1.12 1.18,-1.12 0.63,0 1.19,0.46 1.36,0.77 0.17,0.31 0.45,1.43 0.63,2.16 0.17,0.66 0.56,2.27 0.76,3.14 0.21,0.76 0.43,1.53 0.6,2.33 0.38,1.43 0.45,1.71 1.46,3.14 0.98,1.4 2.62,3.21 5.23,3.21 2.03,0 2.06,-1.78 2.06,-2.44 0,-0.87 -0.1,-1.32 -0.59,-3.28 z"
           id="path17060" /><path
           style="fill:#000000;stroke-width:0"
           d="m 541.49,394.04 0,0.03 0,0.03 -0.01,0.01 0,0.02 0,0.01 -0.01,0.02 0,0.02 -0.01,0.01 -0.01,0.02 -0.01,0.02 -0.01,0.03 -0.01,0.02 -0.02,0.02 -0.02,0.03 -0.02,0.03 -0.02,0.03 -0.03,0.03 -0.03,0.04 -0.01,0.02 -0.02,0.02 -0.02,0.02 -0.02,0.02 -0.02,0.02 -0.02,0.03 -0.02,0.02 -0.02,0.02 -0.02,0.03 -0.03,0.02 -0.02,0.03 -0.03,0.03 -0.02,0.03 -0.03,0.03 -0.03,0.03 -0.03,0.03 -0.03,0.03 -0.03,0.03 -0.04,0.04 -0.03,0.03 -0.04,0.04 -0.03,0.03 -0.04,0.04 -0.04,0.04 c -6.23,6.28 -7.82,15.69 -7.82,23.31 0,8.67 1.9,17.34 8.02,23.57 0.65,0.59 0.65,0.69 0.65,0.84 0,0.35 -0.2,0.5 -0.5,0.5 -0.5,0 -4.98,-3.39 -7.92,-9.72 -2.54,-5.47 -3.14,-11 -3.14,-15.19 0,-3.88 0.55,-9.91 3.29,-15.54 2.99,-6.12 7.27,-9.36 7.77,-9.36 0.3,0 0.5,0.15 0.5,0.49 z"
           id="path17062" /><path
           style="fill:#000000;stroke-width:0"
           d="m 560.09,422.19 h 4.84 c 3.73,0 4.13,-0.8 4.13,-2.24 0,-0.35 0,-0.95 -0.35,-2.44 -0.1,-0.25 -0.15,-0.45 -0.15,-0.55 0,-0.4 0.3,-0.6 0.6,-0.6 0.5,0 0.5,0.15 0.75,1.05 l 2.74,10.8 c 0.15,0.56 0.15,0.65 0.15,0.8 0,0.1 -0.1,0.55 -0.6,0.55 -0.5,0 -0.55,-0.25 -0.75,-1.04 -1.04,-3.89 -2.19,-4.79 -6.43,-4.79 h -4.53 l 3.19,12.66 c 0.45,1.74 0.5,1.94 2.69,1.94 h 6.58 c 6.12,0 7.27,-1.65 7.27,-5.48 0,-1.15 0,-1.35 -0.15,-2.69 -0.1,-0.65 -0.1,-0.75 -0.1,-0.9 0,-0.25 0.15,-0.6 0.6,-0.6 0.54,0 0.59,0.3 0.7,1.25 l 0.99,8.62 c 0.15,1.34 -0.1,1.34 -1.35,1.34 h -24.4 c -1,0 -1.5,0 -1.5,-0.99 0,-0.55 0.45,-0.55 1.4,-0.55 1.84,0 3.24,0 3.24,-0.9 0,-0.2 0,-0.3 -0.25,-1.19 l -6.58,-26.35 c -0.5,-1.95 -0.6,-2.35 -4.53,-2.35 -0.85,0 -1.39,0 -1.39,-0.94 0,-0.6 0.59,-0.6 0.74,-0.6 h 14 c 0.45,0 1.04,0 1.04,0.95 0,0.39 -0.29,0.5 -0.29,0.55 -0.16,0.04 -0.25,0.04 -1.4,0.04 -1.09,0 -1.34,0 -2.59,0.1 -1.44,0.15 -1.6,0.35 -1.6,1 0,0.1 0,0.4 0.2,1.15 z"
           id="path17064" /><path
           style="fill:#000000;stroke-width:0"
           d="m 600.49,394.04 0,0.03 0,0.03 -0.01,0.01 0,0.02 0,0.01 -0.01,0.02 0,0.02 -0.01,0.01 -0.01,0.02 -0.01,0.02 -0.01,0.03 -0.01,0.02 -0.02,0.02 -0.02,0.03 -0.02,0.03 -0.02,0.03 -0.03,0.03 -0.03,0.04 -0.01,0.02 -0.02,0.02 -0.02,0.02 -0.02,0.02 -0.02,0.02 -0.02,0.03 -0.02,0.02 -0.02,0.02 -0.02,0.03 -0.03,0.02 -0.02,0.03 -0.03,0.03 -0.02,0.03 -0.03,0.03 -0.03,0.03 -0.03,0.03 -0.03,0.03 -0.03,0.03 -0.04,0.04 -0.03,0.03 -0.04,0.04 -0.03,0.03 -0.04,0.04 -0.04,0.04 c -6.23,6.28 -7.82,15.69 -7.82,23.31 0,8.67 1.9,17.34 8.02,23.57 0.65,0.59 0.65,0.69 0.65,0.84 0,0.35 -0.2,0.5 -0.5,0.5 -0.5,0 -4.98,-3.39 -7.92,-9.72 -2.54,-5.47 -3.14,-11 -3.14,-15.19 0,-3.88 0.55,-9.91 3.29,-15.54 2.99,-6.12 7.27,-9.36 7.77,-9.36 0.3,0 0.5,0.15 0.5,0.49 z"
           id="path17066" /><path
           style="fill:#000000;stroke-width:0"
           d="m 613.51,420.64 -0.17,0.04 -0.19,0.03 -0.19,0.04 -0.2,0.04 -0.2,0.04 -0.2,0.04 -0.42,0.1 -0.42,0.11 -0.22,0.06 -0.21,0.07 -0.2,0.07 -0.21,0.07 -0.2,0.08 -0.2,0.09 -0.19,0.09 -0.19,0.1 -0.18,0.1 -0.17,0.11 -0.16,0.12 -0.15,0.12 -0.14,0.14 -0.14,0.14 -0.11,0.15 -0.11,0.15 -0.09,0.17 -0.04,0.09 -0.04,0.09 -0.03,0.09 -0.03,0.09 -0.02,0.1 -0.02,0.09 -0.02,0.11 -0.01,0.1 -0.01,0.1 0,0.11 c 0,3.09 4.63,3.09 5.58,3.09 3.74,0 5.63,-1.44 5.88,-4.18 0.05,-0.75 0.09,-1 1.14,-1 1.2,0 1.2,0.25 1.2,1.39 v 3.99 c 0,0.95 0,1.4 -0.9,1.4 -0.2,0 -0.3,0 -2.24,-0.95 -1.3,0.65 -3.04,0.95 -5.03,0.95 -1.5,0 -9.16,0 -9.16,-6.53 0,-1.99 0.99,-3.34 1.99,-4.18 1.99,-1.75 3.88,-2.05 7.71,-2.74 1.8,-0.3 5.54,-0.95 5.54,-3.89 0,-3.73 -4.59,-3.73 -5.68,-3.73 -5.28,0 -6.58,3.63 -7.18,5.77 -0.25,0.7 -0.5,0.7 -1.19,0.7 -1.19,0 -1.19,-0.3 -1.19,-1.44 v -5.43 c 0,-0.95 0,-1.4 0.89,-1.4 0.35,0 0.45,0 1.49,0.75 0.05,0 1.15,0.75 1.3,0.85 2.29,-1.6 4.88,-1.6 5.88,-1.6 1.54,0 9.21,0 9.21,7.27 0,2.15 -0.99,3.89 -2.74,5.28 -1.94,1.45 -3.53,1.75 -7.42,2.39 z"
           id="path17068" /><path
           style="fill:#000000;stroke-width:0"
           d="m 640.4,418.45 -0.01,0.37 0,0.39 -0.01,0.39 -0.01,0.41 -0.04,0.84 -0.06,0.88 -0.09,0.92 -0.1,0.94 -0.14,0.98 -0.16,1 -0.2,1.02 -0.23,1.04 -0.27,1.05 -0.3,1.06 -0.35,1.06 -0.39,1.07 -0.22,0.53 -0.22,0.54 -0.24,0.53 -0.25,0.53 c -2.99,6.12 -7.27,9.36 -7.77,9.36 -0.3,0 -0.5,-0.2 -0.5,-0.5 0,-0.15 0,-0.25 0.94,-1.15 4.89,-4.92 7.73,-12.85 7.73,-23.26 0,-8.52 -1.85,-17.28 -8.02,-23.56 -0.65,-0.6 -0.65,-0.69 -0.65,-0.85 0,-0.29 0.2,-0.49 0.5,-0.49 0.5,0 4.98,3.38 7.92,9.71 2.54,5.48 3.14,11.01 3.14,15.19 z"
           id="path17070" /><path
           style="fill:#000000;stroke-width:0"
           d="m 659.4,418.45 -0.01,0.37 0,0.39 -0.01,0.39 -0.01,0.41 -0.04,0.84 -0.06,0.88 -0.09,0.92 -0.1,0.94 -0.14,0.98 -0.16,1 -0.2,1.02 -0.23,1.04 -0.27,1.05 -0.3,1.06 -0.35,1.06 -0.39,1.07 -0.22,0.53 -0.22,0.54 -0.24,0.53 -0.25,0.53 c -2.99,6.12 -7.27,9.36 -7.77,9.36 -0.3,0 -0.5,-0.2 -0.5,-0.5 0,-0.15 0,-0.25 0.94,-1.15 4.89,-4.92 7.73,-12.85 7.73,-23.26 0,-8.52 -1.85,-17.28 -8.02,-23.56 -0.65,-0.6 -0.65,-0.69 -0.65,-0.85 0,-0.29 0.2,-0.49 0.5,-0.49 0.5,0 4.98,3.38 7.92,9.71 2.54,5.48 3.14,11.01 3.14,15.19 z"
           id="path17072" /></g>    </g>
    <text
       id="text17126"
       y="164.78778"
       x="452.07751"
       style="font-size:7.44047642px;font-style:normal;font-variant:normal;font-weight:normal;font-stretch:normal;fill:#000000;fill-opacity:1;stroke:none;font-family:Nimbus Roman No9 L;-inkscape-font-specification:Nimbus Roman No9 L"
       xml:space="preserve"><tspan
         y="164.78778"
         x="452.07751"
         id="tspan17128"
         sodipodi:role="line">Re</tspan></text>
    <text
       xml:space="preserve"
       style="font-size:7.55287027px;font-style:normal;font-variant:normal;font-weight:normal;font-stretch:normal;fill:#000000;fill-opacity:1;stroke:none;font-family:Nimbus Roman No9 L;-inkscape-font-specification:Nimbus Roman No9 L"
       x="335.74402"
       y="50.341877"
       id="text17130"><tspan
         sodipodi:role="line"
         id="tspan17132"
         x="335.74402"
         y="50.341877">Im</tspan></text>
    <g
       id="g17170"
       transform="matrix(0.14153572,0,0,0.14153572,367.42026,106.54072)">
      <g
         word-spacing="normal"
         letter-spacing="normal"
         font-size-adjust="none"
         font-stretch="normal"
         font-weight="normal"
         font-variant="normal"
         font-style="normal"
         fill-rule="even-odd"
         stroke-miterlimit="10.433"
         xml:space="preserve"
         transform="matrix(1.0629921,0,0,-1.0629921,-186.02362,789.27165)"
         id="g17172"
         style="font-style:normal;font-variant:normal;font-weight:normal;font-stretch:normal;letter-spacing:normal;word-spacing:normal;text-anchor:start;fill:none;stroke:#000000;stroke-linecap:butt;stroke-linejoin:miter;stroke-miterlimit:10.43299961;stroke-opacity:1;stroke-dasharray:none;stroke-dashoffset:0"><path
           id="path17174"
           d="m 477.12,391.22 0.07,0 0.07,0 0.07,0 0.06,0 0.07,0 0.06,0 0.06,0 0.05,0 0.06,0 0.05,0.01 0.05,0 0.05,0 0.1,0 0.09,0.01 0.08,0.01 0.08,0.01 0.07,0.01 0.07,0.01 0.06,0.02 0.06,0.02 0.06,0.02 0.05,0.02 0.05,0.03 0.04,0.03 0.05,0.03 0.04,0.03 0.04,0.04 0.04,0.04 0.04,0.05 0.03,0.05 0.04,0.05 0.04,0.06 0.04,0.06 0.03,0.07 0.04,0.07 0.05,0.08 0.04,0.08 0.04,0.08 27.25,56.89 c 0.35,0.65 0.35,0.75 0.35,0.9 0,0.54 -0.4,0.99 -1,0.99 -0.65,0 -0.85,-0.45 -1.09,-0.99 l -25.7,-53.6 -10.62,24.71 -6.92,-5.34 0.75,-0.79 3.53,2.69 z"
           style="fill:#000000;stroke-width:0" /><polyline
           id="polyline17176"
           points="505,449 592.24,449 592.24,451.04 505,451.04 "
           style="fill:#000000;fill-rule:nonzero;stroke-width:0" /><path
           id="path17178"
           d="m 523.63,436.19 0.04,0.16 0.04,0.16 0.04,0.15 0.04,0.14 0.04,0.14 0.05,0.12 0.04,0.13 0.05,0.11 0.06,0.11 0.06,0.1 0.06,0.1 0.07,0.09 0.08,0.08 0.09,0.08 0.09,0.08 0.11,0.06 0.11,0.07 0.13,0.05 0.14,0.06 0.15,0.05 0.16,0.04 0.09,0.02 0.09,0.02 0.09,0.01 0.1,0.02 0.1,0.02 0.11,0.01 0.11,0.01 0.11,0.02 0.12,0.01 0.12,0.01 0.13,0.01 0.13,0.01 0.14,0.01 0.14,0 0.14,0.01 0.15,0 0.16,0.01 0.16,0 0.16,0 0.18,0.01 0.17,0 0.18,0 c 1.2,0 1.6,0 1.6,0.95 0,0.59 -0.55,0.59 -0.75,0.59 h -13.2 c -0.35,0 -1,0 -1,-0.99 0,-0.55 0.45,-0.55 1.4,-0.55 2.09,0 3.44,0 3.44,-0.95 0,-0.25 0,-0.35 -0.1,-0.8 l -6.73,-26.84 c -0.45,-1.85 -0.6,-2.35 -4.53,-2.35 -1.15,0 -1.59,0 -1.59,-0.99 0,-0.55 0.59,-0.55 0.74,-0.55 h 13.2 c 0.4,0 1,0 1,0.95 0,0.59 -0.4,0.59 -1.49,0.59 -0.9,0 -1.15,0 -2.15,0.1 -1.04,0.1 -1.24,0.3 -1.24,0.85 0,0.4 0.09,0.8 0.2,1.15 z"
           style="fill:#000000;stroke-width:0" /><path
           id="path17180"
           d="m 547.49,394.04 0,0.03 0,0.03 -0.01,0.01 0,0.02 0,0.01 -0.01,0.02 0,0.02 -0.01,0.01 -0.01,0.02 -0.01,0.02 -0.01,0.03 -0.01,0.02 -0.02,0.02 -0.02,0.03 -0.02,0.03 -0.02,0.03 -0.03,0.03 -0.03,0.04 -0.01,0.02 -0.02,0.02 -0.02,0.02 -0.02,0.02 -0.02,0.02 -0.02,0.03 -0.02,0.02 -0.02,0.02 -0.02,0.03 -0.03,0.02 -0.02,0.03 -0.03,0.03 -0.02,0.03 -0.03,0.03 -0.03,0.03 -0.03,0.03 -0.03,0.03 -0.03,0.03 -0.04,0.04 -0.03,0.03 -0.04,0.04 -0.03,0.03 -0.04,0.04 -0.04,0.04 c -6.23,6.28 -7.82,15.69 -7.82,23.31 0,8.67 1.9,17.34 8.02,23.57 0.65,0.59 0.65,0.69 0.65,0.84 0,0.35 -0.2,0.5 -0.5,0.5 -0.5,0 -4.98,-3.39 -7.92,-9.72 -2.54,-5.47 -3.14,-11 -3.14,-15.19 0,-3.88 0.55,-9.91 3.29,-15.54 2.99,-6.12 7.27,-9.36 7.77,-9.36 0.3,0 0.5,0.15 0.5,0.49 z"
           style="fill:#000000;stroke-width:0" /><path
           id="path17182"
           d="m 560.51,420.64 -0.17,0.04 -0.19,0.03 -0.19,0.04 -0.2,0.04 -0.2,0.04 -0.2,0.04 -0.42,0.1 -0.42,0.11 -0.22,0.06 -0.21,0.07 -0.2,0.07 -0.21,0.07 -0.2,0.08 -0.2,0.09 -0.19,0.09 -0.19,0.1 -0.18,0.1 -0.17,0.11 -0.16,0.12 -0.15,0.12 -0.14,0.14 -0.14,0.14 -0.11,0.15 -0.11,0.15 -0.09,0.17 -0.04,0.09 -0.04,0.09 -0.03,0.09 -0.03,0.09 -0.02,0.1 -0.02,0.09 -0.02,0.11 -0.01,0.1 -0.01,0.1 0,0.11 c 0,3.09 4.63,3.09 5.58,3.09 3.74,0 5.63,-1.44 5.88,-4.18 0.05,-0.75 0.09,-1 1.14,-1 1.2,0 1.2,0.25 1.2,1.39 v 3.99 c 0,0.95 0,1.4 -0.9,1.4 -0.2,0 -0.3,0 -2.24,-0.95 -1.3,0.65 -3.04,0.95 -5.03,0.95 -1.5,0 -9.16,0 -9.16,-6.53 0,-1.99 0.99,-3.34 1.99,-4.18 1.99,-1.75 3.88,-2.05 7.71,-2.74 1.8,-0.3 5.54,-0.95 5.54,-3.89 0,-3.73 -4.59,-3.73 -5.68,-3.73 -5.28,0 -6.58,3.63 -7.18,5.77 -0.25,0.7 -0.5,0.7 -1.19,0.7 -1.19,0 -1.19,-0.3 -1.19,-1.44 v -5.43 c 0,-0.95 0,-1.4 0.89,-1.4 0.35,0 0.45,0 1.49,0.75 0.05,0 1.15,0.75 1.3,0.85 2.29,-1.6 4.88,-1.6 5.88,-1.6 1.54,0 9.21,0 9.21,7.27 0,2.15 -0.99,3.89 -2.74,5.28 -1.94,1.45 -3.53,1.75 -7.42,2.39 z"
           style="fill:#000000;stroke-width:0" /><path
           id="path17184"
           d="m 587.4,418.45 -0.01,0.37 0,0.39 -0.01,0.39 -0.01,0.41 -0.04,0.84 -0.06,0.88 -0.09,0.92 -0.1,0.94 -0.14,0.98 -0.16,1 -0.2,1.02 -0.23,1.04 -0.27,1.05 -0.3,1.06 -0.35,1.06 -0.39,1.07 -0.22,0.53 -0.22,0.54 -0.24,0.53 -0.25,0.53 c -2.99,6.12 -7.27,9.36 -7.77,9.36 -0.3,0 -0.5,-0.2 -0.5,-0.5 0,-0.15 0,-0.25 0.94,-1.15 4.89,-4.92 7.73,-12.85 7.73,-23.26 0,-8.52 -1.85,-17.28 -8.02,-23.56 -0.65,-0.6 -0.65,-0.69 -0.65,-0.85 0,-0.29 0.2,-0.49 0.5,-0.49 0.5,0 4.98,3.38 7.92,9.71 2.54,5.48 3.14,11.01 3.14,15.19 z"
           style="fill:#000000;stroke-width:0" /></g>    </g>
    <path
       transform="matrix(0.55059081,0,0,0.55059081,202.99718,106.50251)"
       d="m 376.83536,101.45406 a 0.90811867,0.90811867 0 1 1 -1.81623,0 0.90811867,0.90811867 0 1 1 1.81623,0 z"
       sodipodi:ry="0.90811867"
       sodipodi:rx="0.90811867"
       sodipodi:cy="101.45406"
       sodipodi:cx="375.92725"
       id="path17414"
       style="fill:#000000;fill-opacity:1;stroke:#000000;stroke-width:1.90704236;stroke-miterlimit:4;stroke-opacity:1;stroke-dasharray:none"
       sodipodi:type="arc" />
    <path
       id="path17416"
       d="m 340.00484,162.35734 35.54773,-61.57047"
       style="fill:none;stroke:#000000;stroke-width:0.49872038;stroke-linecap:butt;stroke-linejoin:miter;stroke-miterlimit:4;stroke-opacity:1;stroke-dasharray:none;marker-end:url(#DotM)" />
  </g>
</svg>
