<?xml version="1.0" encoding="UTF-8" standalone="no"?>
<!-- Created with Inkscape (http://www.inkscape.org/) -->

<svg
   xmlns:dc="http://purl.org/dc/elements/1.1/"
   xmlns:cc="http://creativecommons.org/ns#"
   xmlns:rdf="http://www.w3.org/1999/02/22-rdf-syntax-ns#"
   xmlns:svg="http://www.w3.org/2000/svg"
   xmlns="http://www.w3.org/2000/svg"
   xmlns:sodipodi="http://sodipodi.sourceforge.net/DTD/sodipodi-0.dtd"
   xmlns:inkscape="http://www.inkscape.org/namespaces/inkscape"
   width="744.09448819"
   height="1052.3622047"
   id="svg2"
   version="1.1"
   inkscape:version="0.47 r22583"
   sodipodi:docname="convexity.pdf">
  <defs
     id="defs4">
    <inkscape:perspective
       sodipodi:type="inkscape:persp3d"
       inkscape:vp_x="0 : 526.18109 : 1"
       inkscape:vp_y="0 : 1000 : 0"
       inkscape:vp_z="744.09448 : 526.18109 : 1"
       inkscape:persp3d-origin="372.04724 : 350.78739 : 1"
       id="perspective10" />
    <clipPath
       id="clipPath2926"
       clipPathUnits="userSpaceOnUse">
      <path
         id="path2928"
         clip-rule="evenodd"
         d="m 752,181 0,2976 4800,0 0,-2976" />
    </clipPath>
    <clipPath
       id="clipPath2910"
       clipPathUnits="userSpaceOnUse">
      <path
         id="path2912"
         clip-rule="evenodd"
         d="m 752,181 0,2976 4800,0 0,-2976" />
    </clipPath>
    <clipPath
       id="clipPath2902"
       clipPathUnits="userSpaceOnUse">
      <path
         id="path2904"
         clip-rule="evenodd"
         d="m 752,181 0,2976 4800,0 0,-2976" />
    </clipPath>
    <clipPath
       id="clipPath2894"
       clipPathUnits="userSpaceOnUse">
      <path
         id="path2896"
         clip-rule="evenodd"
         d="m 752,181 0,2976 4800,0 0,-2976" />
    </clipPath>
    <clipPath
       id="clipPath2886"
       clipPathUnits="userSpaceOnUse">
      <path
         id="path2888"
         clip-rule="evenodd"
         d="m 752,181 0,2976 4800,0 0,-2976" />
    </clipPath>
    <clipPath
       id="clipPath2874"
       clipPathUnits="userSpaceOnUse">
      <path
         id="path2876"
         clip-rule="evenodd"
         d="m 752,192 0,2965 4800,0 0,-2965" />
    </clipPath>
    <inkscape:perspective
       id="perspective2866"
       inkscape:persp3d-origin="0.5 : 0.33333333 : 1"
       inkscape:vp_z="1 : 0.5 : 1"
       inkscape:vp_y="0 : 1000 : 0"
       inkscape:vp_x="0 : 0.5 : 1"
       sodipodi:type="inkscape:persp3d" />
    <clipPath
       id="clipPath3051"
       clipPathUnits="userSpaceOnUse">
      <path
         id="path3053"
         clip-rule="evenodd"
         d="m 752,181 0,2976 4800,0 0,-2976" />
    </clipPath>
    <clipPath
       id="clipPath3035"
       clipPathUnits="userSpaceOnUse">
      <path
         id="path3037"
         clip-rule="evenodd"
         d="m 752,181 0,2976 4800,0 0,-2976" />
    </clipPath>
    <clipPath
       id="clipPath3027"
       clipPathUnits="userSpaceOnUse">
      <path
         id="path3029"
         clip-rule="evenodd"
         d="m 752,181 0,2976 4800,0 0,-2976" />
    </clipPath>
    <clipPath
       id="clipPath3019"
       clipPathUnits="userSpaceOnUse">
      <path
         id="path3021"
         clip-rule="evenodd"
         d="m 752,181 0,2976 4800,0 0,-2976" />
    </clipPath>
    <clipPath
       id="clipPath3011"
       clipPathUnits="userSpaceOnUse">
      <path
         id="path3013"
         clip-rule="evenodd"
         d="m 752,181 0,2976 4800,0 0,-2976" />
    </clipPath>
    <clipPath
       id="clipPath2999"
       clipPathUnits="userSpaceOnUse">
      <path
         id="path3001"
         clip-rule="evenodd"
         d="m 752,192 0,2965 4800,0 0,-2965" />
    </clipPath>
    <inkscape:perspective
       id="perspective2991"
       inkscape:persp3d-origin="0.5 : 0.33333333 : 1"
       inkscape:vp_z="1 : 0.5 : 1"
       inkscape:vp_y="0 : 1000 : 0"
       inkscape:vp_x="0 : 0.5 : 1"
       sodipodi:type="inkscape:persp3d" />
    <clipPath
       id="clipPath3176"
       clipPathUnits="userSpaceOnUse">
      <path
         id="path3178"
         clip-rule="evenodd"
         d="m 752,182 0,2976 4800,0 0,-2976" />
    </clipPath>
    <clipPath
       id="clipPath3160"
       clipPathUnits="userSpaceOnUse">
      <path
         id="path3162"
         clip-rule="evenodd"
         d="m 752,182 0,2976 4800,0 0,-2976" />
    </clipPath>
    <clipPath
       id="clipPath3152"
       clipPathUnits="userSpaceOnUse">
      <path
         id="path3154"
         clip-rule="evenodd"
         d="m 752,182 0,2976 4800,0 0,-2976" />
    </clipPath>
    <clipPath
       id="clipPath3144"
       clipPathUnits="userSpaceOnUse">
      <path
         id="path3146"
         clip-rule="evenodd"
         d="m 752,182 0,2976 4800,0 0,-2976" />
    </clipPath>
    <clipPath
       id="clipPath3136"
       clipPathUnits="userSpaceOnUse">
      <path
         id="path3138"
         clip-rule="evenodd"
         d="m 752,182 0,2976 4800,0 0,-2976" />
    </clipPath>
    <clipPath
       id="clipPath3124"
       clipPathUnits="userSpaceOnUse">
      <path
         id="path3126"
         clip-rule="evenodd"
         d="m 752,192 0,2966 4800,0 0,-2966" />
    </clipPath>
    <inkscape:perspective
       id="perspective3116"
       inkscape:persp3d-origin="0.5 : 0.33333333 : 1"
       inkscape:vp_z="1 : 0.5 : 1"
       inkscape:vp_y="0 : 1000 : 0"
       inkscape:vp_x="0 : 0.5 : 1"
       sodipodi:type="inkscape:persp3d" />
    <clipPath
       id="clipPath3301"
       clipPathUnits="userSpaceOnUse">
      <path
         id="path3303"
         clip-rule="evenodd"
         d="m 752,182 0,2976 4800,0 0,-2976" />
    </clipPath>
    <clipPath
       id="clipPath3285"
       clipPathUnits="userSpaceOnUse">
      <path
         id="path3287"
         clip-rule="evenodd"
         d="m 752,182 0,2976 4800,0 0,-2976" />
    </clipPath>
    <clipPath
       id="clipPath3277"
       clipPathUnits="userSpaceOnUse">
      <path
         id="path3279"
         clip-rule="evenodd"
         d="m 752,182 0,2976 4800,0 0,-2976" />
    </clipPath>
    <clipPath
       id="clipPath3269"
       clipPathUnits="userSpaceOnUse">
      <path
         id="path3271"
         clip-rule="evenodd"
         d="m 752,182 0,2976 4800,0 0,-2976" />
    </clipPath>
    <clipPath
       id="clipPath3261"
       clipPathUnits="userSpaceOnUse">
      <path
         id="path3263"
         clip-rule="evenodd"
         d="m 752,182 0,2976 4800,0 0,-2976" />
    </clipPath>
    <clipPath
       id="clipPath3249"
       clipPathUnits="userSpaceOnUse">
      <path
         id="path3251"
         clip-rule="evenodd"
         d="m 752,192 0,2966 4800,0 0,-2966" />
    </clipPath>
    <inkscape:perspective
       id="perspective3241"
       inkscape:persp3d-origin="0.5 : 0.33333333 : 1"
       inkscape:vp_z="1 : 0.5 : 1"
       inkscape:vp_y="0 : 1000 : 0"
       inkscape:vp_x="0 : 0.5 : 1"
       sodipodi:type="inkscape:persp3d" />
    <clipPath
       id="clipPath3430"
       clipPathUnits="userSpaceOnUse">
      <path
         id="path3432"
         clip-rule="evenodd"
         d="m 752,184 0,2976 4800,0 0,-2976" />
    </clipPath>
    <clipPath
       id="clipPath3410"
       clipPathUnits="userSpaceOnUse">
      <path
         id="path3412"
         clip-rule="evenodd"
         d="m 752,184 0,2976 4800,0 0,-2976" />
    </clipPath>
    <clipPath
       id="clipPath3402"
       clipPathUnits="userSpaceOnUse">
      <path
         id="path3404"
         clip-rule="evenodd"
         d="m 752,184 0,2976 4800,0 0,-2976" />
    </clipPath>
    <clipPath
       id="clipPath3394"
       clipPathUnits="userSpaceOnUse">
      <path
         id="path3396"
         clip-rule="evenodd"
         d="m 752,184 0,2976 4800,0 0,-2976" />
    </clipPath>
    <clipPath
       id="clipPath3386"
       clipPathUnits="userSpaceOnUse">
      <path
         id="path3388"
         clip-rule="evenodd"
         d="m 752,184 0,2976 4800,0 0,-2976" />
    </clipPath>
    <clipPath
       id="clipPath3374"
       clipPathUnits="userSpaceOnUse">
      <path
         id="path3376"
         clip-rule="evenodd"
         d="m 752,192 0,2968 4800,0 0,-2968" />
    </clipPath>
    <inkscape:perspective
       id="perspective3366"
       inkscape:persp3d-origin="0.5 : 0.33333333 : 1"
       inkscape:vp_z="1 : 0.5 : 1"
       inkscape:vp_y="0 : 1000 : 0"
       inkscape:vp_x="0 : 0.5 : 1"
       sodipodi:type="inkscape:persp3d" />
    <clipPath
       id="clipPath3505"
       clipPathUnits="userSpaceOnUse">
      <path
         id="path3507"
         clip-rule="evenodd"
         d="m 752,192 0,2976 4800,0 0,-2976" />
    </clipPath>
    <inkscape:perspective
       id="perspective3497"
       inkscape:persp3d-origin="0.5 : 0.33333333 : 1"
       inkscape:vp_z="1 : 0.5 : 1"
       inkscape:vp_y="0 : 1000 : 0"
       inkscape:vp_x="0 : 0.5 : 1"
       sodipodi:type="inkscape:persp3d" />
    <clipPath
       id="clipPath3591"
       clipPathUnits="userSpaceOnUse">
      <path
         id="path3593"
         clip-rule="evenodd"
         d="m 752,192 0,2976 4800,0 0,-2976" />
    </clipPath>
    <inkscape:perspective
       id="perspective3583"
       inkscape:persp3d-origin="0.5 : 0.33333333 : 1"
       inkscape:vp_z="1 : 0.5 : 1"
       inkscape:vp_y="0 : 1000 : 0"
       inkscape:vp_x="0 : 0.5 : 1"
       sodipodi:type="inkscape:persp3d" />
    <clipPath
       id="clipPath3677"
       clipPathUnits="userSpaceOnUse">
      <path
         id="path3679"
         clip-rule="evenodd"
         d="m 752,192 0,2976 4800,0 0,-2976" />
    </clipPath>
    <inkscape:perspective
       id="perspective3669"
       inkscape:persp3d-origin="0.5 : 0.33333333 : 1"
       inkscape:vp_z="1 : 0.5 : 1"
       inkscape:vp_y="0 : 1000 : 0"
       inkscape:vp_x="0 : 0.5 : 1"
       sodipodi:type="inkscape:persp3d" />
    <clipPath
       id="clipPath3763"
       clipPathUnits="userSpaceOnUse">
      <path
         id="path3765"
         clip-rule="evenodd"
         d="m 752,192 0,2976 4800,0 0,-2976" />
    </clipPath>
    <inkscape:perspective
       id="perspective3755"
       inkscape:persp3d-origin="0.5 : 0.33333333 : 1"
       inkscape:vp_z="1 : 0.5 : 1"
       inkscape:vp_y="0 : 1000 : 0"
       inkscape:vp_x="0 : 0.5 : 1"
       sodipodi:type="inkscape:persp3d" />
    <clipPath
       id="clipPath3849"
       clipPathUnits="userSpaceOnUse">
      <path
         id="path3851"
         clip-rule="evenodd"
         d="m 752,192 0,4800 4800,0 0,-4800" />
    </clipPath>
    <inkscape:perspective
       id="perspective3841"
       inkscape:persp3d-origin="0.5 : 0.33333333 : 1"
       inkscape:vp_z="1 : 0.5 : 1"
       inkscape:vp_y="0 : 1000 : 0"
       inkscape:vp_x="0 : 0.5 : 1"
       sodipodi:type="inkscape:persp3d" />
    <clipPath
       id="clipPath3935"
       clipPathUnits="userSpaceOnUse">
      <path
         id="path3937"
         clip-rule="evenodd"
         d="m 752,192 0,4800 4800,0 0,-4800" />
    </clipPath>
    <inkscape:perspective
       id="perspective3927"
       inkscape:persp3d-origin="0.5 : 0.33333333 : 1"
       inkscape:vp_z="1 : 0.5 : 1"
       inkscape:vp_y="0 : 1000 : 0"
       inkscape:vp_x="0 : 0.5 : 1"
       sodipodi:type="inkscape:persp3d" />
    <clipPath
       id="clipPath4021"
       clipPathUnits="userSpaceOnUse">
      <path
         id="path4023"
         clip-rule="evenodd"
         d="m 752,192 0,4800 4800,0 0,-4800" />
    </clipPath>
    <inkscape:perspective
       id="perspective4013"
       inkscape:persp3d-origin="0.5 : 0.33333333 : 1"
       inkscape:vp_z="1 : 0.5 : 1"
       inkscape:vp_y="0 : 1000 : 0"
       inkscape:vp_x="0 : 0.5 : 1"
       sodipodi:type="inkscape:persp3d" />
    <clipPath
       id="clipPath4107"
       clipPathUnits="userSpaceOnUse">
      <path
         id="path4109"
         clip-rule="evenodd"
         d="m 752,192 0,4800 4800,0 0,-4800" />
    </clipPath>
    <inkscape:perspective
       id="perspective4099"
       inkscape:persp3d-origin="0.5 : 0.33333333 : 1"
       inkscape:vp_z="1 : 0.5 : 1"
       inkscape:vp_y="0 : 1000 : 0"
       inkscape:vp_x="0 : 0.5 : 1"
       sodipodi:type="inkscape:persp3d" />
    <clipPath
       id="clipPath4313"
       clipPathUnits="userSpaceOnUse">
      <path
         id="path4315"
         clip-rule="evenodd"
         d="m 752,192 0,4800 4800,0 0,-4800" />
    </clipPath>
    <inkscape:perspective
       id="perspective4305"
       inkscape:persp3d-origin="0.5 : 0.33333333 : 1"
       inkscape:vp_z="1 : 0.5 : 1"
       inkscape:vp_y="0 : 1000 : 0"
       inkscape:vp_x="0 : 0.5 : 1"
       sodipodi:type="inkscape:persp3d" />
  </defs>
  <sodipodi:namedview
     id="base"
     pagecolor="#ffffff"
     bordercolor="#666666"
     borderopacity="1.0"
     inkscape:pageopacity="0.0"
     inkscape:pageshadow="2"
     inkscape:zoom="0.7"
     inkscape:cx="548.21563"
     inkscape:cy="841.21831"
     inkscape:document-units="px"
     inkscape:current-layer="layer1"
     showgrid="true"
     inkscape:window-width="1513"
     inkscape:window-height="904"
     inkscape:window-x="105"
     inkscape:window-y="67"
     inkscape:window-maximized="0">
    <inkscape:grid
       type="xygrid"
       id="grid4274" />
  </sodipodi:namedview>
  <metadata
     id="metadata7">
    <rdf:RDF>
      <cc:Work
         rdf:about="">
        <dc:format>image/svg+xml</dc:format>
        <dc:type
           rdf:resource="http://purl.org/dc/dcmitype/StillImage" />
        <dc:title></dc:title>
      </cc:Work>
    </rdf:RDF>
  </metadata>
  <g
     inkscape:label="Layer 1"
     inkscape:groupmode="layer"
     id="layer1">
    <g
       id="g4172"
       transform="translate(-385.71429,165.71429)">
      <g
         id="g4101"
         inkscape:label="LinearObjectiveFunction"
         transform="matrix(1.25,0,0,-1.25,127.6676,314.56245)">
        <g
           id="g4103"
           transform="matrix(0.0625,0,0,-0.0625,-47,312)">
          <g
             id="g4105"
             clip-path="url(#clipPath4107)">
            <g
               id="g4111">
              <path
                 d="m 752,192 4800,0 0,4800 -4800,0 0,-4800 z"
                 style="fill:#ffffff;fill-opacity:1;fill-rule:evenodd;stroke:none"
                 id="path4113" />
            </g>
            <g
               id="g4115">
              <g
                 id="g4117" />
              <g
                 id="g4119" />
              <g
                 id="g4121">
                <path
                   d="m 764,1756 0,3224 4776,0 0,-2269 0,0 0,0 0,1 0,0 0,0 0,0 0,0 -1,0 0,0 0,0 0,0 0,1 0,0 0,0 0,0 0,0 -1,1 -1,0 0,0 0,0 0,0 0,0 -102,102 -94,94 -101,101 -92,93 -95,95 -101,101 -94,94 -100,100 -102,102 -95,94 -101,101 -93,93 -95,95 -101,102 -94,94 -101,100 -92,93 -95,94 -51,51 -25,25 -13,13 -6,6 -3,4 -2,1 -1,2 -24,23 -11,12 -6,6 -3,2 -1,2 -2,1 -6,6 -3,3 -1,2 -2,1 -1,-2 -2,-1 -1,-2 -1,-1 -3,-3 -2,-2 -1,-1 -6,-6 -3,-3 -2,-1 -1,-2 -6,-6 -3,-2 -1,-2 -2,-1 -25,-25 -12,-13 -6,-6 -4,-3 -1,-2 -2,-1 -25,-25 -12,-13 -6,-6 -4,-3 -1,-2 -2,-2 -102,-101 -94,-95 -101,-100 -93,-93 -94,-95 -102,-102 -94,-93 -100,-101 -102,-102 -95,-94 -101,-101 -93,-94 -100,-99 -102,-102 -93,-94 -101,-101 -93,-93 -95,-94 -101,-102 -93,-93 -101,-100 -102,-102 -94,-95 -101,-101 -93,-93 -95,-94 -101,-102 -47,-47 -24,-23 -11,-12 -6,-6 -3,-3 -2,-1"
                   style="fill:#3f3d99;fill-opacity:0.2;fill-rule:evenodd;stroke:none"
                   id="path4123" />
                <path
                   d="m 764,1756 1,2 2,1 3,3 6,6 11,12 24,23 47,47 101,102 95,94 93,93 101,101 94,95 102,102 101,100 93,93 101,102 95,94 93,93 101,101 93,94 102,102 100,99 93,94 101,101 95,94 102,102 100,101 94,93 102,102 94,95 93,93 101,100 94,95 102,101 2,2 1,2 4,3 6,6 12,13 25,25 2,1 1,2 4,3 6,6 12,13 25,25 2,1 1,2 3,2 6,6 1,2 2,1 3,3 6,6 1,1 2,2 3,3 1,1 1,2 2,1 1,2 2,-1 1,-2 3,-3 6,-6 2,-1 1,-2 3,-2 6,-6 11,-12 24,-23 1,-2 2,-1 3,-4 6,-6 13,-13 25,-25 51,-51 95,-94 92,-93 101,-100 94,-94 101,-102 95,-95 93,-93 101,-101 95,-94 102,-102 100,-100 94,-94 101,-101 95,-95 92,-93 101,-101 94,-94 102,-102 0,0 0,0 0,0 0,0 1,0 1,-1 0,0 0,0 0,0 0,0 0,-1 0,0 0,0 0,0 1,0 0,0 0,0 0,0 0,0 0,-1 0,0 0,0"
                   style="fill:none;stroke:#3f3d99;stroke-width:48;stroke-linecap:square;stroke-linejoin:miter;stroke-miterlimit:3.23930693;stroke-opacity:1;stroke-dasharray:none"
                   id="path4125" />
              </g>
              <path
                 d="m 5540,4980 -4776,0"
                 style="fill:none;stroke:#000000;stroke-width:24;stroke-linecap:square;stroke-linejoin:miter;stroke-miterlimit:3.23930693;stroke-opacity:1;stroke-dasharray:none"
                 id="path4127" />
              <path
                 d="M 764,4980 764,204"
                 style="fill:none;stroke:#000000;stroke-width:24;stroke-linecap:square;stroke-linejoin:miter;stroke-miterlimit:3.23930693;stroke-opacity:1;stroke-dasharray:none"
                 id="path4129" />
              <path
                 d="m 764,204 4776,0"
                 style="fill:none;stroke:#000000;stroke-width:24;stroke-linecap:square;stroke-linejoin:miter;stroke-miterlimit:3.23930693;stroke-opacity:1;stroke-dasharray:none"
                 id="path4131" />
              <path
                 d="m 5540,204 0,4776"
                 style="fill:none;stroke:#000000;stroke-width:24;stroke-linecap:square;stroke-linejoin:miter;stroke-miterlimit:3.23930693;stroke-opacity:1;stroke-dasharray:none"
                 id="path4133" />
              <g
                 id="g4135" />
            </g>
          </g>
        </g>
      </g>
      <text
         sodipodi:linespacing="125%"
         id="text4156"
         y="-12.196464"
         x="147.48227"
         style="font-size:40px;font-style:normal;font-variant:normal;font-weight:normal;font-stretch:normal;text-align:start;line-height:125%;writing-mode:lr-tb;text-anchor:start;fill:#000000;fill-opacity:1;stroke:none;font-family:Nimbus Roman No9 L;-inkscape-font-specification:Nimbus Roman No9 L"
         xml:space="preserve"><tspan
           y="-12.196464"
           x="147.48227"
           id="tspan4158"
           sodipodi:role="line">a)</tspan></text>
    </g>
    <g
       id="g4404"
       transform="translate(-25.091125,0)">
      <g
         id="g4015"
         inkscape:label="ConvexObjectiveFunction"
         transform="matrix(1.25,0,0,-1.25,186.06778,480.27674)">
        <g
           id="g4017"
           transform="matrix(0.0625,0,0,-0.0625,-47,312)">
          <g
             id="g4019"
             clip-path="url(#clipPath4021)">
            <g
               id="g4025">
              <path
                 d="m 752,192 4800,0 0,4800 -4800,0 0,-4800 z"
                 style="fill:#ffffff;fill-opacity:1;fill-rule:evenodd;stroke:none"
                 id="path4027" />
            </g>
            <g
               id="g4029">
              <g
                 id="g4031" />
              <g
                 id="g4033" />
              <g
                 id="g4035">
                <path
                   d="m 764,1817 0,3163 4776,0 0,-3163 0,0 0,0 0,0 0,0 0,1 0,0 0,0 -1,1 0,0 0,0 0,1 0,1 0,1 0,0 0,0 0,1 -1,3 -1,1 0,1 0,0 0,0 0,1 -25,99 -13,48 -7,24 -3,11 -1,6 -2,5 -25,86 -13,38 -6,17 -4,9 -1,4 -2,4 -12,29 -5,13 -3,6 -2,3 -1,3 -6,11 -3,6 -2,3 -1,2 -6,10 -3,5 -1,2 -2,2 -6,9 -3,3 -1,2 -2,2 -5,7 -3,3 -2,2 -1,1 -6,6 -3,2 -2,2 -1,1 -3,2 -1,1 -2,1 -3,2 -1,1 -2,1 -6,4 -3,1 -2,1 -1,1 -4,1 -1,1 -2,0 -3,1 -1,1 -2,0 -6,2 -3,1 -2,0 -2,1 -3,0 -1,1 -2,0 -3,1 -2,0 -1,0 -13,3 -6,1 -3,1 -2,0 -1,0 -7,2 -3,1 -1,0 -2,1 -3,1 -2,0 -1,1 -3,1 -2,1 -2,0 -5,3 -3,2 -2,0 -1,1 -3,2 -2,1 -1,1 -3,2 -1,1 -2,1 -6,4 -2,3 -2,1 -1,1 -6,6 -3,3 -2,1 -1,2 -6,7 -3,3 -1,2 -2,2 -5,8 -3,4 -2,2 -1,2 -6,9 -3,5 -1,3 -2,2 -6,11 -2,5 -2,3 -1,3 -12,24 -6,13 -3,7 -2,3 -1,4 -12,28 -6,16 -3,7 -1,4 -2,4 -12,33 -5,17 -3,8 -2,5 -1,4 -12,35 -6,18 -3,9 -2,4 -1,4 -51,152 -25,70 -13,31 -6,15 -3,7 -2,4 -1,3 -12,25 -6,12 -3,5 -1,3 -2,3 -12,20 -5,9 -3,4 -2,2 -1,2 -12,15 -6,7 -3,3 -1,2 -2,1 -5,6 -3,2 -2,2 -1,1 -6,4 -3,2 -2,1 -1,1 -6,4 -3,2 -2,1 -2,0 -3,2 -1,1 -2,0 -3,1 -2,1 -1,1 -3,1 -2,0 -1,1 -4,0 -1,1 -2,0 -3,1 -1,0 -2,0 -1,1 -2,0 -2,0 -1,0 -3,1 -2,0 -1,0 -2,0 -2,1 -1,0 -2,0 -3,0 -1,0 -2,0 -2,0 -1,1 -2,0 -1,0 -3,0 -2,0 -2,0 -3,0 -1,0 -2,0 -3,0 -1,0 -2,1 -3,0 -2,0 -1,0 -4,0 -1,0 -2,0 -1,1 -2,0 -1,0 -2,0 -3,0 -2,1 -1,0 -2,0 -2,0 -1,1 -2,0 -3,1 -2,0 -1,0 -3,1 -2,0 -2,1 -3,1 -1,0 -2,1 -3,1 -2,0 -1,1 -7,2 -3,2 -2,0 -1,1 -3,2 -2,1 -2,1 -3,1 -1,1 -2,1 -6,4 -3,3 -2,1 -2,1 -6,5 -3,2 -2,2 -1,1 -12,11 -6,6 -3,3 -2,1 -1,2 -12,13 -6,7 -3,4 -1,2 -2,2 -11,15 -6,8 -3,4 -2,2 -1,2 -12,17 -6,8 -3,5 -1,2 -2,2 -25,37 -13,18 -6,9 -3,4 -2,2 -1,2 -25,33 -13,15 -6,6 -4,4 -1,1 -2,2 -11,11 -6,5 -3,3 -2,1 -1,1 -6,4 -3,3 -1,1 -2,1 -5,3 -3,2 -2,1 -1,1 -6,3 -3,2 -1,1 -2,0 -6,3 -3,1 -1,1 -2,1 -5,2 -3,1 -2,0 -1,1 -6,2 -3,0 -1,1 -2,0 -6,2 -3,0 -1,1 -2,0 -3,1 -1,0 -2,0 -3,1 -1,0 -2,0 -5,1 -3,0 -2,1 -1,0 -6,1 -3,0 -2,0 -1,0 -12,2 -6,1 -3,0 -2,1 -1,0 -6,1 -3,0 -1,1 -2,0 -3,1 -1,0 -2,0 -3,1 -1,0 -2,1 -6,2 -3,1 -2,0 -1,1 -4,1 -1,1 -2,0 -3,2 -2,0 -1,1 -7,3 -3,2 -1,0 -2,1 -6,4 -3,2 -2,1 -2,1 -6,5 -3,2 -2,1 -1,2 -7,5 -3,3 -1,1 -2,2 -6,6 -4,3 -1,2 -2,2 -6,7 -3,3 -2,2 -1,2 -12,15 -6,8 -3,5 -1,2 -2,2 -12,18 -5,9 -3,5 -2,2 -1,3 -12,20 -6,11 -3,5 -1,3 -2,2 -12,23 -5,11 -3,6 -2,3 -1,3 -25,51 -13,26 -6,13 -3,7 -2,3 -2,3 -25,52 -12,26 -7,12 -3,7 -1,3 -2,3 -46,85 -23,37 -12,18 -6,8 -3,4 -1,2 -1,2 -24,31 -12,14 -6,7 -3,3 -1,2 -2,2 -23,24 -12,12 -6,5 -3,3 -2,1 -1,1 -25,22 -13,10 -6,5 -3,2 -2,1 -2,1 -25,19 -13,9 -6,4 -3,2 -2,1 -1,1 -24,15 -11,8 -6,3 -3,2 -1,1 -2,1 -23,13 -12,7 -6,3 -3,1 -1,1 -2,1 -25,12 -12,6 -6,3 -4,1 -1,1 -2,0 -25,11 -12,4 -6,2 -4,1 -1,1 -2,0 -25,9 -13,4 -6,1 -4,1 -1,1 -2,0 -25,8 -13,4 -6,2 -4,1 -1,1 -2,0 -23,9 -12,4 -6,3 -3,1 -1,1 -2,0 -12,6 -5,3 -3,1 -2,1 -1,1 -12,6 -6,3 -3,2 -1,1 -2,0 -25,16 -13,9 -6,5 -3,2 -2,1 -1,1 -25,20 -13,10 -6,5 -3,3 -2,1 -2,2 -23,19 -11,10 -6,5 -3,2 -2,1 -1,1 -6,4 -3,2 -1,1 -2,0 -6,4 -2,2 -2,0 -1,1 -12,7 -6,3 -3,2 -1,1 -2,0 -23,13 -12,7 -6,3 -3,2 -1,0 -2,1 -24,13 -11,6 -6,3 -3,1 -2,1 -1,1 -26,12 -12,5 -7,3 -3,2 -2,0 -1,1 -13,5 -6,2 -3,1 -2,1 -1,1 -13,4 -7,2 -3,1 -1,0 -2,0 -6,2 -3,1 -1,0 -2,0 -5,2 -3,0 -2,0 -1,1 -6,1 -3,0 -2,0 -1,1 -3,0 -1,0 -2,0 -3,1 -1,0 -2,0 -1,0 -2,0 -1,0 -2,0 -1,0 -1,0 -2,0 -1,0 -2,1 -1,0 -2,0 -1,0 -2,0 -1,0 -2,0 -1,-1 -2,0 -1,0 -2,0 -1,0 -1,0 -2,0 -1,0 -2,0 -3,0 -1,-1 -2,0 -1,0 -2,0 -1,0 -2,0 -3,-1 -1,0 -2,0 -3,-1 -2,0 -1,0 -3,-1 -2,0 -1,-1 -3,-1 -2,0 -2,0 -6,-2 -3,-1 -2,0 -1,-1 -6,-2 -4,-1 -1,0 -2,-1 -12,-5 -7,-2 -3,-2 -1,0 -2,-1 -12,-6 -7,-3 -3,-2 -1,-1 -2,0 -25,-14 -13,-8 -7,-4 -3,-2 -1,-1 -2,-1 -26,-15 -12,-8 -7,-4 -3,-2 -2,-1 -1,-1 -47,-28 -24,-14 -12,-7 -6,-3 -3,-2 -1,-1 -2,-1 -25,-15 -12,-8 -7,-5 -3,-2 -1,-1 -2,-1 -25,-19 -13,-10 -6,-6 -3,-2 -2,-2 -2,-1 -23,-23 -12,-13 -5,-6 -3,-3 -2,-2 -1,-2 -12,-14 -6,-7 -3,-4 -1,-2 -1,-2 -12,-16 -6,-8 -3,-4 -1,-2 -2,-2 -25,-37 -12,-20 -7,-10 -3,-5 -1,-2 -2,-3 -25,-41 -12,-20 -6,-11 -4,-5 -1,-2 -2,-3 -25,-41 -13,-19 -6,-10 -3,-4 -2,-3 -2,-2 -25,-35 -13,-16 -6,-8 -3,-4 -2,-2 -2,-1 -23,-26 -12,-11 -6,-5 -3,-3 -1,-1 -1,-1 -12,-10 -6,-5 -3,-2 -2,-1 -1,-2 -12,-8 -6,-5 -3,-2 -1,-1 -1,-1 -26,-18 -12,-9 -6,-5 -4,-2 -1,-1 -2,-2 -12,-10 -7,-5 -3,-3 -1,-2 -2,-1 -13,-12 -6,-7 -3,-3 -2,-2 -1,-2 -12,-13 -6,-7 -2,-4 -2,-2 -1,-2 -12,-16 -6,-9 -3,-4 -1,-2 -1,-3 -12,-19 -6,-10 -3,-5 -1,-2 -2,-3 -11,-21 -6,-12 -3,-5 -1,-3 -2,-3 -24,-50 -11,-27 -6,-13 -3,-7 -2,-4 -1,-3 -24,-56 -12,-28 -6,-14 -3,-7 -1,-4 -2,-3 -25,-58 -13,-28 -6,-14 -3,-6 -2,-3 -1,-4 -26,-48 -12,-22 -7,-10 -3,-5 -1,-2 -2,-2 -12,-17 -5,-8 -3,-3 -2,-2 -1,-2 -12,-13 -6,-6 -3,-3 -1,-1 -2,-2 -11,-10 -6,-5 -3,-2 -2,-1 -1,-1 -6,-4 -3,-2 -1,-1 -2,-1 -5,-4 -3,-1 -2,-1 -1,-1 -13,-7 -6,-3 -3,-2 -2,-1 -1,0 -13,-7 -6,-3 -3,-2 -2,-1 -1,-1 -13,-7 -6,-4 -3,-2 -2,-1 -2,-1 -6,-5 -3,-3 -1,-1 -2,-1 -6,-6 -3,-3 -2,-1 -2,-2 -12,-13 -7,-8 -3,-4 -1,-2 -2,-2 -6,-9 -4,-4 -1,-3 -2,-2 -6,-10 -3,-6 -2,-2 -2,-3 -12,-23 -7,-13 -3,-7 -2,-3 -1,-4 -13,-28 -6,-16 -3,-7 -2,-4 -2,-4 -23,-64 -12,-34 -6,-17 -3,-9 -1,-4 -2,-5 -23,-73 -12,-37 -6,-18 -3,-9 -1,-5 -2,-4 -25,-77 -13,-36 -6,-18 -3,-9 -2,-4 -1,-4 -13,-32 -6,-16 -3,-7 -2,-4 -2,-3 -12,-28 -6,-12 -4,-6 -1,-3 -2,-3 -11,-20 -6,-9 -3,-4 -2,-2 -1,-2 -6,-8 -3,-4 -1,-1 -2,-2 -5,-7 -3,-3 -2,-1 -1,-2 -6,-5 -3,-2 -1,-2 -2,-1 -6,-4 -3,-2 -1,-1 -2,-1 -5,-3 -3,-2 -2,0 -1,-1 -3,-1 -2,-1 -1,-1 -3,-1 -1,0 -2,-1 -6,-2 -3,-1 -1,0 -2,-1 -3,0 -1,-1 -2,0 -3,-1 -1,0 -2,0 -5,-2 -3,0 -2,0 -1,-1 -6,-1 -3,-1 -2,0 -1,0 -6,-2 -3,0 -2,-1 -1,0 -3,-1 -2,0 -1,-1 -3,-1 -1,0 -2,-1 -6,-2 -3,-2 -1,0 -2,-1 -3,-2 -1,0 -2,-1 -3,-2 -1,-1 -2,-1 -6,-4 -3,-3 -2,-1 -1,-2 -4,-2 -1,-2 -2,-1 -3,-4 -1,-1 -2,-2 -6,-8 -4,-4 -1,-2 -2,-2 -6,-9 -3,-5 -2,-2 -1,-3 -13,-23 -7,-13 -3,-7 -1,-3 -2,-4 -6,-14 -3,-8 -2,-4 -2,-4 -6,-16 -3,-9 -2,-4 -1,-5 -12,-34 -6,-19 -3,-9 -1,-5 -2,-5 -11,-39 -6,-21 -3,-10 -2,-6 -1,-5 -24,-89 -11,-45 -6,-23 -3,-12 -2,-6"
                   style="fill:#3f3d99;fill-opacity:0.2;fill-rule:evenodd;stroke:none"
                   id="path4037" />
                <path
                   d="m 764,1817 1,5 2,6 3,12 6,23 11,45 24,89 1,5 2,6 3,10 6,21 11,39 2,5 1,5 3,9 6,19 12,34 1,5 2,4 3,9 6,16 2,4 2,4 3,8 6,14 2,4 1,3 3,7 7,13 13,23 1,3 2,2 3,5 6,9 2,2 1,2 4,4 6,8 2,2 1,1 3,4 2,1 1,2 4,2 1,2 2,1 3,3 6,4 2,1 1,1 3,2 2,1 1,0 3,2 2,1 1,0 3,2 6,2 2,1 1,0 3,1 1,1 2,0 3,1 1,0 2,1 3,0 6,2 1,0 2,0 3,1 6,1 1,1 2,0 3,0 5,2 2,0 1,0 3,1 2,0 1,1 3,0 2,1 1,0 3,1 6,2 2,1 1,0 3,1 1,1 2,1 3,1 1,1 2,0 3,2 5,3 2,1 1,1 3,2 6,4 2,1 1,2 3,2 6,5 1,2 2,1 3,3 5,7 2,2 1,1 3,4 6,8 1,2 2,2 3,4 6,9 11,20 2,3 1,3 4,6 6,12 12,28 2,3 2,4 3,7 6,16 13,32 1,4 2,4 3,9 6,18 13,36 25,77 2,4 1,5 3,9 6,18 12,37 23,73 2,5 1,4 3,9 6,17 12,34 23,64 2,4 2,4 3,7 6,16 13,28 1,4 2,3 3,7 7,13 12,23 2,3 2,2 3,6 6,10 2,2 1,3 4,4 6,9 2,2 1,2 3,4 7,8 12,13 2,2 2,1 3,3 6,6 2,1 1,1 3,3 6,5 2,1 2,1 3,2 6,4 13,7 1,1 2,1 3,2 6,3 13,7 1,0 2,1 3,2 6,3 13,7 1,1 2,1 3,1 5,4 2,1 1,1 3,2 6,4 1,1 2,1 3,2 6,5 11,10 2,2 1,1 3,3 6,6 12,13 1,2 2,2 3,3 5,8 12,17 2,2 1,2 3,5 7,10 12,22 26,48 1,4 2,3 3,6 6,14 13,28 25,58 2,3 1,4 3,7 6,14 12,28 24,56 1,3 2,4 3,7 6,13 11,27 24,50 2,3 1,3 3,5 6,12 11,21 2,3 1,2 3,5 6,10 12,19 1,3 1,2 3,4 6,9 12,16 1,2 2,2 2,4 6,7 12,13 1,2 2,2 3,3 6,7 13,12 2,1 1,2 3,3 7,5 12,10 2,2 1,1 4,2 6,5 12,9 26,18 1,1 1,1 3,2 6,5 12,8 1,2 2,1 3,2 6,5 12,10 1,1 1,1 3,3 6,5 12,11 23,26 2,1 2,2 3,4 6,8 13,16 25,35 2,2 2,3 3,4 6,10 13,19 25,41 2,3 1,2 4,5 6,11 12,20 25,41 2,3 1,2 3,5 7,10 12,20 25,37 2,2 1,2 3,4 6,8 12,16 1,2 1,2 3,4 6,7 12,14 1,2 2,2 3,3 5,6 12,13 23,23 2,1 2,2 3,2 6,6 13,10 25,19 2,1 1,1 3,2 7,5 12,8 25,15 2,1 1,1 3,2 6,3 12,7 24,14 47,28 1,1 2,1 3,2 7,4 12,8 26,15 2,1 1,1 3,2 7,4 13,8 25,14 2,0 1,1 3,2 7,3 12,6 2,1 1,0 3,2 7,2 12,5 2,1 1,0 4,1 6,2 1,1 2,0 3,1 6,2 2,0 2,0 3,1 1,1 2,0 3,1 1,0 2,0 3,1 2,0 1,0 3,1 2,0 1,0 2,0 1,0 2,0 1,1 3,0 2,0 1,0 2,0 1,0 1,0 2,0 1,0 2,0 1,1 2,0 1,0 2,0 1,0 2,0 1,0 2,-1 1,0 2,0 1,0 1,0 2,0 1,0 2,0 1,0 2,0 1,0 3,-1 2,0 1,0 3,0 1,-1 2,0 3,0 6,-1 1,-1 2,0 3,0 5,-2 2,0 1,0 3,-1 6,-2 2,0 1,0 3,-1 7,-2 13,-4 1,-1 2,-1 3,-1 6,-2 13,-5 1,-1 2,0 3,-2 7,-3 12,-5 26,-12 1,-1 2,-1 3,-1 6,-3 11,-6 24,-13 2,-1 1,0 3,-2 6,-3 12,-7 23,-13 2,0 1,-1 3,-2 6,-3 12,-7 1,-1 2,0 2,-2 6,-4 2,0 1,-1 3,-2 6,-4 1,-1 2,-1 3,-2 6,-5 11,-10 23,-19 2,-2 2,-1 3,-3 6,-5 13,-10 25,-20 1,-1 2,-1 3,-2 6,-5 13,-9 25,-16 2,0 1,-1 3,-2 6,-3 12,-6 1,-1 2,-1 3,-1 5,-3 12,-6 2,0 1,-1 3,-1 6,-3 12,-4 23,-9 2,0 1,-1 4,-1 6,-2 13,-4 25,-8 2,0 1,-1 4,-1 6,-1 13,-4 25,-9 2,0 1,-1 4,-1 6,-2 12,-4 25,-11 2,0 1,-1 4,-1 6,-3 12,-6 25,-12 2,-1 1,-1 3,-1 6,-3 12,-7 23,-13 2,-1 1,-1 3,-2 6,-3 11,-8 24,-15 1,-1 2,-1 3,-2 6,-4 13,-9 25,-19 2,-1 2,-1 3,-2 6,-5 13,-10 25,-22 1,-1 2,-1 3,-3 6,-5 12,-12 23,-24 2,-2 1,-2 3,-3 6,-7 12,-14 24,-31 1,-2 1,-2 3,-4 6,-8 12,-18 23,-37 46,-85 2,-3 1,-3 3,-7 7,-12 12,-26 25,-52 2,-3 2,-3 3,-7 6,-13 13,-26 25,-51 1,-3 2,-3 3,-6 5,-11 12,-23 2,-2 1,-3 3,-5 6,-11 12,-20 1,-3 2,-2 3,-5 5,-9 12,-18 2,-2 1,-2 3,-5 6,-8 12,-15 1,-2 2,-2 3,-3 6,-7 2,-2 1,-2 4,-3 6,-6 2,-2 1,-1 3,-3 7,-5 1,-2 2,-1 3,-2 6,-5 2,-1 2,-1 3,-2 6,-4 2,-1 1,0 3,-2 7,-3 1,-1 2,0 3,-2 2,0 1,-1 4,-1 1,-1 2,0 3,-1 6,-2 2,-1 1,0 3,-1 2,0 1,0 3,-1 2,0 1,-1 3,0 6,-1 1,0 2,-1 3,0 6,-1 12,-2 1,0 2,0 3,0 6,-1 1,0 2,-1 3,0 5,-1 2,0 1,0 3,-1 2,0 1,0 3,-1 2,0 1,-1 3,0 6,-2 2,0 1,-1 3,0 6,-2 1,-1 2,0 3,-1 5,-2 2,-1 1,-1 3,-1 6,-3 2,0 1,-1 3,-2 6,-3 1,-1 2,-1 3,-2 5,-3 2,-1 1,-1 3,-3 6,-4 1,-1 2,-1 3,-3 6,-5 11,-11 2,-2 1,-1 4,-4 6,-6 13,-15 25,-33 1,-2 2,-2 3,-4 6,-9 13,-18 25,-37 2,-2 1,-2 3,-5 6,-8 12,-17 1,-2 2,-2 3,-4 6,-8 11,-15 2,-2 1,-2 3,-4 6,-7 12,-13 1,-2 2,-1 3,-3 6,-6 12,-11 1,-1 2,-2 3,-2 6,-5 2,-1 2,-1 3,-3 6,-4 2,-1 1,-1 3,-1 2,-1 2,-1 3,-2 1,-1 2,0 3,-2 7,-2 1,-1 2,0 3,-1 2,-1 1,0 3,-1 2,-1 2,0 3,-1 1,0 2,0 3,-1 2,0 1,-1 2,0 2,0 1,0 2,-1 3,0 2,0 1,0 2,0 1,-1 2,0 1,0 4,0 1,0 2,0 3,0 2,-1 1,0 3,0 2,0 1,0 3,0 2,0 2,0 3,0 1,0 2,0 1,-1 2,0 2,0 1,0 3,0 2,0 1,0 2,-1 2,0 1,0 2,0 3,-1 1,0 2,0 2,0 1,-1 2,0 1,0 3,-1 2,0 1,-1 4,0 1,-1 2,0 3,-1 1,-1 2,-1 3,-1 2,0 1,-1 3,-2 2,0 2,-1 3,-2 6,-4 1,-1 2,-1 3,-2 6,-4 1,-1 2,-2 3,-2 5,-6 2,-1 1,-2 3,-3 6,-7 12,-15 1,-2 2,-2 3,-4 5,-9 12,-20 2,-3 1,-3 3,-5 6,-12 12,-25 1,-3 2,-4 3,-7 6,-15 13,-31 25,-70 51,-152 1,-4 2,-4 3,-9 6,-18 12,-35 1,-4 2,-5 3,-8 5,-17 12,-33 2,-4 1,-4 3,-7 6,-16 12,-28 1,-4 2,-3 3,-7 6,-13 12,-24 1,-3 2,-3 2,-5 6,-11 2,-2 1,-3 3,-5 6,-9 1,-2 2,-2 3,-4 5,-8 2,-2 1,-2 3,-3 6,-7 1,-2 2,-1 3,-3 6,-6 1,-1 2,-1 2,-3 6,-4 2,-1 1,-1 3,-2 1,-1 2,-1 3,-2 1,-1 2,0 3,-2 5,-3 2,0 2,-1 3,-1 1,-1 2,0 3,-1 2,-1 1,0 3,-1 7,-2 1,0 2,0 3,-1 6,-1 13,-3 1,0 2,0 3,-1 2,0 1,-1 3,0 2,-1 2,0 3,-1 6,-2 2,0 1,-1 3,-1 2,0 1,-1 4,-1 1,-1 2,-1 3,-1 6,-4 2,-1 1,-1 3,-2 2,-1 1,-1 3,-2 1,-1 2,-2 3,-2 6,-6 1,-1 2,-2 3,-3 5,-7 2,-2 1,-2 3,-3 6,-9 2,-2 1,-2 3,-5 6,-10 1,-2 2,-3 3,-6 6,-11 1,-3 2,-3 3,-6 5,-13 12,-29 2,-4 1,-4 4,-9 6,-17 13,-38 25,-86 2,-5 1,-6 3,-11 7,-24 13,-48 25,-99 0,-1 0,0 0,0 0,-1 1,-1 1,-3 0,-1 0,0 0,0 0,-1 0,-1 0,-1 0,0 0,0 1,-1 0,0 0,0 0,-1 0,0 0,0 0,0 0,0"
                   style="fill:none;stroke:#3f3d99;stroke-width:48;stroke-linecap:square;stroke-linejoin:miter;stroke-miterlimit:3.23930693;stroke-opacity:1;stroke-dasharray:none"
                   id="path4039" />
              </g>
              <path
                 d="m 5540,4980 -4776,0"
                 style="fill:none;stroke:#000000;stroke-width:24;stroke-linecap:square;stroke-linejoin:miter;stroke-miterlimit:3.23930693;stroke-opacity:1;stroke-dasharray:none"
                 id="path4041" />
              <path
                 d="M 764,4980 764,204"
                 style="fill:none;stroke:#000000;stroke-width:24;stroke-linecap:square;stroke-linejoin:miter;stroke-miterlimit:3.23930693;stroke-opacity:1;stroke-dasharray:none"
                 id="path4043" />
              <path
                 d="m 764,204 4776,0"
                 style="fill:none;stroke:#000000;stroke-width:24;stroke-linecap:square;stroke-linejoin:miter;stroke-miterlimit:3.23930693;stroke-opacity:1;stroke-dasharray:none"
                 id="path4045" />
              <path
                 d="m 5540,204 0,4776"
                 style="fill:none;stroke:#000000;stroke-width:24;stroke-linecap:square;stroke-linejoin:miter;stroke-miterlimit:3.23930693;stroke-opacity:1;stroke-dasharray:none"
                 id="path4047" />
              <g
                 id="g4049" />
            </g>
          </g>
        </g>
      </g>
      <text
         sodipodi:linespacing="125%"
         id="text4164"
         y="153.68582"
         x="206.38458"
         style="font-size:40px;font-style:normal;font-variant:normal;font-weight:normal;font-stretch:normal;text-align:start;line-height:125%;writing-mode:lr-tb;text-anchor:start;fill:#000000;fill-opacity:1;stroke:none;font-family:Nimbus Roman No9 L;-inkscape-font-specification:Nimbus Roman No9 L"
         xml:space="preserve"><tspan
           y="153.68582"
           x="206.38458"
           id="tspan4166"
           sodipodi:role="line">b)</tspan></text>
    </g>
    <g
       id="g4384">
      <g
         id="g4307"
         inkscape:label="NonconvexObjectiveFunction"
         transform="matrix(1.25,0,0,-1.25,580,480.27674)">
        <g
           id="g4309"
           transform="matrix(0.0625,0,0,-0.0625,-47,312)">
          <g
             id="g4311"
             clip-path="url(#clipPath4313)">
            <g
               id="g4317">
              <path
                 d="m 752,192 4800,0 0,4800 -4800,0 0,-4800 z"
                 style="fill:#ffffff;fill-opacity:1;fill-rule:evenodd;stroke:none"
                 id="path4319" />
            </g>
            <g
               id="g4321">
              <g
                 id="g4323" />
              <g
                 id="g4325" />
              <g
                 id="g4327">
                <path
                   d="m 764,2395 0,2585 4776,0 0,-3748 0,1 0,0 0,0 0,0 0,1 0,0 0,0 -1,1 0,0 0,0 0,1 0,1 0,1 0,0 0,1 0,0 -1,3 -1,2 0,1 0,0 0,0 0,0 -25,122 -13,69 -7,36 -3,19 -1,9 -2,10 -13,77 -6,40 -3,20 -2,10 -1,11 -13,83 -6,42 -4,21 -1,11 -2,11 -47,317 -23,153 -12,73 -6,36 -3,17 -1,9 -2,9 -25,138 -13,62 -6,30 -3,14 -2,7 -1,6 -13,52 -6,23 -3,11 -2,6 -1,5 -7,21 -3,9 -1,5 -2,5 -6,17 -3,8 -2,4 -2,4 -5,13 -3,6 -2,3 -1,3 -6,11 -3,4 -1,3 -2,2 -3,4 -1,2 -2,2 -2,3 -2,2 -1,1 -3,3 -2,2 -1,1 -2,1 -1,1 -2,1 -1,1 -1,1 -2,0 -1,1 -2,1 -1,0 -2,1 -1,0 -2,0 -1,0 -1,0 -2,1 -1,0 -2,-1 -1,0 -2,0 -1,0 -2,-1 -1,0 -2,-1 -1,0 -1,-1 -2,-1 -1,0 -2,-1 -3,-2 -1,-1 -2,-1 -2,-3 -2,-1 -1,-2 -3,-3 -2,-1 -1,-2 -3,-3 -2,-2 -1,-2 -3,-4 -2,-2 -1,-2 -3,-5 -2,-2 -1,-3 -6,-9 -3,-6 -1,-2 -2,-3 -6,-12 -3,-6 -1,-3 -2,-3 -12,-26 -5,-14 -3,-7 -2,-3 -1,-4 -12,-30 -6,-15 -3,-7 -2,-4 -1,-4 -25,-67 -13,-32 -6,-16 -4,-8 -1,-4 -2,-4 -12,-29 -7,-14 -3,-7 -2,-3 -1,-3 -13,-25 -6,-11 -3,-5 -2,-2 -1,-3 -6,-8 -3,-4 -2,-2 -1,-2 -6,-7 -3,-3 -1,-1 -2,-2 -3,-2 -1,-1 -2,-1 -3,-3 -1,-1 -2,0 -2,-2 -2,-1 -1,0 -2,-1 -1,-1 -2,0 -1,-1 -2,0 -1,0 -2,0 -1,-1 -2,0 -1,0 -1,0 -2,1 -1,0 -2,0 -1,0 -2,1 -1,0 -2,1 -1,0 -2,1 -1,1 -2,0 -1,1 -1,1 -2,1 -1,1 -2,1 -1,1 -3,3 -2,1 -1,2 -3,3 -2,2 -1,1 -6,8 -3,5 -2,2 -2,3 -3,5 -1,3 -2,3 -3,5 -2,3 -1,3 -6,14 -4,6 -1,4 -2,4 -6,15 -3,8 -2,5 -1,4 -13,36 -6,20 -3,10 -2,5 -1,6 -13,44 -6,24 -3,12 -2,6 -1,6 -26,107 -13,57 -6,29 -3,15 -2,8 -1,7 -26,122 -13,61 -6,31 -3,15 -2,8 -1,8 -48,216 -23,98 -12,45 -6,22 -3,10 -1,5 -2,5 -12,42 -7,20 -3,9 -1,5 -2,5 -13,34 -6,16 -3,7 -2,4 -1,3 -13,26 -6,12 -3,5 -2,3 -1,3 -7,9 -3,4 -1,2 -2,2 -3,4 -2,2 -1,2 -4,3 -1,2 -2,1 -3,3 -1,1 -2,2 -2,2 -2,1 -1,1 -3,2 -2,0 -1,1 -2,1 -1,1 -2,0 -1,1 -1,0 -2,1 -1,0 -2,1 -1,0 -2,0 -1,1 -2,0 -1,0 -2,0 -1,0 -1,0 -2,0 -1,0 -2,0 -1,0 -2,0 -1,0 -2,-1 -1,0 -2,0 -1,-1 -1,0 -2,-1 -3,-1 -1,0 -2,-1 -1,-1 -2,0 -1,-1 -2,-1 -2,-1 -2,-1 -1,-1 -3,-2 -2,-1 -1,-1 -3,-2 -2,-2 -1,-1 -3,-2 -1,-1 -2,-2 -12,-11 -6,-6 -3,-4 -1,-1 -2,-2 -11,-14 -6,-7 -3,-4 -2,-2 -1,-2 -24,-31 -12,-16 -6,-8 -3,-3 -1,-2 -2,-2 -12,-16 -7,-7 -3,-4 -2,-1 -1,-2 -13,-13 -6,-6 -3,-3 -2,-1 -2,-2 -6,-4 -3,-3 -2,-1 -1,-1 -3,-2 -2,-1 -2,-1 -3,-1 -1,-1 -2,-1 -3,-1 -2,-1 -1,-1 -2,0 -2,-1 -1,0 -2,0 -1,-1 -2,0 -2,-1 -1,0 -2,0 -1,0 -2,0 -1,0 -2,-1 -1,0 -2,0 -1,1 -2,0 -1,0 -2,0 -1,0 -2,0 -1,1 -2,0 -1,0 -2,1 -1,0 -1,1 -2,0 -3,1 -1,1 -2,1 -3,1 -1,1 -2,1 -3,2 -1,0 -1,1 -3,3 -2,1 -1,1 -6,5 -3,2 -2,2 -1,1 -6,6 -3,4 -1,1 -2,2 -6,8 -3,4 -1,2 -2,2 -5,8 -3,5 -2,2 -1,2 -13,22 -6,11 -3,6 -2,3 -1,3 -13,26 -6,14 -3,7 -2,4 -2,3 -12,30 -6,16 -4,8 -1,4 -2,3 -12,33 -7,17 -3,8 -1,4 -2,5 -23,63 -12,32 -5,17 -3,8 -2,4 -1,4 -23,63 -12,31 -6,15 -3,8 -1,4 -1,3 -24,59 -12,27 -6,13 -3,6 -1,3 -2,4 -23,46 -12,21 -6,10 -3,5 -2,2 -1,2 -13,19 -6,8 -3,4 -2,2 -1,2 -7,7 -3,4 -1,2 -2,1 -6,7 -3,3 -2,1 -2,1 -6,6 -3,2 -2,1 -1,2 -7,4 -3,2 -1,1 -2,1 -6,3 -3,2 -2,1 -2,0 -3,2 -1,0 -2,1 -3,1 -2,1 -1,0 -3,1 -2,1 -1,0 -3,1 -1,0 -2,0 -3,1 -1,0 -2,0 -1,1 -2,0 -1,0 -2,0 -1,0 -2,1 -1,0 -1,0 -2,0 -1,0 -2,0 -1,0 -2,0 -1,0 -2,0 -1,0 -2,0 -1,0 -1,0 -2,0 -1,0 -2,0 -1,0 -2,0 -1,0 -2,0 -1,-1 -2,0 -3,0 -1,0 -1,0 -3,-1 -2,0 -1,0 -6,-1 -3,-1 -2,0 -1,0 -6,-1 -3,-1 -1,0 -2,0 -12,-3 -6,-1 -4,-1 -1,-1 -2,0 -12,-3 -6,-1 -4,0 -1,-1 -2,0 -6,-1 -3,-1 -2,0 -1,0 -3,0 -2,-1 -1,0 -4,0 -1,0 -2,-1 -3,0 -1,0 -2,0 -2,0 -1,0 -2,0 -1,0 -2,-1 -1,0 -2,0 -1,0 -2,0 -2,0 -1,0 -2,0 -1,0 -2,0 -2,0 -1,1 -2,0 -1,0 -2,0 -1,0 -2,0 -2,0 -1,0 -2,1 -1,0 -2,0 -2,0 -1,0 -3,1 -2,0 -2,0 -3,1 -1,0 -2,1 -3,1 -2,0 -1,0 -4,1 -1,1 -2,0 -6,2 -3,1 -2,1 -1,0 -7,3 -3,1 -2,1 -1,1 -7,3 -3,1 -1,1 -2,1 -6,3 -4,2 -1,1 -2,1 -11,7 -6,4 -3,2 -2,1 -1,1 -12,8 -6,4 -3,2 -1,2 -2,1 -23,18 -12,9 -6,5 -3,2 -1,2 -2,1 -25,20 -13,9 -6,5 -3,2 -2,1 -1,1 -13,9 -6,4 -3,2 -2,1 -1,1 -13,7 -6,3 -3,1 -2,1 -2,1 -5,2 -3,1 -2,1 -1,0 -6,2 -3,1 -1,1 -2,0 -3,1 -1,0 -2,0 -3,1 -1,0 -1,1 -2,0 -1,0 -2,0 -1,0 -2,0 -1,1 -2,0 -1,0 -2,0 -1,-1 -1,0 -2,0 -1,0 -2,0 -1,0 -2,0 -3,0 -1,0 -2,-1 -2,0 -2,0 -1,0 -6,0 -3,-1 -1,0 -2,0 -6,0 -3,0 -1,0 -2,0 -5,-1 -3,0 -2,0 -1,0 -3,0 -2,0 -1,0 -3,0 -2,0 -1,0 -6,0 -3,-1 -2,0 -1,0 -3,0 -2,0 -1,0 -3,0 -1,0 -2,0 -6,0 -3,0 -1,0 -2,0 -3,0 -1,0 -2,0 -3,0 -1,0 -2,0 -3,0 -1,-1 -2,0 -3,0 -1,0 -1,0 -3,0 -2,0 -1,0 -3,0 -2,0 -1,-1 -4,0 -1,0 -2,0 -3,0 -1,0 -2,-1 -3,0 -2,0 -1,0 -4,-1 -1,0 -2,0 -6,-1 -3,-1 -2,0 -1,0 -4,-1 -1,0 -2,-1 -3,-1 -2,0 -1,0 -6,-2 -4,-1 -1,-1 -2,0 -6,-2 -3,-2 -2,0 -1,-1 -7,-3 -3,-1 -2,-1 -1,-1 -7,-3 -3,-2 -1,0 -2,-1 -12,-8 -5,-4 -3,-2 -2,-1 -1,-1 -6,-5 -3,-2 -2,-1 -1,-1 -6,-6 -3,-2 -1,-2 -2,-1 -11,-12 -6,-6 -3,-3 -2,-2 -1,-1 -12,-14 -6,-7 -3,-4 -1,-2 -2,-2 -25,-35 -12,-19 -6,-10 -4,-5 -1,-2 -2,-3 -25,-41 -12,-22 -7,-11 -3,-5 -1,-3 -2,-3 -51,-88 -26,-40 -12,-19 -7,-9 -3,-5 -2,-2 -1,-2 -12,-15 -6,-8 -3,-3 -1,-2 -2,-1 -12,-13 -5,-6 -3,-2 -2,-2 -1,-1 -6,-5 -3,-2 -2,-1 -1,-2 -6,-4 -3,-2 -1,-1 -2,-1 -6,-3 -3,-2 -1,0 -2,-1 -3,-1 -1,-1 -2,-1 -3,-1 -1,0 -2,-1 -3,-1 -1,0 -2,-1 -1,0 -2,-1 -2,0 -1,0 -2,-1 -1,0 -2,0 -1,0 -2,0 -2,-1 -1,0 -2,0 -1,0 -2,0 -2,0 -1,0 -2,0 -1,0 -2,0 -1,0 -2,1 -2,0 -1,0 -2,0 -1,0 -2,1 -1,0 -2,0 -3,1 -2,0 -1,1 -4,1 -1,0 -2,1 -3,1 -1,0 -2,1 -3,1 -2,1 -1,1 -7,2 -3,2 -1,1 -2,1 -6,3 -3,2 -2,1 -2,1 -11,7 -6,4 -3,2 -1,1 -2,1 -12,8 -5,5 -3,2 -2,1 -1,1 -23,17 -12,7 -6,4 -3,2 -1,1 -2,1 -6,3 -3,2 -2,0 -1,1 -7,3 -3,1 -1,1 -2,0 -3,2 -1,0 -2,1 -3,0 -2,1 -1,0 -2,1 -1,0 -2,0 -2,0 -1,1 -2,0 -1,0 -2,0 -1,0 -2,0 -1,0 -2,0 -2,0 -1,0 -2,0 -1,0 -2,0 -1,0 -2,0 -2,-1 -1,0 -2,0 -1,-1 -2,0 -3,-1 -1,-1 -2,0 -2,-1 -1,0 -2,-1 -1,-1 -3,-1 -2,-1 -1,-1 -4,-2 -1,-1 -2,-1 -6,-5 -3,-3 -2,-1 -1,-1 -4,-3 -1,-2 -2,-2 -3,-3 -2,-2 -1,-2 -7,-7 -3,-5 -1,-2 -2,-2 -6,-9 -3,-5 -2,-3 -2,-2 -12,-23 -7,-12 -3,-7 -1,-3 -2,-3 -13,-29 -6,-16 -3,-8 -2,-4 -2,-4 -23,-65 -12,-36 -6,-19 -3,-10 -1,-5 -1,-4 -24,-81 -12,-43 -6,-21 -3,-11 -1,-6 -1,-5 -51,-191 -25,-93 -13,-44 -6,-22 -3,-11 -2,-5 -1,-5 -23,-73 -12,-33 -6,-16 -3,-7 -1,-4 -1,-4 -12,-28 -6,-12 -3,-6 -1,-3 -2,-3 -5,-12 -3,-5 -2,-3 -1,-2 -6,-10 -3,-5 -1,-2 -2,-2 -6,-8 -3,-4 -1,-2 -2,-2 -3,-3 -1,-2 -2,-1 -3,-3 -1,-2 -2,-1 -2,-2 -2,-2 -1,-1 -3,-2 -2,-1 -1,-1 -3,-1 -2,-1 -1,-1 -2,0 -1,-1 -2,-1 -1,0 -2,0 -1,-1 -2,0 -1,0 -2,-1 -1,0 -2,0 -1,0 -1,0 -2,0 -1,0 -2,0 -1,1 -2,0 -1,0 -2,1 -1,0 -2,0 -1,1 -2,1 -1,0 -2,1 -1,1 -2,0 -3,2 -1,1 -2,1 -3,2 -1,1 -2,1 -6,5 -3,3 -2,2 -1,2 -3,3 -2,2 -2,1 -3,4 -1,2 -2,2 -6,8 -3,5 -2,2 -2,2 -6,10 -3,5 -2,2 -1,3 -13,21 -6,12 -3,6 -2,3 -2,3 -12,24 -7,12 -3,6 -1,3 -2,3 -23,46 -12,22 -6,11 -3,5 -1,2 -2,3 -11,19 -6,10 -3,4 -2,2 -1,2 -6,8 -3,4 -1,2 -2,2 -5,6 -3,4 -2,1 -1,1 -7,6 -3,3 -1,1 -2,1 -3,2 -2,1 -1,1 -2,1 -1,1 -2,0 -1,1 -2,1 -2,0 -1,1 -2,0 -1,0 -2,1 -1,0 -2,0 -1,0 -2,0 -2,0 -1,0 -2,0 -1,-1 -2,0 -1,0 -2,-1 -2,-1 -1,0 -2,-1 -1,-1 -2,-1 -1,-1 -2,-1 -3,-2 -2,-1 -1,-1 -3,-3 -2,-2 -2,-1 -3,-4 -1,-2 -2,-2 -3,-4 -1,-2 -2,-2 -3,-5 -2,-2 -1,-3 -3,-5 -2,-3 -2,-3 -6,-13 -3,-6 -2,-4 -1,-4 -7,-15 -3,-8 -1,-4 -2,-4 -6,-18 -4,-10 -1,-5 -2,-4 -6,-21 -3,-11 -2,-5 -2,-6 -12,-47 -7,-25 -3,-13 -2,-7 -1,-7 -13,-56 -6,-29 -3,-15 -2,-8 -2,-8 -23,-120 -12,-63 -6,-33 -3,-16 -1,-9 -2,-8 -23,-135 -12,-68 -6,-34 -3,-17 -1,-9 -2,-9 -25,-144 -13,-69 -6,-34 -3,-17 -2,-9 -1,-8 -26,-125 -12,-57 -6,-27 -4,-13 -1,-6 -2,-7 -11,-44 -6,-20 -3,-10 -2,-5 -1,-5 -6,-18 -3,-8 -1,-5 -2,-4 -5,-15 -3,-8 -2,-3 -1,-4 -6,-13 -3,-6 -1,-3 -2,-3 -6,-11 -3,-4 -1,-3 -2,-2 -2,-4 -2,-2 -1,-2 -3,-3 -2,-2 -1,-2 -3,-3 -2,-1 -1,-1 -1,-1 -2,-1 -1,-1 -2,-1 -1,-1 -2,-1 -1,0 -2,-1 -1,0 -2,-1 -1,0 -2,0 -1,-1 -2,0 -1,0 -2,0 -1,1 -2,0 -1,0 -2,1 -1,0 -1,1 -2,0 -1,1 -2,1 -1,1 -2,1 -1,1 -3,2 -2,1 -1,2 -3,3 -2,1 -1,2 -6,7 -3,4 -2,2 -1,3 -3,4 -2,3 -1,2 -3,5 -1,3 -2,3 -6,11 -3,7 -1,3 -2,3 -6,14 -3,7 -1,3 -2,4 -12,33 -7,18 -3,9 -1,5 -2,5 -13,39 -6,20 -3,10 -2,5 -1,5 -26,84 -13,42 -6,20 -3,10 -2,5 -1,5 -24,70 -11,31 -6,14 -3,7 -2,3 -1,3 -6,13 -3,6 -1,2 -2,3 -6,11 -3,4 -1,3 -2,2 -5,8 -3,4 -2,1 -1,2 -3,3 -2,1 -1,2 -2,1 -1,1 -2,1"
                   style="fill:#3f3d99;fill-opacity:0.2;fill-rule:evenodd;stroke:none"
                   id="path4329" />
                <path
                   d="m 764,2395 1,-1 2,-1 1,-1 2,-1 1,-2 2,-1 3,-3 1,-2 2,-1 3,-4 5,-8 2,-2 1,-3 3,-4 6,-11 2,-3 1,-2 3,-6 6,-13 1,-3 2,-3 3,-7 6,-14 11,-31 24,-70 1,-5 2,-5 3,-10 6,-20 13,-42 26,-84 1,-5 2,-5 3,-10 6,-20 13,-39 2,-5 1,-5 3,-9 7,-18 12,-33 2,-4 1,-3 3,-7 6,-14 2,-3 1,-3 3,-7 6,-11 2,-3 1,-3 3,-5 1,-2 2,-3 3,-4 1,-3 2,-2 3,-4 6,-7 1,-2 2,-1 3,-3 1,-2 2,-1 3,-2 1,-1 2,-1 1,-1 2,-1 1,-1 2,0 1,-1 1,0 2,-1 1,0 2,0 1,-1 2,0 1,0 2,0 1,1 2,0 1,0 2,1 1,0 2,1 1,0 2,1 1,1 2,1 1,1 2,1 1,1 1,1 2,1 3,3 1,2 2,2 3,3 1,2 2,2 2,4 2,2 1,3 3,4 6,11 2,3 1,3 3,6 6,13 1,4 2,3 3,8 5,15 2,4 1,5 3,8 6,18 1,5 2,5 3,10 6,20 11,44 2,7 1,6 4,13 6,27 12,57 26,125 1,8 2,9 3,17 6,34 13,69 25,144 2,9 1,9 3,17 6,34 12,68 23,135 2,8 1,9 3,16 6,33 12,63 23,120 2,8 2,8 3,15 6,29 13,56 1,7 2,7 3,13 7,25 12,47 2,6 2,5 3,11 6,21 2,4 1,5 4,10 6,18 2,4 1,4 3,8 7,15 1,4 2,4 3,6 6,13 2,3 2,3 3,5 1,3 2,2 3,5 2,2 1,2 3,4 2,2 1,2 3,4 2,1 2,2 3,3 1,1 2,1 3,2 2,1 1,1 2,1 1,1 2,1 1,0 2,1 2,1 1,0 2,0 1,1 2,0 1,0 2,0 2,0 1,0 2,0 1,0 2,-1 1,0 2,0 1,-1 2,0 2,-1 1,-1 2,0 1,-1 2,-1 1,-1 2,-1 3,-2 2,-1 1,-1 3,-3 7,-6 1,-1 2,-1 3,-4 5,-6 2,-2 1,-2 3,-4 6,-8 1,-2 2,-2 3,-4 6,-10 11,-19 2,-3 1,-2 3,-5 6,-11 12,-22 23,-46 2,-3 1,-3 3,-6 7,-12 12,-24 2,-3 2,-3 3,-6 6,-12 13,-21 1,-3 2,-2 3,-5 6,-10 2,-2 2,-2 3,-5 6,-8 2,-2 1,-2 3,-4 2,-1 2,-2 3,-3 1,-2 2,-2 3,-3 6,-5 2,-1 1,-1 3,-2 2,-1 1,-1 3,-2 2,0 1,-1 2,-1 1,0 2,-1 1,-1 2,0 1,0 2,-1 1,0 2,0 1,-1 2,0 1,0 2,0 1,0 1,0 2,0 1,0 2,1 1,0 2,0 1,1 2,0 1,0 2,1 1,1 2,0 1,1 2,1 3,1 1,1 2,1 3,2 1,1 2,2 2,2 2,1 1,2 3,3 2,1 1,2 3,3 2,2 1,2 3,4 6,8 2,2 1,2 3,5 6,10 1,2 2,3 3,5 5,12 2,3 1,3 3,6 6,12 12,28 1,4 1,4 3,7 6,16 12,33 23,73 1,5 2,5 3,11 6,22 13,44 25,93 51,191 1,5 1,6 3,11 6,21 12,43 24,81 1,4 1,5 3,10 6,19 12,36 23,65 2,4 2,4 3,8 6,16 13,29 2,3 1,3 3,7 7,12 12,23 2,2 2,3 3,5 6,9 2,2 1,2 3,5 7,7 1,2 2,2 3,3 2,2 1,2 4,3 1,1 2,1 3,3 6,5 2,1 1,1 4,2 1,1 2,1 3,1 1,1 2,1 1,0 2,1 2,0 1,1 3,1 2,0 1,1 2,0 1,0 2,1 2,0 1,0 2,0 1,0 2,0 1,0 2,0 2,0 1,0 2,0 1,0 2,0 1,0 2,0 1,-1 2,0 2,0 1,0 2,-1 1,0 2,-1 3,0 2,-1 1,0 3,-2 2,0 1,-1 3,-1 7,-3 1,-1 2,0 3,-2 6,-3 2,-1 1,-1 3,-2 6,-4 12,-7 23,-17 1,-1 2,-1 3,-2 5,-5 12,-8 2,-1 1,-1 3,-2 6,-4 11,-7 2,-1 2,-1 3,-2 6,-3 2,-1 1,-1 3,-2 7,-2 1,-1 2,-1 3,-1 2,-1 1,0 3,-1 2,-1 1,0 4,-1 1,-1 2,0 3,-1 2,0 1,0 2,-1 1,0 2,0 1,0 2,0 2,-1 1,0 2,0 1,0 2,0 1,0 2,0 2,0 1,0 2,0 1,0 2,1 2,0 1,0 2,0 1,0 2,1 1,0 2,0 2,1 1,0 2,1 1,0 3,1 2,1 1,0 3,1 2,1 1,1 3,1 2,1 1,0 3,2 6,3 2,1 1,1 3,2 6,4 1,2 2,1 3,2 6,5 1,1 2,2 3,2 5,6 12,13 2,1 1,2 3,3 6,8 12,15 1,2 2,2 3,5 7,9 12,19 26,40 51,88 2,3 1,3 3,5 7,11 12,22 25,41 2,3 1,2 4,5 6,10 12,19 25,35 2,2 1,2 3,4 6,7 12,14 1,1 2,2 3,3 6,6 11,12 2,1 1,2 3,2 6,6 1,1 2,1 3,2 6,5 1,1 2,1 3,2 5,4 12,8 2,1 1,0 3,2 7,3 1,1 2,1 3,1 7,3 1,1 2,0 3,2 6,2 2,0 1,1 4,1 6,2 1,0 2,0 3,1 2,1 1,0 4,1 1,0 2,0 3,1 6,1 2,0 1,0 4,1 1,0 2,0 3,0 2,1 1,0 3,0 2,0 1,0 4,0 1,1 2,0 3,0 1,0 2,0 3,0 1,0 1,0 3,0 2,0 1,1 3,0 2,0 1,0 3,0 2,0 1,0 3,0 2,0 1,0 3,0 6,0 2,0 1,0 3,0 1,0 2,0 3,0 1,0 2,0 3,1 6,0 1,0 2,0 3,0 1,0 2,0 3,0 1,0 2,0 3,0 5,1 2,0 1,0 3,0 6,0 2,0 1,0 3,1 6,0 1,0 2,0 2,0 2,1 1,0 3,0 2,0 1,0 2,0 1,0 2,0 1,0 1,1 2,0 1,0 2,0 1,-1 2,0 1,0 2,0 1,0 2,0 1,-1 1,0 3,-1 2,0 1,0 3,-1 2,0 1,-1 3,-1 6,-2 1,0 2,-1 3,-1 5,-2 2,-1 2,-1 3,-1 6,-3 13,-7 1,-1 2,-1 3,-2 6,-4 13,-9 1,-1 2,-1 3,-2 6,-5 13,-9 25,-20 2,-1 1,-2 3,-2 6,-5 12,-9 23,-18 2,-1 1,-2 3,-2 6,-4 12,-8 1,-1 2,-1 3,-2 6,-4 11,-7 2,-1 1,-1 4,-2 6,-3 2,-1 1,-1 3,-1 7,-3 1,-1 2,-1 3,-1 7,-3 1,0 2,-1 3,-1 6,-2 2,0 1,-1 4,-1 1,0 2,0 3,-1 2,-1 1,0 3,-1 2,0 2,0 3,-1 1,0 2,0 2,0 1,0 2,-1 1,0 2,0 2,0 1,0 2,0 1,0 2,0 1,-1 2,0 2,0 1,0 2,0 1,0 2,0 2,0 1,0 2,0 1,0 2,1 1,0 2,0 1,0 2,0 2,0 1,0 3,0 2,1 1,0 4,0 1,0 2,1 3,0 1,0 2,0 3,1 6,1 2,0 1,1 4,0 6,1 12,3 2,0 1,1 4,1 6,1 12,3 2,0 1,0 3,1 6,1 1,0 2,0 3,1 6,1 1,0 2,0 3,1 1,0 1,0 3,0 2,0 1,1 2,0 1,0 2,0 1,0 2,0 1,0 2,0 1,0 1,0 2,0 1,0 2,0 1,0 2,0 1,0 2,0 1,0 2,0 1,0 1,0 2,-1 1,0 2,0 1,0 2,0 1,-1 2,0 1,0 3,-1 2,0 1,0 3,-1 1,0 2,-1 3,-1 1,0 2,-1 3,-1 2,-1 1,0 3,-2 2,0 2,-1 3,-2 6,-3 2,-1 1,-1 3,-2 7,-4 1,-2 2,-1 3,-2 6,-6 2,-1 2,-1 3,-3 6,-7 2,-1 1,-2 3,-4 7,-7 1,-2 2,-2 3,-4 6,-8 13,-19 1,-2 2,-2 3,-5 6,-10 12,-21 23,-46 2,-4 1,-3 3,-6 6,-13 12,-27 24,-59 1,-3 1,-4 3,-8 6,-15 12,-31 23,-63 1,-4 2,-4 3,-8 5,-17 12,-32 23,-63 2,-5 1,-4 3,-8 7,-17 12,-33 2,-3 1,-4 4,-8 6,-16 12,-30 2,-3 2,-4 3,-7 6,-14 13,-26 1,-3 2,-3 3,-6 6,-11 13,-22 1,-2 2,-2 3,-5 5,-8 2,-2 1,-2 3,-4 6,-8 2,-2 1,-1 3,-4 6,-6 1,-1 2,-2 3,-2 6,-5 1,-1 2,-1 3,-3 1,-1 1,0 3,-2 2,-1 1,-1 3,-1 2,-1 1,-1 3,-1 2,0 1,-1 1,0 2,-1 1,0 2,0 1,-1 2,0 1,0 2,0 1,0 2,0 1,-1 2,0 1,0 2,1 1,0 2,0 1,0 2,0 1,0 2,1 2,0 1,1 2,0 1,0 2,1 2,0 1,1 2,1 3,1 2,1 1,1 3,1 2,1 2,1 3,2 1,1 2,1 3,3 6,4 2,2 2,1 3,3 6,6 13,13 1,2 2,1 3,4 7,7 12,16 2,2 1,2 3,3 6,8 12,16 24,31 1,2 2,2 3,4 6,7 11,14 2,2 1,1 3,4 6,6 12,11 2,2 1,1 3,2 1,1 2,2 3,2 1,1 2,1 3,2 1,1 2,1 2,1 2,1 1,1 2,0 1,1 2,1 1,0 3,1 2,1 1,0 1,1 2,0 1,0 2,1 1,0 2,0 1,0 2,0 1,0 2,0 1,0 1,0 2,0 1,0 2,0 1,-1 2,0 1,0 2,-1 1,0 2,-1 1,0 1,-1 2,0 1,-1 2,-1 1,-1 2,0 3,-2 1,-1 2,-1 2,-2 2,-2 1,-1 3,-3 2,-1 1,-2 4,-3 1,-2 2,-2 3,-4 2,-2 1,-2 3,-4 7,-9 1,-3 2,-3 3,-5 6,-12 13,-26 1,-3 2,-4 3,-7 6,-16 13,-34 2,-5 1,-5 3,-9 7,-20 12,-42 2,-5 1,-5 3,-10 6,-22 12,-45 23,-98 48,-216 1,-8 2,-8 3,-15 6,-31 13,-61 26,-122 1,-7 2,-8 3,-15 6,-29 13,-57 26,-107 1,-6 2,-6 3,-12 6,-24 13,-44 1,-6 2,-5 3,-10 6,-20 13,-36 1,-4 2,-5 3,-8 6,-15 2,-4 1,-4 4,-6 6,-14 1,-3 2,-3 3,-5 2,-3 1,-3 3,-5 2,-3 2,-2 3,-5 6,-8 1,-1 2,-2 3,-3 1,-2 2,-1 3,-3 1,-1 2,-1 1,-1 2,-1 1,-1 1,-1 2,0 1,-1 2,-1 1,0 2,-1 1,0 2,-1 1,0 2,0 1,0 2,-1 1,0 1,0 2,0 1,1 2,0 1,0 2,0 1,1 2,0 1,1 2,1 1,0 2,1 2,2 2,0 1,1 3,3 2,1 1,1 3,2 2,2 1,1 3,3 6,7 1,2 2,2 3,4 6,8 1,3 2,2 3,5 6,11 13,25 1,3 2,3 3,7 7,14 12,29 2,4 1,4 4,8 6,16 13,32 25,67 1,4 2,4 3,7 6,15 12,30 1,4 2,3 3,7 5,14 12,26 2,3 1,3 3,6 6,12 2,3 1,2 3,6 6,9 1,3 2,2 3,5 1,2 2,2 3,4 1,2 2,2 3,3 1,2 2,1 3,3 1,2 2,1 2,3 2,1 1,1 3,2 2,1 1,0 2,1 1,1 1,0 2,1 1,0 2,1 1,0 2,0 1,0 2,1 1,0 2,-1 1,0 1,0 2,0 1,0 2,-1 1,0 2,-1 1,-1 2,0 1,-1 1,-1 2,-1 1,-1 2,-1 1,-1 2,-2 3,-3 1,-1 2,-2 2,-3 2,-2 1,-2 3,-4 2,-2 1,-3 3,-4 6,-11 1,-3 2,-3 3,-6 5,-13 2,-4 2,-4 3,-8 6,-17 2,-5 1,-5 3,-9 7,-21 1,-5 2,-6 3,-11 6,-23 13,-52 1,-6 2,-7 3,-14 6,-30 13,-62 25,-138 2,-9 1,-9 3,-17 6,-36 12,-73 23,-153 47,-317 2,-11 1,-11 4,-21 6,-42 13,-83 1,-11 2,-10 3,-20 6,-40 13,-77 2,-10 1,-9 3,-19 7,-36 13,-69 25,-122 0,0 0,0 0,0 0,-1 1,-2 1,-3 0,0 0,-1 0,0 0,-1 0,-1 0,-1 0,0 0,0 1,-1 0,0 0,0 0,-1 0,0 0,0 0,0 0,-1"
                   style="fill:none;stroke:#3f3d99;stroke-width:48;stroke-linecap:square;stroke-linejoin:miter;stroke-miterlimit:3.23930693;stroke-opacity:1;stroke-dasharray:none"
                   id="path4331" />
              </g>
              <path
                 d="m 5540,4980 -4776,0"
                 style="fill:none;stroke:#000000;stroke-width:24;stroke-linecap:square;stroke-linejoin:miter;stroke-miterlimit:3.23930693;stroke-opacity:1;stroke-dasharray:none"
                 id="path4333" />
              <path
                 d="M 764,4980 764,204"
                 style="fill:none;stroke:#000000;stroke-width:24;stroke-linecap:square;stroke-linejoin:miter;stroke-miterlimit:3.23930693;stroke-opacity:1;stroke-dasharray:none"
                 id="path4335" />
              <path
                 d="m 764,204 4776,0"
                 style="fill:none;stroke:#000000;stroke-width:24;stroke-linecap:square;stroke-linejoin:miter;stroke-miterlimit:3.23930693;stroke-opacity:1;stroke-dasharray:none"
                 id="path4337" />
              <path
                 d="m 5540,204 0,4776"
                 style="fill:none;stroke:#000000;stroke-width:24;stroke-linecap:square;stroke-linejoin:miter;stroke-miterlimit:3.23930693;stroke-opacity:1;stroke-dasharray:none"
                 id="path4339" />
              <g
                 id="g4341" />
            </g>
          </g>
        </g>
      </g>
      <text
         xml:space="preserve"
         style="font-size:40px;font-style:normal;font-variant:normal;font-weight:normal;font-stretch:normal;text-align:start;line-height:125%;writing-mode:lr-tb;text-anchor:start;fill:#000000;fill-opacity:1;stroke:none;font-family:Nimbus Roman No9 L;-inkscape-font-specification:Nimbus Roman No9 L"
         x="600"
         y="153.54582"
         id="text4380"
         sodipodi:linespacing="125%"><tspan
           sodipodi:role="line"
           id="tspan4382"
           x="600"
           y="153.54582">c)</tspan></text>
    </g>
  </g>
</svg>
