<?xml version="1.0" encoding="UTF-8" standalone="no"?>
<!-- Created with Inkscape (http://www.inkscape.org/) -->

<svg
   xmlns:dc="http://purl.org/dc/elements/1.1/"
   xmlns:cc="http://creativecommons.org/ns#"
   xmlns:rdf="http://www.w3.org/1999/02/22-rdf-syntax-ns#"
   xmlns:svg="http://www.w3.org/2000/svg"
   xmlns="http://www.w3.org/2000/svg"
   xmlns:xlink="http://www.w3.org/1999/xlink"
   xmlns:sodipodi="http://sodipodi.sourceforge.net/DTD/sodipodi-0.dtd"
   xmlns:inkscape="http://www.inkscape.org/namespaces/inkscape"
   width="744.09448819"
   height="1052.3622047"
   id="svg8804"
   version="1.1"
   inkscape:version="0.47 r22583"
   sodipodi:docname="coordinate_axis.svg">
  <sodipodi:namedview
     id="base"
     pagecolor="#ffffff"
     bordercolor="#666666"
     borderopacity="1.0"
     inkscape:pageopacity="0.0"
     inkscape:pageshadow="2"
     inkscape:zoom="0.7"
     inkscape:cx="383.18887"
     inkscape:cy="540.30818"
     inkscape:document-units="px"
     inkscape:current-layer="layer2"
     showgrid="false"
     inkscape:window-width="1918"
     inkscape:window-height="1168"
     inkscape:window-x="0"
     inkscape:window-y="0"
     inkscape:window-maximized="1" />
  <defs
     id="defs8806">
    <marker
       style="overflow:visible;"
       id="Arrow1Lend"
       refX="0.0"
       refY="0.0"
       orient="auto"
       inkscape:stockid="Arrow1Lend">
      <path
         transform="scale(0.8) rotate(180) translate(12.5,0)"
         style="fill-rule:evenodd;stroke:#000000;stroke-width:1.0pt;marker-start:none;"
         d="M 0.0,0.0 L 5.0,-5.0 L -12.5,0.0 L 5.0,5.0 L 0.0,0.0 z "
         id="path6281" />
    </marker>
    <inkscape:perspective
       id="perspective8812"
       inkscape:persp3d-origin="372.04724 : 350.78739 : 1"
       inkscape:vp_z="744.09448 : 526.18109 : 1"
       inkscape:vp_y="0 : 1000 : 0"
       inkscape:vp_x="0 : 526.18109 : 1"
       sodipodi:type="inkscape:persp3d" />
    <inkscape:perspective
       sodipodi:type="inkscape:persp3d"
       inkscape:vp_x="0 : 0.5 : 1"
       inkscape:vp_y="0 : 1000 : 0"
       inkscape:vp_z="1 : 0.5 : 1"
       inkscape:persp3d-origin="0.5 : 0.33333333 : 1"
       id="perspective8882" />
  </defs>
  <metadata
     id="metadata8809">
    <rdf:RDF>
      <cc:Work
         rdf:about="">
        <dc:format>image/svg+xml</dc:format>
        <dc:type
           rdf:resource="http://purl.org/dc/dcmitype/StillImage" />
        <dc:title />
      </cc:Work>
    </rdf:RDF>
  </metadata>
  <g
     id="layer1"
     inkscape:groupmode="layer"
     inkscape:label="Base"
     style="display:inline">
    <image
       xlink:href="file:///home/filipe/Documents/PhD-Thesis/coordinates_blender.jpeg"
       width="800"
       height="600"
       id="image8884"
       x="-82.857124"
       y="231.6479" />
    <path
       sodipodi:nodetypes="ccccc"
       id="rect8927"
       d="M 207.85713,395.9336 457.49998,328.96931 441.13269,596.90042 229.2857,714.50502 207.85713,395.9336 z"
       style="fill:none;stroke:#000000;stroke-width:0.60000002;stroke-linecap:round;stroke-linejoin:round;stroke-miterlimit:4;stroke-opacity:1;stroke-dashoffset:0" />
    <path
       style="fill:none;stroke:#000000;stroke-width:0.60000002;stroke-linecap:round;stroke-linejoin:round;stroke-miterlimit:4;stroke-opacity:1;stroke-dashoffset:0"
       d="M 238.66678,330.27368 489.82486,395.1343 463.86112,717.61365 251.00398,596.31717 238.66678,330.27368 z"
       id="path8930"
       sodipodi:nodetypes="ccccc" />
    <path
       sodipodi:nodetypes="ccccc"
       id="path8932"
       d="M 346.24803,437.34985 574.67767,516.35261 348.19865,642.86236 123.21968,514.99989 346.24803,437.34985 z"
       style="fill:none;stroke:#000000;stroke-width:0.60000002;stroke-linecap:round;stroke-linejoin:round;stroke-miterlimit:4;stroke-opacity:1;stroke-dashoffset:0" />
    <path
       style="fill:none;stroke:#000000;stroke-width:0.60000002;stroke-linecap:round;stroke-linejoin:round;stroke-miterlimit:4;stroke-opacity:1;stroke-dashoffset:0"
       d="m 414.43333,460.58336 68.32046,24.45452 -227.99425,104.79147 -66.38502,-36.94874 226.05881,-92.29725 z"
       id="path8934"
       sodipodi:nodetypes="ccccc" />
    <text
       id="text10415"
       y="360.93362"
       x="365.35715"
       style="font-size:12px;font-style:normal;font-weight:normal;fill:#000000;fill-opacity:1;stroke:none;font-family:Bitstream Vera Sans"
       xml:space="preserve"><tspan
         y="360.93362"
         x="365.35715"
         id="tspan10417"
         sodipodi:role="line" /></text>
  </g>
  <g
     inkscape:groupmode="layer"
     id="layer2"
     inkscape:label="Axis">
    <path
       sodipodi:nodetypes="cc"
       id="path8936"
       d="m 219.54624,570.13427 229.1847,-97.39043"
       style="fill:none;stroke:#000000;stroke-width:1px;stroke-linecap:butt;stroke-linejoin:miter;stroke-opacity:1;marker-start:none;marker-end:url(#Arrow1Lend)" />
    <path
       sodipodi:nodetypes="cc"
       id="path8938"
       d="m 345.3459,650.06893 2.14658,-291.55528"
       style="fill:none;stroke:#000000;stroke-width:1px;stroke-linecap:butt;stroke-linejoin:miter;stroke-opacity:1;marker-end:url(#Arrow1Lend)" />
    <path
       sodipodi:nodetypes="cc"
       id="path8940"
       d="M 245.23087,472.61472 475.56635,571.6479"
       style="fill:none;stroke:#000000;stroke-width:1px;stroke-linecap:butt;stroke-linejoin:miter;stroke-opacity:1;marker-end:url(#Arrow1Lend)" />
    <g
       style="display:inline"
       id="g10439"
       transform="matrix(0.5,0,0,0.5,186.44508,174.28699)">
      <g
         word-spacing="normal"
         letter-spacing="normal"
         font-size-adjust="none"
         font-stretch="normal"
         font-weight="normal"
         font-variant="normal"
         font-style="normal"
         fill-rule="even-odd"
         stroke-miterlimit="10.433"
         xml:space="preserve"
         transform="matrix(1.0629921,0,0,-1.0629921,-186.02362,789.27165)"
         id="content"
         style="font-style:normal;font-variant:normal;font-weight:normal;font-stretch:normal;letter-spacing:normal;word-spacing:normal;text-anchor:start;fill:none;stroke:#000000;stroke-linecap:butt;stroke-linejoin:miter;stroke-miterlimit:10.43299961;stroke-opacity:1;stroke-dasharray:none;stroke-dashoffset:0"><path
           id="path10442"
           d="m 480.16,426.47 -4.18,9.92 c -0.16,0.4 -0.25,0.59 -0.25,0.65 0,0.29 0.84,1.24 2.93,1.44 0.5,0.05 1,0.1 1,0.95 0,0.59 -0.6,0.59 -0.75,0.59 h -11.85 c -0.3,0 -0.9,0 -0.9,-0.99 0,-0.55 0.5,-0.55 1.15,-0.55 2.99,0 3.28,-0.5 3.73,-1.6 l 5.88,-13.9 -10.51,-11.3 -0.65,-0.55 c -2.44,-2.64 -4.78,-3.43 -7.32,-3.59 -0.65,-0.04 -1.1,-0.04 -1.1,-0.99 0,-0.05 0,-0.55 0.65,-0.55 h 10.26 c 0.3,0 0.9,0 0.9,1 0,0.5 -0.5,0.54 -0.6,0.54 -0.44,0.05 -1.99,0.16 -1.99,1.55 0,0.8 0.75,1.59 1.35,2.24 l 5.07,5.38 4.49,4.88 5.03,-11.9 c 0.2,-0.55 0.25,-0.6 0.25,-0.7 0,-0.4 -0.95,-1.25 -2.89,-1.45 -0.55,-0.04 -1,-0.09 -1,-0.94 0,-0.6 0.55,-0.6 0.75,-0.6 h 11.81 c 0.35,0 0.94,0 0.94,0.95 0,0.59 -0.49,0.59 -0.89,0.59 -3.34,0.05 -3.44,0.2 -4.29,2.19 -1.94,4.64 -5.28,12.41 -6.42,15.4 3.38,3.48 8.62,9.41 10.21,10.81 1.44,1.19 3.33,2.39 6.33,2.54 0.64,0.05 1.09,0.05 1.09,0.99 0,0.05 0,0.55 -0.65,0.55 h -10.21 c -0.3,0 -0.94,0 -0.94,-0.99 0,-0.35 0.25,-0.5 0.59,-0.55 0.45,-0.05 2,-0.15 2,-1.55 0,-0.69 -0.55,-1.34 -0.95,-1.79 z"
           style="fill:#000000;stroke-width:0" /></g>    </g>
    <g
       style="display:inline"
       id="g10488"
       transform="matrix(0.5,0,0,0.5,331.21246,407.83889)">
      <g
         id="g10490"
         transform="matrix(1.0629921,0,0,-1.0629921,-186.02362,789.27165)"
         xml:space="preserve"
         stroke-miterlimit="10.433"
         fill-rule="even-odd"
         font-style="normal"
         font-variant="normal"
         font-weight="normal"
         font-stretch="normal"
         font-size-adjust="none"
         letter-spacing="normal"
         word-spacing="normal"
         style="font-style:normal;font-variant:normal;font-weight:normal;font-stretch:normal;letter-spacing:normal;word-spacing:normal;text-anchor:start;fill:none;stroke:#000000;stroke-linecap:butt;stroke-linejoin:miter;stroke-miterlimit:10.43299961;stroke-opacity:1;stroke-dasharray:none;stroke-dashoffset:0"><path
           d="m 485.74,434.34 0.7,0.7 c 1.49,1.5 3.13,3.19 6.52,3.44 0.55,0.05 1,0.05 1,0.95 0,0.39 -0.25,0.59 -0.65,0.59 h -9.07 c -0.29,0 -0.94,0 -0.94,-0.95 0,-0.54 0.5,-0.59 0.74,-0.59 0.35,0 1.8,-0.1 1.8,-1.15 0,-0.85 -1.15,-2.14 -1.35,-2.39 l -11.55,-13.3 -5.48,14.8 c -0.3,0.69 -0.3,0.79 -0.3,0.84 0,1.2 2.44,1.2 2.94,1.2 0.69,0 1.19,0 1.19,0.99 0,0.55 -0.59,0.55 -0.74,0.55 h -11.86 c -0.3,0 -0.95,0 -0.95,-0.99 0,-0.55 0.5,-0.55 1.15,-0.55 2.99,0 3.19,-0.45 3.64,-1.69 l 6.12,-16.4 c 0.05,-0.14 0.2,-0.69 0.2,-0.84 0,-0.15 -1.99,-8.17 -2.24,-9.07 -0.65,-2.74 -0.7,-2.89 -4.68,-2.94 -0.95,0 -1.35,0 -1.35,-0.99 0,-0.55 0.6,-0.55 0.7,-0.55 h 12.65 c 0.35,0 0.95,0 0.95,1 0,0.54 -0.45,0.54 -1.4,0.54 -0.09,0 -1.04,0 -1.89,0.1 -1.04,0.1 -1.34,0.2 -1.34,0.8 0,0.35 0.45,2.09 0.7,3.14 l 1.74,7.02 c 0.25,0.95 0.29,1.1 0.7,1.55 z"
           id="path10492"
           style="fill:#000000;stroke-width:0" /></g>    </g>
    <g
       style="display:inline"
       id="g10544"
       transform="matrix(0.5,0,0,0.5,303.51408,297.6884)">
      <g
         word-spacing="normal"
         letter-spacing="normal"
         font-size-adjust="none"
         font-stretch="normal"
         font-weight="normal"
         font-variant="normal"
         font-style="normal"
         fill-rule="even-odd"
         stroke-miterlimit="10.433"
         xml:space="preserve"
         transform="matrix(1.0629921,0,0,-1.0629921,-186.02362,789.27165)"
         id="g10546"
         style="font-style:normal;font-variant:normal;font-weight:normal;font-stretch:normal;letter-spacing:normal;word-spacing:normal;text-anchor:start;fill:none;stroke:#000000;stroke-linecap:butt;stroke-linejoin:miter;stroke-miterlimit:10.43299961;stroke-opacity:1;stroke-dasharray:none;stroke-dashoffset:0"><path
           id="path10548"
           d="m 491.87,438.83 0.01,0.04 0.01,0.03 0.01,0.04 0.01,0.05 0.01,0.04 0.01,0.04 0.02,0.05 0.01,0.04 0.01,0.05 0.01,0.05 0.01,0.05 0.01,0.05 0.01,0.05 0,0.03 0,0.02 0,0.03 0,0.03 0.01,0.03 0,0.02 c 0,0.45 -0.25,0.45 -1.25,0.45 h -21.02 c -1.2,0 -1.25,-0.05 -1.55,-0.99 l -2.74,-8.97 c -0.1,-0.25 -0.14,-0.6 -0.14,-0.7 0,-0.05 0,-0.55 0.59,-0.55 0.45,0 0.55,0.35 0.65,0.5 1.89,5.88 4.48,9.17 12.25,9.17 h 8.12 l -27.84,-31.14 c 0,-0.04 -0.2,-0.74 -0.2,-0.89 0,-0.45 0.35,-0.45 1.24,-0.45 h 21.67 c 1.2,0 1.25,0.05 1.55,1 l 3.53,11 c 0.05,0.2 0.2,0.55 0.2,0.75 0,0.25 -0.2,0.55 -0.64,0.55 -0.45,0 -0.5,-0.2 -0.85,-1.25 -2.19,-6.77 -4.58,-10.35 -13.05,-10.35 h -8.52 z"
           style="fill:#000000;stroke-width:0" /></g>    </g>
  </g>
  <g
     inkscape:groupmode="layer"
     id="layer3"
     inkscape:label="Data"
     style="display:inline">
    <path
       style="fill:none;stroke:#000000;stroke-width:0.60000002;stroke-linecap:round;stroke-linejoin:round;stroke-miterlimit:4;stroke-opacity:1;stroke-dasharray:none;stroke-dashoffset:0;display:inline"
       d="m 424.80348,464.35786 c 4.50636,3.64266 13.93929,8.07173 19.67429,12.00096 4.40443,1.60677 18.29026,11.42304 16.97482,10.18911 3.10522,2.97544 6.35576,4.99901 4.13474,6.01383 -1.82108,1.28768 -11.96456,-0.23038 -22.90253,-2.8029 -10.9949,-2.10097 -26.80303,-5.98477 -39.69311,-8.93628 -11.87271,-2.59598 -22.43417,-4.56913 -27.26334,-4.01342 -4.57446,0.73574 1.19588,4.83691 5.13389,8.597 13.57629,8.7932 32.61059,19.78347 37.97521,26.86871 1.20949,7.73274 -43.5765,-6.16923 -68.67203,-11.83535 -32.60509,-8.89048 -29.64393,0.53828 -9.0217,13.57474 14.99676,10.65164 39.20216,27.20937 16.8233,24.23738 -25.58452,-3.72701 -73.57022,-21.86488 -86.89674,-18.81712 -5.14942,7.22278 35.28174,31.09339 39.81792,43.00761 -1.29329,2.7071 -5.88668,3.32505 -16.10989,1.21342 -12.10673,-3.12639 -24.90734,-6.63379 -39.05289,-11.07952 -12.53563,-3.44604 -27.52521,-8.62415 -34.63403,-8.53936 -8.38796,-2.50682 -8.97613,-0.19905 -11.11467,1.18446 1.16198,3.49664 3.8205,7.76342 9.63288,13.67785 6.57494,6.74866 14.7277,14.40423 20.77808,21.12126 -0.41934,0.63589 3.5751,2.72755 2.96055,3.33667"
       id="path10359" />
  </g>
</svg>
