<?xml version="1.0" encoding="UTF-8" standalone="no"?>
<!-- Created with Inkscape (http://www.inkscape.org/) -->

<svg
   xmlns:dc="http://purl.org/dc/elements/1.1/"
   xmlns:cc="http://creativecommons.org/ns#"
   xmlns:rdf="http://www.w3.org/1999/02/22-rdf-syntax-ns#"
   xmlns:svg="http://www.w3.org/2000/svg"
   xmlns="http://www.w3.org/2000/svg"
   xmlns:sodipodi="http://sodipodi.sourceforge.net/DTD/sodipodi-0.dtd"
   xmlns:inkscape="http://www.inkscape.org/namespaces/inkscape"
   width="744.09448819"
   height="1052.3622047"
   id="svg2"
   version="1.1"
   inkscape:version="0.47 r22583"
   sodipodi:docname="New document 1">
  <sodipodi:namedview
     id="base"
     pagecolor="#ffffff"
     bordercolor="#666666"
     borderopacity="1.0"
     inkscape:pageopacity="0.0"
     inkscape:pageshadow="2"
     inkscape:zoom="1.979899"
     inkscape:cx="334.55813"
     inkscape:cy="457.80638"
     inkscape:document-units="px"
     inkscape:current-layer="layer1"
     showgrid="false"
     inkscape:window-width="1296"
     inkscape:window-height="1125"
     inkscape:window-x="524"
     inkscape:window-y="59"
     inkscape:window-maximized="0" />
  <defs
     id="defs4">
    <inkscape:perspective
       id="perspective10"
       inkscape:persp3d-origin="372.04724 : 350.78739 : 1"
       inkscape:vp_z="744.09448 : 526.18109 : 1"
       inkscape:vp_y="0 : 1000 : 0"
       inkscape:vp_x="0 : 526.18109 : 1"
       sodipodi:type="inkscape:persp3d" />
    <clipPath
       clipPathUnits="userSpaceOnUse"
       id="clipPath3087">
      <path
         d="m 752,180 0,2992 4800,0 0,-2992"
         clip-rule="evenodd"
         id="path3089" />
    </clipPath>
    <clipPath
       clipPathUnits="userSpaceOnUse"
       id="clipPath3065">
      <path
         d="m 3100,3189 0,191 104,0 0,-191"
         clip-rule="evenodd"
         id="path3067" />
    </clipPath>
    <clipPath
       clipPathUnits="userSpaceOnUse"
       id="clipPath2889">
      <path
         d="m 752,180 0,2992 4800,0 0,-2992"
         clip-rule="evenodd"
         id="path2891" />
    </clipPath>
    <clipPath
       clipPathUnits="userSpaceOnUse"
       id="clipPath2881">
      <path
         d="m 752,180 0,2992 4800,0 0,-2992"
         clip-rule="evenodd"
         id="path2883" />
    </clipPath>
    <clipPath
       clipPathUnits="userSpaceOnUse"
       id="clipPath2873">
      <path
         d="m 752,180 0,2992 4800,0 0,-2992"
         clip-rule="evenodd"
         id="path2875" />
    </clipPath>
    <clipPath
       clipPathUnits="userSpaceOnUse"
       id="clipPath2865">
      <path
         d="m 752,180 0,3184 4800,0 0,-3184"
         clip-rule="evenodd"
         id="path2867" />
    </clipPath>
    <clipPath
       clipPathUnits="userSpaceOnUse"
       id="clipPath2853">
      <path
         d="m 752,192 0,3172 4800,0 0,-3172"
         clip-rule="evenodd"
         id="path2855" />
    </clipPath>
    <inkscape:perspective
       sodipodi:type="inkscape:persp3d"
       inkscape:vp_x="0 : 0.5 : 1"
       inkscape:vp_y="0 : 1000 : 0"
       inkscape:vp_z="1 : 0.5 : 1"
       inkscape:persp3d-origin="0.5 : 0.33333333 : 1"
       id="perspective2845" />
  </defs>
  <metadata
     id="metadata7">
    <rdf:RDF>
      <cc:Work
         rdf:about="">
        <dc:format>image/svg+xml</dc:format>
        <dc:type
           rdf:resource="http://purl.org/dc/dcmitype/StillImage" />
        <dc:title></dc:title>
      </cc:Work>
    </rdf:RDF>
  </metadata>
  <g
     id="layer1"
     inkscape:groupmode="layer"
     inkscape:label="Layer 1">
    <g
       id="g2847"
       inkscape:label="OversampledFSignal"
       transform="matrix(1.25,0,0,-0.23347827,187.5,656.26843)">
      <g
         id="g2849"
         transform="matrix(0.0625,0,0,-0.0625,-47,210.25)">
        <g
           id="g2851"
           clip-path="url(#clipPath2853)">
          <g
             id="g2857">
            <path
               d="m 752,192 4800,0 0,3172 -4800,0 0,-3172 z"
               style="fill:#ffffff;fill-opacity:1;fill-rule:evenodd;stroke:none"
               id="path2859" />
          </g>
          <g
             id="g2861">
            <g
               id="g2863"
               clip-path="url(#clipPath2865)">
              <g
                 id="g2869">
                <g
                   id="g2871"
                   clip-path="url(#clipPath2873)" />
              </g>
              <g
                 id="g2877">
                <g
                   id="g2879"
                   clip-path="url(#clipPath2881)" />
              </g>
              <g
                 id="g2885">
                <g
                   id="g2887"
                   clip-path="url(#clipPath2889)">
                  <path
                     d="m 14984,3157 53,0 -26,0"
                     style="fill:#3f3d99;fill-opacity:0.2;fill-rule:evenodd;stroke:none"
                     id="path2893" />
                  <path
                     d="m -5749,3157 54,0 -27,0"
                     style="fill:#3f3d99;fill-opacity:0.2;fill-rule:evenodd;stroke:none"
                     id="path2895" />
                  <path
                     d="m 15037,3157 54,0 -27,0"
                     style="fill:#3f3d99;fill-opacity:0.2;fill-rule:evenodd;stroke:none"
                     id="path2897" />
                  <path
                     d="m -9000,3157 53,0 -26,0"
                     style="fill:#3f3d99;fill-opacity:0.2;fill-rule:evenodd;stroke:none"
                     id="path2899" />
                  <path
                     d="m -1005,3157 53,0 -27,0"
                     style="fill:#3f3d99;fill-opacity:0.2;fill-rule:evenodd;stroke:none"
                     id="path2901" />
                  <path
                     d="m 18235,3157 54,0 -27,0"
                     style="fill:#3f3d99;fill-opacity:0.2;fill-rule:evenodd;stroke:none"
                     id="path2903" />
                  <path
                     d="m 11840,3157 53,0 -27,0"
                     style="fill:#3f3d99;fill-opacity:0.2;fill-rule:evenodd;stroke:none"
                     id="path2905" />
                  <path
                     d="m -4203,3157 53,0 -26,0"
                     style="fill:#3f3d99;fill-opacity:0.2;fill-rule:evenodd;stroke:none"
                     id="path2907" />
                  <path
                     d="m 18182,3157 53,0 -26,0"
                     style="fill:#3f3d99;fill-opacity:0.2;fill-rule:evenodd;stroke:none"
                     id="path2909" />
                  <path
                     d="m 2193,3157 53,0 -27,0"
                     style="fill:#3f3d99;fill-opacity:0.2;fill-rule:evenodd;stroke:none"
                     id="path2911" />
                  <path
                     d="m -5802,3157 53,0 -26,0"
                     style="fill:#3f3d99;fill-opacity:0.2;fill-rule:evenodd;stroke:none"
                     id="path2913" />
                  <path
                     d="m 13385,3157 53,0 -26,0"
                     style="fill:#3f3d99;fill-opacity:0.2;fill-rule:evenodd;stroke:none"
                     id="path2915" />
                  <path
                     d="m -7401,3157 53,0 -26,0"
                     style="fill:#3f3d99;fill-opacity:0.2;fill-rule:evenodd;stroke:none"
                     id="path2917" />
                  <path
                     d="m 2246,3157 53,0 -26,0"
                     style="fill:#3f3d99;fill-opacity:0.2;fill-rule:evenodd;stroke:none"
                     id="path2919" />
                  <path
                     d="m -2551,3157 53,0 -26,0"
                     style="fill:#3f3d99;fill-opacity:0.2;fill-rule:evenodd;stroke:none"
                     id="path2921" />
                  <path
                     d="m 647,3157 53,0 -26,0"
                     style="fill:#3f3d99;fill-opacity:0.2;fill-rule:evenodd;stroke:none"
                     id="path2923" />
                  <path
                     d="m -7348,3157 54,0 -27,0"
                     style="fill:#3f3d99;fill-opacity:0.2;fill-rule:evenodd;stroke:none"
                     id="path2925" />
                  <path
                     d="m -952,3157 53,0 -26,0"
                     style="fill:#3f3d99;fill-opacity:0.2;fill-rule:evenodd;stroke:none"
                     id="path2927" />
                  <path
                     d="m 13438,3157 54,0 -27,0"
                     style="fill:#3f3d99;fill-opacity:0.2;fill-rule:evenodd;stroke:none"
                     id="path2929" />
                  <path
                     d="m 3792,3157 53,0 -27,0"
                     style="fill:#3f3d99;fill-opacity:0.2;fill-rule:evenodd;stroke:none"
                     id="path2931" />
                  <path
                     d="m 16583,3157 53,0 -26,0"
                     style="fill:#3f3d99;fill-opacity:0.2;fill-rule:evenodd;stroke:none"
                     id="path2933" />
                  <path
                     d="m 16636,3157 54,0 -27,0"
                     style="fill:#3f3d99;fill-opacity:0.2;fill-rule:evenodd;stroke:none"
                     id="path2935" />
                  <path
                     d="m -4150,3157 54,0 -27,0"
                     style="fill:#3f3d99;fill-opacity:0.2;fill-rule:evenodd;stroke:none"
                     id="path2937" />
                  <path
                     d="m 10241,3157 53,0 -27,0"
                     style="fill:#3f3d99;fill-opacity:0.2;fill-rule:evenodd;stroke:none"
                     id="path2939" />
                  <path
                     d="m 10187,3157 54,0 -27,0"
                     style="fill:#3f3d99;fill-opacity:0.2;fill-rule:evenodd;stroke:none"
                     id="path2941" />
                  <path
                     d="m -10599,3157 53,0 -26,0"
                     style="fill:#3f3d99;fill-opacity:0.2;fill-rule:evenodd;stroke:none"
                     id="path2943" />
                  <path
                     d="m 8642,3157 53,0 -27,0"
                     style="fill:#3f3d99;fill-opacity:0.2;fill-rule:evenodd;stroke:none"
                     id="path2945" />
                  <path
                     d="m -10546,3157 54,0 -27,0"
                     style="fill:#3f3d99;fill-opacity:0.2;fill-rule:evenodd;stroke:none"
                     id="path2947" />
                  <path
                     d="m 11786,3157 54,0 -27,0"
                     style="fill:#3f3d99;fill-opacity:0.2;fill-rule:evenodd;stroke:none"
                     id="path2949" />
                  <path
                     d="m 594,3157 53,0 -27,0"
                     style="fill:#3f3d99;fill-opacity:0.2;fill-rule:evenodd;stroke:none"
                     id="path2951" />
                  <path
                     d="m 8588,3157 54,0 -27,0"
                     style="fill:#3f3d99;fill-opacity:0.2;fill-rule:evenodd;stroke:none"
                     id="path2953" />
                  <path
                     d="m -2604,3157 53,0 -27,0"
                     style="fill:#3f3d99;fill-opacity:0.2;fill-rule:evenodd;stroke:none"
                     id="path2955" />
                  <path
                     d="m 7043,3157 53,0 -27,0"
                     style="fill:#3f3d99;fill-opacity:0.2;fill-rule:evenodd;stroke:none"
                     id="path2957" />
                  <path
                     d="m -12198,3157 54,0 -27,0"
                     style="fill:#3f3d99;fill-opacity:0.2;fill-rule:evenodd;stroke:none"
                     id="path2959" />
                  <path
                     d="m 5391,3157 53,0 -27,0"
                     style="fill:#3f3d99;fill-opacity:0.2;fill-rule:evenodd;stroke:none"
                     id="path2961" />
                  <path
                     d="m 3845,3157 53,0 -26,0"
                     style="fill:#3f3d99;fill-opacity:0.2;fill-rule:evenodd;stroke:none"
                     id="path2963" />
                  <path
                     d="m 5444,3157 53,0 -27,0"
                     style="fill:#3f3d99;fill-opacity:0.2;fill-rule:evenodd;stroke:none"
                     id="path2965" />
                  <path
                     d="m -8947,3157 54,0 -27,0"
                     style="fill:#3f3d99;fill-opacity:0.2;fill-rule:evenodd;stroke:none"
                     id="path2967" />
                  <path
                     d="m -12144,3157 53,0 -27,0"
                     style="fill:#3f3d99;fill-opacity:0.2;fill-rule:evenodd;stroke:none"
                     id="path2969" />
                  <path
                     d="m 6989,3157 54,0 -27,0"
                     style="fill:#3f3d99;fill-opacity:0.2;fill-rule:evenodd;stroke:none"
                     id="path2971" />
                  <path
                     d="m 10400,3157 80,0 -26,0 -27,0"
                     style="fill:#3f3d99;fill-opacity:0.2;fill-rule:evenodd;stroke:none"
                     id="path2973" />
                  <path
                     d="m -11985,3157 107,0 -27,0 -26,0 -27,0"
                     style="fill:#3f3d99;fill-opacity:0.2;fill-rule:evenodd;stroke:none"
                     id="path2975" />
                  <path
                     d="m -10386,3157 107,0 -27,0 -26,0 -27,0"
                     style="fill:#3f3d99;fill-opacity:0.2;fill-rule:evenodd;stroke:none"
                     id="path2977" />
                  <path
                     d="m -7188,3157 107,0 -27,0 -26,0 -27,0"
                     style="fill:#3f3d99;fill-opacity:0.2;fill-rule:evenodd;stroke:none"
                     id="path2979" />
                  <path
                     d="m -792,3157 107,0 -27,0 -27,0 -26,0"
                     style="fill:#3f3d99;fill-opacity:0.2;fill-rule:evenodd;stroke:none"
                     id="path2981" />
                  <path
                     d="m -5589,3157 107,0 -27,0 -27,0 -26,0"
                     style="fill:#3f3d99;fill-opacity:0.2;fill-rule:evenodd;stroke:none"
                     id="path2983" />
                  <path
                     d="m 18395,3157 107,0 -27,0 -27,0 -26,0"
                     style="fill:#3f3d99;fill-opacity:0.2;fill-rule:evenodd;stroke:none"
                     id="path2985" />
                  <path
                     d="m 8802,3157 106,0 -26,0 -27,0 -27,0"
                     style="fill:#3f3d99;fill-opacity:0.2;fill-rule:evenodd;stroke:none"
                     id="path2987" />
                  <path
                     d="m 4005,3157 106,0 -26,0 -27,0 -27,0"
                     style="fill:#3f3d99;fill-opacity:0.2;fill-rule:evenodd;stroke:none"
                     id="path2989" />
                  <path
                     d="m 2406,3157 106,0 -26,0 -27,0 -27,0"
                     style="fill:#3f3d99;fill-opacity:0.2;fill-rule:evenodd;stroke:none"
                     id="path2991" />
                  <path
                     d="m -2391,3157 107,0 -27,0 -27,0 -26,0"
                     style="fill:#3f3d99;fill-opacity:0.2;fill-rule:evenodd;stroke:none"
                     id="path2993" />
                  <path
                     d="m 7203,3157 106,0 -26,0 -27,0 -27,0"
                     style="fill:#3f3d99;fill-opacity:0.2;fill-rule:evenodd;stroke:none"
                     id="path2995" />
                  <path
                     d="m -8787,3157 107,0 -27,0 -26,0 -27,0"
                     style="fill:#3f3d99;fill-opacity:0.2;fill-rule:evenodd;stroke:none"
                     id="path2997" />
                  <path
                     d="m -3990,3157 107,0 -27,0 -27,0 -26,0"
                     style="fill:#3f3d99;fill-opacity:0.2;fill-rule:evenodd;stroke:none"
                     id="path2999" />
                  <path
                     d="m 16796,3157 107,0 -27,0 -26,0 -27,0"
                     style="fill:#3f3d99;fill-opacity:0.2;fill-rule:evenodd;stroke:none"
                     id="path3001" />
                  <path
                     d="m 13598,3157 107,0 -27,0 -26,0 -27,0"
                     style="fill:#3f3d99;fill-opacity:0.2;fill-rule:evenodd;stroke:none"
                     id="path3003" />
                  <path
                     d="m 5604,3157 106,0 -26,0 -27,0 -27,0"
                     style="fill:#3f3d99;fill-opacity:0.2;fill-rule:evenodd;stroke:none"
                     id="path3005" />
                  <path
                     d="m 807,3157 106,0 -26,0 -27,0 -26,0"
                     style="fill:#3f3d99;fill-opacity:0.2;fill-rule:evenodd;stroke:none"
                     id="path3007" />
                  <path
                     d="m 15197,3157 107,0 -27,0 -26,0 -27,0"
                     style="fill:#3f3d99;fill-opacity:0.2;fill-rule:evenodd;stroke:none"
                     id="path3009" />
                  <path
                     d="m 11999,3157 107,0 -27,0 -26,0 -27,0"
                     style="fill:#3f3d99;fill-opacity:0.2;fill-rule:evenodd;stroke:none"
                     id="path3011" />
                  <path
                     d="m 18608,3157 507,0 0,-947 -27,198 -27,-358 -26,-734 -27,-606 -27,1210 -26,-144 -27,735 -27,166 -26,-280 -27,-1072 -26,1451 -27,-690 -27,-1022 -26,83 -27,905 -27,-141 -26,374 -27,-620"
                     style="fill:#3f3d99;fill-opacity:0.2;fill-rule:evenodd;stroke:none"
                     id="path3013" />
                  <path
                     d="m -12837,2356 0,801 533,0 -27,-1492 -27,620 -26,-374 -27,141 -27,-905 -26,-83 -27,1022 -27,690 -26,-1451 -27,1072 -26,280 -27,-166 -27,-735 -26,144 -27,-1210 -27,606 -26,734 -27,358 -27,-198"
                     style="fill:#3f3d99;fill-opacity:0.2;fill-rule:evenodd;stroke:none"
                     id="path3015" />
                  <path
                     d="m -579,3157 1066,0 -27,-1492 -26,620 -27,-374 -26,141 -27,-905 -27,-83 -26,1022 -27,690 -27,-1451 -26,1072 -27,280 -27,-166 -26,-735 -27,144 -27,-1210 -26,606 -27,734 -27,358 -26,-198 -27,146 -27,-146 -26,198 -27,-358 -26,-734 -27,-606 -27,1210 -26,-144 -27,735 -27,166 -26,-280 -27,-1072 -27,1451 -26,-690 -27,-1022 -27,83 -26,905 -27,-141 -27,374 -26,-620"
                     style="fill:#3f3d99;fill-opacity:0.2;fill-rule:evenodd;stroke:none"
                     id="path3017" />
                  <path
                     d="m 10614,3157 1066,0 -27,-1492 -27,620 -26,-374 -27,141 -27,-905 -26,-83 -27,1022 -27,690 -26,-1451 -27,1072 -26,280 -27,-166 -27,-735 -26,144 -27,-1210 -27,606 -26,734 -27,358 -27,-198 -26,146 -27,-146 -27,198 -26,-358 -27,-734 -27,-606 -26,1210 -27,-144 -27,735 -26,166 -27,-280 -26,-1072 -27,1451 -27,-690 -26,-1022 -27,83 -27,905 -26,-141 -27,374 -27,-620"
                     style="fill:#3f3d99;fill-opacity:0.2;fill-rule:evenodd;stroke:none"
                     id="path3019" />
                  <path
                     d="m 4218,3157 1066,0 -27,-1492 -26,620 -27,-374 -27,141 -26,-905 -27,-83 -27,1022 -26,690 -27,-1451 -27,1072 -26,280 -27,-166 -27,-735 -26,144 -27,-1210 -26,606 -27,734 -27,358 -26,-198 -27,146 -27,-146 -26,198 -27,-358 -27,-734 -26,-606 -27,1210 -27,-144 -26,735 -27,166 -27,-280 -26,-1072 -27,1451 -27,-690 -26,-1022 -27,83 -26,905 -27,-141 -27,374 -26,-620"
                     style="fill:#3f3d99;fill-opacity:0.2;fill-rule:evenodd;stroke:none"
                     id="path3021" />
                  <path
                     d="m 15410,3157 1066,0 -26,-1492 -27,620 -27,-374 -26,141 -27,-905 -26,-83 -27,1022 -27,690 -26,-1451 -27,1072 -27,280 -26,-166 -27,-735 -27,144 -26,-1210 -27,606 -27,734 -26,358 -27,-198 -27,146 -26,-146 -27,198 -26,-358 -27,-734 -27,-606 -26,1210 -27,-144 -27,735 -26,166 -27,-280 -27,-1072 -26,1451 -27,-690 -27,-1022 -26,83 -27,905 -27,-141 -26,374 -27,-620"
                     style="fill:#3f3d99;fill-opacity:0.2;fill-rule:evenodd;stroke:none"
                     id="path3023" />
                  <path
                     d="m -3777,3157 1066,0 -26,-1492 -27,620 -27,-374 -26,141 -27,-905 -27,-83 -26,1022 -27,690 -27,-1451 -26,1072 -27,280 -27,-166 -26,-735 -27,144 -26,-1210 -27,606 -27,734 -26,358 -27,-198 -27,146 -26,-146 -27,198 -27,-358 -26,-734 -27,-606 -27,1210 -26,-144 -27,735 -27,166 -26,-280 -27,-1072 -27,1451 -26,-690 -27,-1022 -26,83 -27,905 -27,-141 -26,374 -27,-620"
                     style="fill:#3f3d99;fill-opacity:0.2;fill-rule:evenodd;stroke:none"
                     id="path3025" />
                  <path
                     d="m 9015,3157 1066,0 -27,-1492 -27,620 -26,-374 -27,141 -27,-905 -26,-83 -27,1022 -26,690 -27,-1451 -27,1072 -26,280 -27,-166 -27,-735 -26,144 -27,-1210 -27,606 -26,734 -27,358 -27,-198 -26,146 -27,-146 -27,198 -26,-358 -27,-734 -27,-606 -26,1210 -27,-144 -26,735 -27,166 -27,-280 -26,-1072 -27,1451 -27,-690 -26,-1022 -27,83 -27,905 -26,-141 -27,374 -27,-620"
                     style="fill:#3f3d99;fill-opacity:0.2;fill-rule:evenodd;stroke:none"
                     id="path3027" />
                  <path
                     d="m 7416,3157 1066,0 -27,-1492 -27,620 -26,-374 -27,141 -26,-905 -27,-83 -27,1022 -26,690 -27,-1451 -27,1072 -26,280 -27,-166 -27,-735 -26,144 -27,-1210 -27,606 -26,734 -27,358 -27,-198 -26,146 -27,-146 -26,198 -27,-358 -27,-734 -26,-606 -27,1210 -27,-144 -26,735 -27,166 -27,-280 -26,-1072 -27,1451 -27,-690 -26,-1022 -27,83 -27,905 -26,-141 -27,374 -27,-620"
                     style="fill:#3f3d99;fill-opacity:0.2;fill-rule:evenodd;stroke:none"
                     id="path3029" />
                  <path
                     d="m 5817,3157 1066,0 -27,-1492 -26,620 -27,-374 -27,141 -26,-905 -27,-83 -27,1022 -26,690 -27,-1451 -27,1072 -26,280 -27,-166 -27,-735 -26,144 -27,-1210 -27,606 -26,734 -27,358 -26,-198 -27,146 -27,-146 -26,198 -27,-358 -27,-734 -26,-606 -27,1210 -27,-144 -26,735 -27,166 -27,-280 -26,-1072 -27,1451 -27,-690 -26,-1022 -27,83 -27,905 -26,-141 -27,374 -26,-620"
                     style="fill:#3f3d99;fill-opacity:0.2;fill-rule:evenodd;stroke:none"
                     id="path3031" />
                  <path
                     d="m -5376,3157 1066,0 -26,-1492 -27,620 -27,-374 -26,141 -27,-905 -27,-83 -26,1022 -27,690 -27,-1451 -26,1072 -27,280 -26,-166 -27,-735 -27,144 -26,-1210 -27,606 -27,734 -26,358 -27,-198 -27,146 -26,-146 -27,198 -27,-358 -26,-734 -27,-606 -27,1210 -26,-144 -27,735 -27,166 -26,-280 -27,-1072 -26,1451 -27,-690 -27,-1022 -26,83 -27,905 -27,-141 -26,374 -27,-620"
                     style="fill:#3f3d99;fill-opacity:0.2;fill-rule:evenodd;stroke:none"
                     id="path3033" />
                  <path
                     d="m -2178,3157 1066,0 -26,-1492 -27,620 -27,-374 -26,141 -27,-905 -27,-83 -26,1022 -27,690 -27,-1451 -26,1072 -27,280 -27,-166 -26,-735 -27,144 -27,-1210 -26,606 -27,734 -27,358 -26,-198 -27,146 -26,-146 -27,198 -27,-358 -26,-734 -27,-606 -27,1210 -26,-144 -27,735 -27,166 -26,-280 -27,-1072 -27,1451 -26,-690 -27,-1022 -27,83 -26,905 -27,-141 -26,374 -27,-620"
                     style="fill:#3f3d99;fill-opacity:0.2;fill-rule:evenodd;stroke:none"
                     id="path3035" />
                  <path
                     d="m 12213,3157 1066,0 -27,-1492 -27,620 -26,-374 -27,141 -27,-905 -26,-83 -27,1022 -27,690 -26,-1451 -27,1072 -27,280 -26,-166 -27,-735 -27,144 -26,-1210 -27,606 -26,734 -27,358 -27,-198 -26,146 -27,-146 -27,198 -26,-358 -27,-734 -27,-606 -26,1210 -27,-144 -27,735 -26,166 -27,-280 -27,-1072 -26,1451 -27,-690 -26,-1022 -27,83 -27,905 -26,-141 -27,374 -27,-620"
                     style="fill:#3f3d99;fill-opacity:0.2;fill-rule:evenodd;stroke:none"
                     id="path3037" />
                  <path
                     d="m -11771,3157 1066,0 -27,-1492 -27,620 -26,-374 -27,141 -27,-905 -26,-83 -27,1022 -27,690 -26,-1451 -27,1072 -27,280 -26,-166 -27,-735 -27,144 -26,-1210 -27,606 -26,734 -27,358 -27,-198 -26,146 -27,-146 -27,198 -26,-358 -27,-734 -27,-606 -26,1210 -27,-144 -27,735 -26,166 -27,-280 -27,-1072 -26,1451 -27,-690 -26,-1022 -27,83 -27,905 -26,-141 -27,374 -27,-620"
                     style="fill:#3f3d99;fill-opacity:0.2;fill-rule:evenodd;stroke:none"
                     id="path3039" />
                  <path
                     d="m -10172,3157 1066,0 -27,-1492 -27,620 -26,-374 -27,141 -27,-905 -26,-83 -27,1022 -27,690 -26,-1451 -27,1072 -27,280 -26,-166 -27,-735 -27,144 -26,-1210 -27,606 -27,734 -26,358 -27,-198 -26,146 -27,-146 -27,198 -26,-358 -27,-734 -27,-606 -26,1210 -27,-144 -27,735 -26,166 -27,-280 -27,-1072 -26,1451 -27,-690 -27,-1022 -26,83 -27,905 -26,-141 -27,374 -27,-620"
                     style="fill:#3f3d99;fill-opacity:0.2;fill-rule:evenodd;stroke:none"
                     id="path3041" />
                  <path
                     d="m 17009,3157 1066,0 -26,-1492 -27,620 -27,-374 -26,141 -27,-905 -27,-83 -26,1022 -27,690 -26,-1451 -27,1072 -27,280 -26,-166 -27,-735 -27,144 -26,-1210 -27,606 -27,734 -26,358 -27,-198 -27,146 -26,-146 -27,198 -27,-358 -26,-734 -27,-606 -26,1210 -27,-144 -27,735 -26,166 -27,-280 -27,-1072 -26,1451 -27,-690 -27,-1022 -26,83 -27,905 -27,-141 -26,374 -27,-620"
                     style="fill:#3f3d99;fill-opacity:0.2;fill-rule:evenodd;stroke:none"
                     id="path3043" />
                  <path
                     d="m -6975,3157 1066,0 -26,-1492 -27,620 -27,-374 -26,141 -27,-905 -27,-83 -26,1022 -27,690 -26,-1451 -27,1072 -27,280 -26,-166 -27,-735 -27,144 -26,-1210 -27,606 -27,734 -26,358 -27,-198 -27,146 -26,-146 -27,198 -27,-358 -26,-734 -27,-606 -26,1210 -27,-144 -27,735 -26,166 -27,-280 -27,-1072 -26,1451 -27,-690 -27,-1022 -26,83 -27,905 -27,-141 -26,374 -27,-620"
                     style="fill:#3f3d99;fill-opacity:0.2;fill-rule:evenodd;stroke:none"
                     id="path3045" />
                  <path
                     d="m -8574,3157 1066,0 -26,-1492 -27,620 -27,-374 -26,141 -27,-905 -26,-83 -27,1022 -27,690 -26,-1451 -27,1072 -27,280 -26,-166 -27,-735 -27,144 -26,-1210 -27,606 -27,734 -26,358 -27,-198 -27,146 -26,-146 -27,198 -26,-358 -27,-734 -27,-606 -26,1210 -27,-144 -27,735 -26,166 -27,-280 -27,-1072 -26,1451 -27,-690 -27,-1022 -26,83 -27,905 -27,-141 -26,374 -27,-620"
                     style="fill:#3f3d99;fill-opacity:0.2;fill-rule:evenodd;stroke:none"
                     id="path3047" />
                  <path
                     d="m 13812,3157 1066,0 -27,-1492 -27,620 -26,-374 -27,141 -27,-905 -26,-83 -27,1022 -27,690 -26,-1451 -27,1072 -27,280 -26,-166 -27,-735 -27,144 -26,-1210 -27,606 -27,734 -26,358 -27,-198 -26,146 -27,-146 -27,198 -26,-358 -27,-734 -27,-606 -26,1210 -27,-144 -27,735 -26,166 -27,-280 -27,-1072 -26,1451 -27,-690 -27,-1022 -26,83 -27,905 -26,-141 -27,374 -27,-620"
                     style="fill:#3f3d99;fill-opacity:0.2;fill-rule:evenodd;stroke:none"
                     id="path3049" />
                  <path
                     d="m 1020,3157 1066,0 -27,-1492 -26,620 -27,-374 -27,141 -26,-905 -27,-83 -26,1022 -27,690 -27,-1451 -26,1072 -27,280 -27,-166 -26,-735 -27,144 -27,-1210 -26,606 -27,734 -27,358 -26,-198 -27,146 -27,-146 -26,198 -27,-358 -27,-734 -26,-606 -27,1210 -26,-144 -27,735 -27,166 -26,-280 -27,-1072 -27,1451 -26,-690 -27,-1022 -27,83 -26,905 -27,-141 -27,374 -26,-620"
                     style="fill:#3f3d99;fill-opacity:0.2;fill-rule:evenodd;stroke:none"
                     id="path3051" />
                  <path
                     d="m 2619,3157 1066,0 -27,-1492 -26,620 -27,-374 -27,141 -26,-905 -27,-83 -27,1022 -26,690 -27,-1451 -27,1072 -26,280 -27,-166 -26,-735 -27,144 -27,-1210 -26,606 -27,734 -27,358 -26,-198 -27,146 -27,-146 -26,198 -27,-358 -27,-734 -26,-606 -27,1210 -27,-144 -26,735 -27,166 -26,-280 -27,-1072 -27,1451 -26,-690 -27,-1022 -27,83 -26,905 -27,-141 -27,374 -26,-620"
                     style="fill:#3f3d99;fill-opacity:0.2;fill-rule:evenodd;stroke:none"
                     id="path3053" />
                  <path
                     d="m -12837,2356 26,-146 27,198 27,-358 26,-734 27,-606 27,1210 26,-144 27,735 27,166 26,-280 27,-1072 26,1451 27,-690 27,-1022 26,83 27,905 27,-141 26,374 27,-620 27,1492 26,0 27,0 27,0 26,0 27,0 27,0 26,0 27,0 26,0 27,0 27,0 26,0 27,0 27,0 26,0 27,0 27,0 26,0 27,0 27,0 26,-1492 27,620 27,-374 26,141 27,-905 27,-83 26,1022 27,690 26,-1451 27,1072 27,280 26,-166 27,-735 27,144 26,-1210 27,606 27,734 26,358 27,-198 27,146 26,-146 27,198 27,-358 26,-734 27,-606 26,1210 27,-144 27,735 26,166 27,-280 27,-1072 26,1451 27,-690 27,-1022 26,83 27,905 27,-141 26,374 27,-620 27,1492 26,0 27,0 27,0 26,0 27,0 26,0 27,0 27,0 26,0 27,0 27,0 26,0 27,0 27,0 26,0 27,0 27,0 26,0 27,0 27,0 26,-1492 27,620 27,-374 26,141 27,-905 26,-83 27,1022 27,690 26,-1451 27,1072 27,280 26,-166 27,-735 27,144 26,-1210 27,606 27,734 26,358 27,-198 27,146 26,-146 27,198 26,-358 27,-734 27,-606 26,1210 27,-144 27,735 26,166 27,-280 27,-1072 26,1451 27,-690 27,-1022 26,83 27,905 27,-141 26,374 27,-620 27,1492 26,0 27,0 26,0 27,0 27,0 26,0 27,0 27,0 26,0 27,0 27,0 26,0 27,0 27,0 26,0 27,0 27,0 26,0 27,0 26,0 27,-1492 27,620 26,-374 27,141 27,-905 26,-83 27,1022 27,690 26,-1451 27,1072 27,280 26,-166 27,-735 27,144 26,-1210 27,606 27,734 26,358 27,-198 26,146 27,-146 27,198 26,-358 27,-734 27,-606 26,1210 27,-144 27,735 26,166 27,-280 27,-1072 26,1451 27,-690 27,-1022 26,83 27,905 26,-141 27,374 27,-620 26,1492 27,0 27,0 26,0 27,0 27,0 26,0 27,0 27,0 26,0 27,0 27,0 26,0 27,0 27,0 26,0 27,0 26,0 27,0 27,0 26,0 27,-1492 27,620 26,-374 27,141 27,-905 26,-83 27,1022 27,690 26,-1451 27,1072 27,280 26,-166 27,-735 27,144 26,-1210 27,606 26,734 27,358 27,-198 26,146 27,-146 27,198 26,-358 27,-734 27,-606 26,1210 27,-144 27,735 26,166 27,-280 27,-1072 26,1451 27,-690 26,-1022 27,83 27,905 26,-141 27,374 27,-620 26,1492 27,0 27,0 26,0 27,0 27,0 26,0 27,0 27,0 26,0 27,0 27,0 26,0 27,0 26,0 27,0 27,0 26,0 27,0 27,0 26,0 27,-1492 27,620 26,-374 27,141 27,-905 26,-83 27,1022 27,690 26,-1451 27,1072 26,280 27,-166 27,-735 26,144 27,-1210 27,606 26,734 27,358 27,-198 26,146 27,-146 27,198 26,-358 27,-734 27,-606 26,1210 27,-144 27,735 26,166 27,-280 26,-1072 27,1451 27,-690 26,-1022 27,83 27,905 26,-141 27,374 27,-620 26,1492 27,0 27,0 26,0 27,0 27,0 26,0 27,0 27,0 26,0 27,0 26,0 27,0 27,0 26,0 27,0 27,0 26,0 27,0 27,0 26,0 27,-1492 27,620 26,-374 27,141 27,-905 26,-83 27,1022 26,690 27,-1451 27,1072 26,280 27,-166 27,-735 26,144 27,-1210 27,606 26,734 27,358 27,-198 26,146 27,-146 27,198 26,-358 27,-734 27,-606 26,1210 27,-144 26,735 27,166 27,-280 26,-1072 27,1451 27,-690 26,-1022 27,83 27,905 26,-141 27,374 27,-620 26,1492 27,0 27,0 26,0 27,0 26,0 27,0 27,0 26,0 27,0 27,0 26,0 27,0 27,0 26,0 27,0 27,0 26,0 27,0 27,0 26,0 27,-1492 27,620 26,-374 27,141 26,-905 27,-83 27,1022 26,690 27,-1451 27,1072 26,280 27,-166 27,-735 26,144 27,-1210 27,606 26,734 27,358 27,-198 26,146 27,-146 26,198 27,-358 27,-734 26,-606 27,1210 27,-144 26,735 27,166 27,-280 26,-1072 27,1451 27,-690 26,-1022 27,83 27,905 26,-141 27,374 27,-620 26,1492 27,0 26,0 27,0 27,0 26,0 27,0 27,0 26,0 27,0 27,0 26,0 27,0 27,0 26,0 27,0 27,0 26,0 27,0 27,0 26,0 27,-1492 26,620 27,-374 27,141 26,-905 27,-83 27,1022 26,690 27,-1451 27,1072 26,280 27,-166 27,-735 26,144 27,-1210 27,606 26,734 27,358 26,-198 27,146 27,-146 26,198 27,-358 27,-734 26,-606 27,1210 27,-144 26,735 27,166 27,-280 26,-1072 27,1451 27,-690 26,-1022 27,83 27,905 26,-141 27,374 26,-620 27,1492 27,0 26,0 27,0 27,0 26,0 27,0 27,0 26,0 27,0 27,0 26,0 27,0 27,0 26,0 27,0 26,0 27,0 27,0 26,0 27,0 27,-1492 26,620 27,-374 27,141 26,-905 27,-83 27,1022 26,690 27,-1451 27,1072 26,280 27,-166 27,-735 26,144 27,-1210 26,606 27,734 27,358 26,-198 27,146 27,-146 26,198 27,-358 27,-734 26,-606 27,1210 27,-144 26,735 27,166 27,-280 26,-1072 27,1451 27,-690 26,-1022 27,83 26,905 27,-141 27,374 26,-620 27,1492 27,0 26,0 27,0 27,0 26,0 27,0 27,0 26,0 27,0 27,0 26,0 27,0 26,0 27,0 27,0 26,0 27,0 27,0 26,0 27,0 27,-1492 26,620 27,-374 27,141 26,-905 27,-83 27,1022 26,690 27,-1451 27,1072 26,280 27,-166 26,-735 27,144 27,-1210 26,606 27,734 27,358 26,-198 27,146 27,-146 26,198 27,-358 27,-734 26,-606 27,1210 27,-144 26,735 27,166 26,-280 27,-1072 27,1451 26,-690 27,-1022 27,83 26,905 27,-141 27,374 26,-620 27,1492 27,0 26,0 27,0 27,0 26,0 27,0 27,0 26,0 27,0 26,0 27,0 27,0 26,0 27,0 27,0 26,0 27,0 27,0 26,0 27,0 27,-1492 26,620 27,-374 27,141 26,-905 27,-83 26,1022 27,690 27,-1451 26,1072 27,280 27,-166 26,-735 27,144 27,-1210 26,606 27,734 27,358 26,-198 27,146 27,-146 26,198 27,-358 27,-734 26,-606 27,1210 26,-144 27,735 27,166 26,-280 27,-1072 27,1451 26,-690 27,-1022 27,83 26,905 27,-141 27,374 26,-620 27,1492 27,0 26,0 27,0 27,0 26,0 27,0 26,0 27,0 27,0 26,0 27,0 27,0 26,0 27,0 27,0 26,0 27,0 27,0 26,0 27,0 27,-1492 26,620 27,-374 26,141 27,-905 27,-83 26,1022 27,690 27,-1451 26,1072 27,280 27,-166 26,-735 27,144 27,-1210 26,606 27,734 27,358 26,-198 27,146 27,-146 26,198 27,-358 26,-734 27,-606 27,1210 26,-144 27,735 27,166 26,-280 27,-1072 27,1451 26,-690 27,-1022 27,83 26,905 27,-141 27,374 26,-620 27,1492 26,0 27,0 27,0 26,0 27,0 27,0 26,0 27,0 27,0 26,0 27,0 27,0 26,0 27,0 27,0 26,0 27,0 27,0 26,0 27,0 26,-1492 27,620 27,-374 26,141 27,-905 27,-83 26,1022 27,690 27,-1451 26,1072 27,280 27,-166 26,-735 27,144 27,-1210 26,606 27,734 27,358 26,-198 27,146 26,-146 27,198 27,-358 26,-734 27,-606 27,1210 26,-144 27,735 27,166 26,-280 27,-1072 27,1451 26,-690 27,-1022 27,83 26,905 27,-141 26,374 27,-620 27,1492 26,0 27,0 27,0 26,0 27,0 27,0 26,0 27,0 27,0 26,0 27,0 27,0 26,0 27,0 27,0 26,0 27,0 26,0 27,0 27,0 26,-1492 27,620 27,-374 26,141 27,-905 27,-83 26,1022 27,690 27,-1451 26,1072 27,280 27,-166 26,-735 27,144 26,-1210 27,606 27,734 26,358 27,-198 27,146 26,-146 27,198 27,-358 26,-734 27,-606 27,1210 26,-144 27,735 27,166 26,-280 27,-1072 27,1451 26,-690 27,-1022 26,83 27,905 27,-141 26,374 27,-620 27,1492 26,0 27,0 27,0 26,0 27,0 27,0 26,0 27,0 27,0 26,0 27,0 26,0 27,0 27,0 26,0 27,0 27,0 26,0 27,0 27,0 26,-1492 27,620 27,-374 26,141 27,-905 27,-83 26,1022 27,690 27,-1451 26,1072 27,280 26,-166 27,-735 27,144 26,-1210 27,606 27,734 26,358 27,-198 27,146 26,-146 27,198 27,-358 26,-734 27,-606 27,1210 26,-144 27,735 27,166 26,-280 27,-1072 26,1451 27,-690 27,-1022 26,83 27,905 27,-141 26,374 27,-620 27,1492 26,0 27,0 27,0 26,0 27,0 27,0 26,0 27,0 26,0 27,0 27,0 26,0 27,0 27,0 26,0 27,0 27,0 26,0 27,0 27,0 26,-1492 27,620 27,-374 26,141 27,-905 27,-83 26,1022 27,690 26,-1451 27,1072 27,280 26,-166 27,-735 27,144 26,-1210 27,606 27,734 26,358 27,-198 27,146 26,-146 27,198 27,-358 26,-734 27,-606 26,1210 27,-144 27,735 26,166 27,-280 27,-1072 26,1451 27,-690 27,-1022 26,83 27,905 27,-141 26,374 27,-620 27,1492 26,0 27,0 27,0 26,0 27,0 26,0 27,0 27,0 26,0 27,0 27,0 26,0 27,0 27,0 26,0 27,0 27,0 26,0 27,0 27,0 26,-1492 27,620 27,-374 26,141 27,-905 26,-83 27,1022 27,690 26,-1451 27,1072 27,280 26,-166 27,-735 27,144 26,-1210 27,606 27,734 26,358 27,-198 27,146 26,-146 27,198 26,-358 27,-734 27,-606 26,1210 27,-144 27,735 26,166 27,-280 27,-1072 26,1451 27,-690 27,-1022 26,83 27,905 27,-141 26,374 27,-620 27,1492 26,0 27,0 26,0 27,0 27,0 26,0 27,0 27,0 26,0 27,0 27,0 26,0 27,0 27,0 26,0 27,0 27,0 26,0 27,0 26,0 27,-1492 27,620 26,-374 27,141 27,-905 26,-83 27,1022 27,690 26,-1451 27,1072 27,280 26,-166 27,-735 27,144 26,-1210 27,606 27,734 26,358 27,-198 26,146 27,-146 27,198 26,-358 27,-734 27,-606 26,1210 27,-144 27,735 26,166 27,-280 27,-1072 26,1451 27,-690 27,-1022 26,83 27,905 26,-141 27,374 27,-620 26,1492 27,0 27,0 26,0 27,0 27,0 26,0 27,0 27,0 26,0 27,0 27,0 26,0 27,0 27,0 26,0 27,0 26,0 27,0 27,0 26,0 27,-1492 27,620 26,-374 27,141 27,-905 26,-83 27,1022 27,690 26,-1451 27,1072 27,280 26,-166 27,-735 27,144 26,-1210 27,606 26,734 27,358 27,-198 26,146 27,-146 27,198 26,-358 27,-734 27,-606 26,1210 27,-144 27,735 26,166 27,-280 27,-1072 26,1451 27,-690 26,-1022 27,83 27,905 26,-141 27,374 27,-620 26,1492 27,0 27,0 26,0 27,0 27,0 26,0 27,0 27,0 26,0 27,0 27,0 26,0 27,0 26,0 27,0 27,0 26,0 27,0 27,0 26,0 27,-1492 27,620 26,-374 27,141 27,-905 26,-83 27,1022 27,690 26,-1451 27,1072 26,280 27,-166 27,-735 26,144 27,-1210 27,606 26,734 27,358 27,-198"
                     style="fill:none;stroke:#3f3d99;stroke-width:14;stroke-linecap:square;stroke-linejoin:miter;stroke-miterlimit:3.23930693;stroke-opacity:1;stroke-dasharray:none"
                     id="path3055" />
                </g>
              </g>
              <g
                 id="g3057">
                <path
                   d="m 3152,3157 0,-57"
                   style="fill:none;stroke:#000000;stroke-width:3;stroke-linecap:butt;stroke-linejoin:miter;stroke-miterlimit:3.23930693;stroke-opacity:1;stroke-dasharray:none"
                   id="path3059" />
              </g>
              <g
                 id="g3061">
                <g
                   id="g3063"
                   clip-path="url(#clipPath3065)">
                  <g
                     id="g3069">
                    <g
                       id="g3071"
                       transform="translate(2364,1392.5854)">
                      <text
                         transform="translate(752,1940)"
                         id="text3073">
                        <tspan
                           style="font-size:144px;font-variant:normal;font-weight:normal;writing-mode:lr-tb;fill:#000000;fill-opacity:1;fill-rule:nonzero;stroke:none;font-family:Times;-inkscape-font-specification:Times-Roman"
                           x="0"
                           y="0"
                           id="tspan3075">0</tspan>
                      </text>
                      <g
                         id="g3077"
                         transform="translate(-2364,-1392.5854)" />
                    </g>
                  </g>
                </g>
              </g>
              <g
                 id="g3079">
                <path
                   d="m 754,3157 4796,0"
                   style="fill:none;stroke:#000000;stroke-width:3;stroke-linecap:butt;stroke-linejoin:miter;stroke-miterlimit:3.23930693;stroke-opacity:1;stroke-dasharray:none"
                   id="path3081" />
              </g>
              <g
                 id="g3083">
                <g
                   id="g3085"
                   clip-path="url(#clipPath3087)" />
              </g>
            </g>
          </g>
        </g>
      </g>
    </g>
    <rect
       ry="6.3134532"
       rx="7.1131201"
       y="653.60443"
       x="194.45438"
       height="3.5355322"
       width="247.99245"
       id="rect3218"
       style="fill:#ffffff;fill-opacity:1;stroke:none" />
    <path
       sodipodi:nodetypes="cc"
       id="path3214"
       d="m 291.68155,599.05406 124.7232,0"
       style="fill:none;stroke:#000000;stroke-width:1px;stroke-linecap:round;stroke-linejoin:miter;stroke-opacity:1" />
    <path
       id="path3220"
       d="m 333.35034,615.47121 83.08505,0"
       style="fill:none;stroke:#000000;stroke-width:1px;stroke-linecap:round;stroke-linejoin:miter;stroke-opacity:1" />
    <path
       id="path3222"
       d="m 333.22407,653.09939 0,-37.88072"
       style="fill:none;stroke:#000000;stroke-width:0.6;stroke-linecap:butt;stroke-linejoin:miter;stroke-opacity:1;stroke-miterlimit:4;stroke-dasharray:0.6,3.6;stroke-dashoffset:0" />
    <path
       sodipodi:nodetypes="cc"
       style="fill:none;stroke:#000000;stroke-width:0.60000002;stroke-linecap:butt;stroke-linejoin:miter;stroke-miterlimit:4;stroke-opacity:1;stroke-dasharray:0.6, 3.6;stroke-dashoffset:0"
       d="m 416.68792,653.09939 0,-53.77358"
       id="path3996" />
    <path
       id="path3998"
       d="m 291.68792,653.09939 0,-53.77358"
       style="fill:none;stroke:#000000;stroke-width:0.60000002;stroke-linecap:butt;stroke-linejoin:miter;stroke-miterlimit:4;stroke-opacity:1;stroke-dasharray:0.6, 3.6;stroke-dashoffset:0"
       sodipodi:nodetypes="cc" />
    <g
       id="g4147"
       transform="matrix(0.20117738,0,0,0.20117738,238.07225,555.8576)">
      <g
         word-spacing="normal"
         letter-spacing="normal"
         font-size-adjust="none"
         font-stretch="normal"
         font-weight="normal"
         font-variant="normal"
         font-style="normal"
         fill-rule="even-odd"
         stroke-miterlimit="10.433"
         xml:space="preserve"
         transform="matrix(1.0629921,0,0,-1.0629921,-186.02362,789.27165)"
         id="content"
         style="font-style:normal;font-variant:normal;font-weight:normal;font-stretch:normal;letter-spacing:normal;word-spacing:normal;text-anchor:start;fill:none;stroke:#000000;stroke-linecap:butt;stroke-linejoin:miter;stroke-miterlimit:10.43299961;stroke-opacity:1;stroke-dasharray:none;stroke-dashoffset:0"><path
           id="path4150"
           d="m 481.8,424.58 0.07,0 0.07,0 0.07,0 0.08,0.01 0.09,0 0.09,0 0.09,0.01 0.1,0.01 0.1,0.01 0.1,0.01 0.1,0.02 0.1,0.02 0.1,0.03 0.1,0.02 0.11,0.04 0.1,0.03 0.09,0.05 0.1,0.04 0.09,0.06 0.09,0.05 0.09,0.07 0.08,0.07 0.03,0.04 0.04,0.04 0.04,0.04 0.03,0.05 0.03,0.04 0.04,0.05 0.02,0.05 0.03,0.05 0.03,0.05 0.02,0.06 0.02,0.06 0.02,0.05 0.02,0.07 0.02,0.06 0.01,0.07 0.01,0.07 0.01,0.07 0.01,0.07 0,0.07 0,0.08 c 0,1.2 -1.04,1.2 -1.94,1.2 h -11.35 c -7.53,0 -13.06,-8.22 -13.06,-14.15 0,-4.38 2.94,-7.87 7.47,-7.87 l 0.05,1.1 c -2.44,0 -4.43,1.79 -4.43,5.38 0,1.49 0.6,5.58 2.34,8.52 2.09,3.43 5.08,4.13 6.78,4.13 4.18,0 4.58,-3.29 4.58,-4.83 0,-2.34 -1,-6.43 -2.69,-8.97 -1.94,-2.94 -4.63,-4.23 -6.58,-4.23 h 0 l -0.05,-1.1 c 5.88,0 12.51,6.03 12.51,13.7 0,0.85 0,3.24 -1.55,5.43 z"
           style="fill:#000000;stroke-width:0" /><path
           id="path4152"
           d="m 534.22,422.29 0.14,0 0.15,0 0.15,0.01 0.07,0 0.07,0 0.07,0.01 0.08,0.01 0.07,0.01 0.07,0.01 0.06,0.02 0.07,0.01 0.07,0.02 0.06,0.02 0.06,0.03 0.06,0.03 0.05,0.03 0.06,0.03 0.05,0.04 0.04,0.04 0.05,0.05 0.03,0.05 0.02,0.03 0.02,0.02 0.02,0.03 0.01,0.03 0.02,0.03 0.01,0.04 0.01,0.03 0.01,0.04 0.01,0.03 0.01,0.04 0.01,0.04 0,0.04 0.01,0.04 0,0.04 0,0.05 0,0.05 c 0,0.99 -0.94,0.99 -1.64,0.99 h -29.84 c -0.7,0 -1.64,0 -1.64,-0.99 0,-1 0.94,-1 1.69,-1 z"
           style="fill:#000000;stroke-width:0" /><path
           id="path4154"
           d="m 534.27,412.62 0.13,0.01 0.14,0 0.14,0 0.07,0.01 0.07,0 0.07,0.01 0.07,0.01 0.07,0.01 0.07,0.01 0.06,0.01 0.07,0.02 0.06,0.02 0.06,0.02 0.06,0.02 0.06,0.03 0.06,0.03 0.05,0.04 0.05,0.04 0.04,0.04 0.05,0.04 0.02,0.03 0.02,0.03 0.01,0.02 0.02,0.03 0.02,0.03 0.01,0.03 0.02,0.03 0.01,0.03 0.01,0.04 0.01,0.03 0.01,0.04 0.01,0.04 0.01,0.04 0,0.04 0.01,0.04 0,0.04 0,0.05 0,0.04 c 0,1 -0.94,1 -1.69,1 h -29.74 c -0.75,0 -1.69,0 -1.69,-1 0,-1 0.94,-1 1.64,-1 z"
           style="fill:#000000;stroke-width:0" /><path
           id="path4156"
           d="m 573.66,450.06 -0.02,0.05 -0.02,0.05 -0.02,0.05 -0.02,0.04 -0.02,0.05 -0.02,0.04 -0.01,0.04 -0.02,0.04 -0.02,0.04 -0.02,0.03 -0.02,0.04 -0.02,0.03 -0.02,0.03 -0.02,0.03 -0.03,0.02 -0.02,0.03 -0.03,0.02 -0.03,0.03 -0.02,0.02 -0.04,0.02 -0.03,0.01 -0.03,0.02 -0.04,0.01 -0.04,0.02 -0.04,0.01 -0.04,0.01 -0.05,0 -0.05,0.01 -0.05,0.01 -0.05,0 -0.06,0 -0.06,0 c -0.66,0 -0.77,-0.24 -0.98,-0.8 l -8.05,-20.4 c -0.35,-0.87 -0.94,-2.41 -4.08,-2.41 V 426 h 7.77 v 1.25 c -1.53,0 -2.5,0.7 -2.5,1.68 0,0.28 0.03,0.35 0.17,0.69 l 1.67,4.29 0.49,1.26 4.46,11.33 4.47,-11.33 h -8.93 l -0.49,-1.26 h 9.91 l 2.02,-5.09 c 0.07,-0.17 0.17,-0.41 0.17,-0.59 0,-0.98 -1.88,-0.98 -2.82,-0.98 V 426 h 9.83 v 1.25 h -0.7 c -2.33,0 -2.58,0.36 -2.96,1.33 z"
           style="fill:#000000;stroke-width:0" /><polyline
           id="polyline4158"
           points="558,418 587.52,418 587.52,420.04 558,420.04 "
           style="fill:#000000;fill-rule:nonzero;stroke-width:0" /><path
           id="path4160"
           d="m 561.09,412.82 v -1.26 h 0.84 c 2.68,0 2.75,-0.35 2.75,-1.57 v -18.17 c 0,-1.18 -0.07,-1.57 -2.75,-1.57 h -0.84 V 389 h 14.79 c 4.91,0 8.51,3.07 8.51,6.38 0,3.03 -3.07,5.62 -7.33,6.07 3.42,0.62 6.28,2.75 6.28,5.44 0,3.14 -3.66,5.93 -8.51,5.93 l -0.24,-1.26 c 3.45,0 5.26,-2.47 5.26,-4.67 0,-2.48 -2.33,-5.02 -6.35,-5.02 h -5.75 v -0.98 h 7.43 c 3.7,0 5.61,-3 5.61,-5.44 0,-2.58 -2.3,-5.2 -6.13,-5.2 h -5.23 c -1.65,0 -1.68,0.29 -1.68,1.36 v 9.28 0.98 8.33 c 0,1.08 0.03,1.36 1.68,1.36 h 5.16 l 0.24,1.26 z"
           style="fill:#000000;stroke-width:0" /></g>    </g>
    <g
       transform="matrix(0.15035663,0,0,0.15035663,306.15072,542.93262)"
       id="g4454">
      <g
         style="font-style:normal;font-variant:normal;font-weight:normal;font-stretch:normal;letter-spacing:normal;word-spacing:normal;text-anchor:start;fill:none;stroke:#000000;stroke-linecap:butt;stroke-linejoin:miter;stroke-miterlimit:10.43299961;stroke-opacity:1;stroke-dasharray:none;stroke-dashoffset:0"
         id="g4456"
         transform="matrix(1.0629921,0,0,-1.0629921,-186.02362,789.27165)"
         xml:space="preserve"
         stroke-miterlimit="10.433"
         fill-rule="even-odd"
         font-style="normal"
         font-variant="normal"
         font-weight="normal"
         font-stretch="normal"
         font-size-adjust="none"
         letter-spacing="normal"
         word-spacing="normal"><path
           style="fill:#000000;stroke-width:0"
           d="m 475.82,440.67 -0.02,0.06 -0.02,0.06 -0.02,0.05 -0.02,0.06 -0.02,0.05 -0.02,0.05 -0.03,0.05 -0.02,0.05 -0.02,0.04 -0.02,0.05 -0.02,0.04 -0.03,0.04 -0.02,0.04 -0.03,0.03 -0.02,0.04 -0.03,0.03 -0.03,0.03 -0.03,0.03 -0.04,0.03 -0.03,0.02 -0.04,0.03 -0.04,0.02 -0.04,0.02 -0.05,0.01 -0.05,0.02 -0.05,0.01 -0.05,0.01 -0.06,0.01 -0.06,0.01 -0.07,0 -0.07,0.01 -0.03,0 -0.04,0 c -0.8,0 -0.95,-0.3 -1.2,-1 l -10.31,-29.79 c -0.89,-2.54 -2.88,-3.29 -5.58,-3.34 V 406 h 10.81 v 1.54 c -2.49,0 -3.73,1.25 -3.73,2.55 0,0.14 0.05,0.64 0.1,0.74 l 2.29,6.53 0.55,1.54 5.57,16.19 5.63,-16.19 h -11.2 l -0.55,-1.54 h 12.3 l 2.64,-7.63 c 0.05,-0.19 0.15,-0.49 0.15,-0.69 0,-1.5 -2.79,-1.5 -4.13,-1.5 V 406 h 13.69 v 1.54 h -0.89 c -2.99,0 -3.69,0.35 -4.23,2 z"
           id="path4458" /></g>    </g>
    <g
       id="g4756"
       transform="matrix(0.15018405,0,0,0.15018405,327.30126,559.67318)">
      <g
         word-spacing="normal"
         letter-spacing="normal"
         font-size-adjust="none"
         font-stretch="normal"
         font-weight="normal"
         font-variant="normal"
         font-style="normal"
         fill-rule="even-odd"
         stroke-miterlimit="10.433"
         xml:space="preserve"
         transform="matrix(1.0629921,0,0,-1.0629921,-186.02362,789.27165)"
         id="g4758"
         style="font-style:normal;font-variant:normal;font-weight:normal;font-stretch:normal;letter-spacing:normal;word-spacing:normal;text-anchor:start;fill:none;stroke:#000000;stroke-linecap:butt;stroke-linejoin:miter;stroke-miterlimit:10.43299961;stroke-opacity:1;stroke-dasharray:none;stroke-dashoffset:0"><path
           id="path4760"
           d="m 478.81,423.79 0.45,0.09 0.44,0.11 0.43,0.12 0.42,0.13 0.42,0.15 0.4,0.15 0.39,0.17 0.38,0.18 0.37,0.19 0.36,0.19 0.35,0.21 0.33,0.22 0.32,0.23 0.31,0.24 0.3,0.24 0.28,0.26 0.27,0.26 0.25,0.27 0.24,0.28 0.22,0.28 0.21,0.29 0.19,0.3 0.17,0.3 0.16,0.31 0.14,0.32 0.12,0.32 0.11,0.32 0.08,0.33 0.07,0.33 0.05,0.34 0.03,0.34 0.01,0.35 c 0,4.33 -4.58,8.41 -11.06,8.41 l -0.34,-1.54 c 4.83,0 6.57,-4.24 6.57,-6.87 0,-3.2 -2.44,-7.38 -7.97,-7.38 h -7.22 v -1.09 h 9.36 c 4.94,0 7.03,-4.64 7.03,-7.98 0,-3.53 -2.59,-7.62 -7.72,-7.62 h 0 -6.23 c -2.34,0 -2.44,0.35 -2.44,2 v 13.6 1.09 12.25 c 0,1.65 0.1,2 2.44,2 h 6.18 l 0.34,1.54 h -18.23 v -1.54 h 1.2 c 3.83,0 3.94,-0.55 3.94,-2.34 v -26.25 c 0,-1.8 -0.11,-2.35 -3.94,-2.35 h -1.2 V 406 h 19.53 c 6.63,0 11.11,4.43 11.11,9.12 0,4.33 -4.09,8.06 -9.62,8.67 z"
           style="fill:#000000;stroke-width:0" /></g>    </g>
  </g>
</svg>
